<?xml version="1.0" encoding="UTF-8" standalone="no"?>
<svg
   width="23.27479"
   height="70.60228"
   viewBox="0 0 23.274791 70.602285"
   version="1.2"
   id="svg117"
   sodipodi:docname="clefs-and-keys.svg"
   inkscape:version="1.3.2 (091e20e, 2023-11-25, custom)"
   xmlns:inkscape="http://www.inkscape.org/namespaces/inkscape"
   xmlns:sodipodi="http://sodipodi.sourceforge.net/DTD/sodipodi-0.dtd"
   xmlns="http://www.w3.org/2000/svg"
   xmlns:svg="http://www.w3.org/2000/svg"
   xmlns:rdf="http://www.w3.org/1999/02/22-rdf-syntax-ns#"
   xmlns:cc="http://creativecommons.org/ns#"
   xmlns:dc="http://purl.org/dc/elements/1.1/">
  <defs
     id="defs117" />
  <sodipodi:namedview
     id="namedview117"
     pagecolor="#ffffff"
     bordercolor="#000000"
     borderopacity="0.25"
     inkscape:showpageshadow="2"
     inkscape:pageopacity="0.0"
     inkscape:pagecheckerboard="0"
     inkscape:deskcolor="#d1d1d1"
     inkscape:zoom="2.56"
     inkscape:cx="1120.1172"
     inkscape:cy="313.47656"
     inkscape:window-width="2560"
     inkscape:window-height="1057"
     inkscape:window-x="-8"
     inkscape:window-y="-8"
     inkscape:window-maximized="1"
     inkscape:current-layer="svg117"
     showguides="true"
     showgrid="false">
    <inkscape:page
       x="2.2429644e-05"
       y="-1.866771e-06"
       width="23.274792"
       height="70.602287"
       id="page1"
       margin="0"
       bleed="0"
       inkscape:export-filename="..\..\..\dev\tilia-desktop\tilia\ui\img\accidental-natural.svg"
       inkscape:export-xdpi="96"
       inkscape:export-ydpi="96" />
  </sodipodi:namedview>
  <title
     id="title1">Unbenannte Partitur</title>
  <desc
     id="desc1">Generated by MuseScore Studio 4.3.2</desc>
  <metadata
     id="metadata121">
    <rdf:RDF>
      <cc:Work
         rdf:about="">
        <dc:title>Unbenannte Partitur</dc:title>
      </cc:Work>
    </rdf:RDF>
  </metadata>
  <path
     class="Accidental"
     d="m 19.620933,17.249068 c -0.186,-0.2015 -0.496,-0.29456 -0.8836,-0.29456 l -0.2015,0.0931 c 0,0 -0.093,0 -0.093,0 L 5.9327327,20.520048 V 3.1577976 h -2.7749 V 52.268038 c 0,1.08519 0.8991,1.28669 1.7827,1.28669 l 12.5102003,-3.47244 v 17.3622 h 2.6663 c 0,-16.46314 0,-32.1356 0,-49.11023 0,-0.38763 -0.186,-0.88369 -0.4961,-1.08519 M 5.9327327,45.028628 v -16.27708 l 11.5180003,-3.27091 v 16.37008 l -11.5180003,3.17791"
     id="path8-6"
     style="font-variation-settings:normal;opacity:1;vector-effect:none;fill:#000000;fill-opacity:1;stroke:#ffffff;stroke-width:6.31559;stroke-linecap:butt;stroke-linejoin:miter;stroke-miterlimit:4;stroke-dasharray:none;stroke-dashoffset:0;stroke-opacity:1;-inkscape-stroke:none;stop-color:#000000;stop-opacity:1" />
  <path
     class="Accidental"
     d="m 19.620933,17.249068 c -0.186,-0.2015 -0.496,-0.29456 -0.8836,-0.29456 l -0.2015,0.0931 c 0,0 -0.093,0 -0.093,0 L 5.9327327,20.520048 V 3.1577976 h -2.7749 V 52.268038 c 0,1.08519 0.8991,1.28669 1.7827,1.28669 l 12.5102003,-3.47244 v 17.3622 h 2.6663 c 0,-16.46314 0,-32.1356 0,-49.11023 0,-0.38763 -0.186,-0.88369 -0.4961,-1.08519 M 5.9327327,45.028628 v -16.27708 l 11.5180003,-3.27091 v 16.37008 l -11.5180003,3.17791"
     id="path38"
     style="stroke-width:0.992126" />
</svg>
