<?xml version="1.0" encoding="UTF-8" standalone="no"?>
<svg
   width="43.12809"
   height="68.703156"
   viewBox="0 0 43.128093 68.70316"
   version="1.2"
   id="svg117"
   xmlns="http://www.w3.org/2000/svg"
   xmlns:svg="http://www.w3.org/2000/svg"
   xmlns:rdf="http://www.w3.org/1999/02/22-rdf-syntax-ns#"
   xmlns:cc="http://creativecommons.org/ns#"
   xmlns:dc="http://purl.org/dc/elements/1.1/">
  <defs
     id="defs117" />
  <title
     id="title1">Unbenannte Partitur</title>
  <desc
     id="desc1">Generated by MuseScore Studio 4.3.2</desc>
  <metadata
     id="metadata121">
    <rdf:RDF>
      <cc:Work
         rdf:about="">
        <dc:title>Unbenannte Partitur</dc:title>
      </cc:Work>
    </rdf:RDF>
  </metadata>
  <path
     class="Accidental"
     d="m 31.7243,32.716317 c -4.96,0 -7.8275,2.976 -8.3235,3.56495 L 23.7883,4.5372671 c 0,-0.79043 -0.589,-1.37947 -1.3795,-1.37947 h -1.1935 c -0.7905,0 -1.395,0.58904 -1.395,1.37947 l 0.2945,29.8685299 c -1.2865,-0.992 -2.8675,-1.68948 -5.053,-1.68948 -4.96,0 -7.8430004,3.06895 -8.3390004,3.67348 l 0.403,-31.8525299 c 0,-0.79043 -0.589,-1.37947 -1.395,-1.37947 h -1.178 c -0.806,0 -1.395,0.58904 -1.395,1.37947 l 0.496,59.6285299 c 0,0.79052 0.589,1.37957 1.395,1.37957 0.186,0 0.589,-0.186 0.7905,-0.29453 C 11.5898,62.383367 16.6428,58.213797 20.2233,52.850817 l 0.093,11.31498 c 0,0.79052 0.6045,1.37957 1.395,1.37957 0.2015,0 0.589,-0.186 0.7905,-0.29453 8.5405,-4.26252 17.4685,-12.40002 17.4685,-22.61452 0,-5.16148 -2.387,-9.92 -8.246,-9.92 m -25.2960004,27.97748 0.2945,-19.34398 c 0.2015,-0.899 1.6895,-3.76655 5.6575004,-3.76655 3.5805,0 3.875,3.36355 3.875,5.45605 0,8.8195 -3.2705,12.493 -9.8270004,17.65448 m 16.6625004,0 0.31,-19.34398 c 0.186,-0.899 1.674,-3.76655 5.6575,-3.76655 3.565,0 3.8595,3.36355 3.8595,5.45605 0,8.8195 -3.2705,12.493 -9.827,17.65448"
     id="path8-9"
     style="font-variation-settings:normal;opacity:1;vector-effect:none;fill:#000000;fill-opacity:1;stroke:#ffffff;stroke-width:6.31559;stroke-linecap:butt;stroke-linejoin:miter;stroke-miterlimit:4;stroke-dasharray:none;stroke-dashoffset:0;stroke-opacity:1;-inkscape-stroke:none;stop-color:#000000;stop-opacity:1" />
  <path
     class="Accidental"
     d="m 31.7243,32.716317 c -4.96,0 -7.8275,2.976 -8.3235,3.56495 L 23.7883,4.5372671 c 0,-0.79043 -0.589,-1.37947 -1.3795,-1.37947 h -1.1935 c -0.7905,0 -1.395,0.58904 -1.395,1.37947 l 0.2945,29.8685299 c -1.2865,-0.992 -2.8675,-1.68948 -5.053,-1.68948 -4.96,0 -7.8430004,3.06895 -8.3390004,3.67348 l 0.403,-31.8525299 c 0,-0.79043 -0.589,-1.37947 -1.395,-1.37947 h -1.178 c -0.806,0 -1.395,0.58904 -1.395,1.37947 l 0.496,59.6285299 c 0,0.79052 0.589,1.37957 1.395,1.37957 0.186,0 0.589,-0.186 0.7905,-0.29453 C 11.5898,62.383367 16.6428,58.213797 20.2233,52.850817 l 0.093,11.31498 c 0,0.79052 0.6045,1.37957 1.395,1.37957 0.2015,0 0.589,-0.186 0.7905,-0.29453 8.5405,-4.26252 17.4685,-12.40002 17.4685,-22.61452 0,-5.16148 -2.387,-9.92 -8.246,-9.92 m -25.2960004,27.97748 0.2945,-19.34398 c 0.2015,-0.899 1.6895,-3.76655 5.6575004,-3.76655 3.5805,0 3.875,3.36355 3.875,5.45605 0,8.8195 -3.2705,12.493 -9.8270004,17.65448 m 16.6625004,0 0.31,-19.34398 c 0.186,-0.899 1.674,-3.76655 5.6575,-3.76655 3.565,0 3.8595,3.36355 3.8595,5.45605 0,8.8195 -3.2705,12.493 -9.827,17.65448"
     id="path54"
     style="stroke-width:0.992" />
</svg>
