<?xml version="1.0" encoding="UTF-8" standalone="no"?>
<svg
   width="33.59549"
   height="33.595589"
   viewBox="0 0 33.595492 33.595591"
   version="1.2"
   id="svg117"
   xmlns="http://www.w3.org/2000/svg"
   xmlns:svg="http://www.w3.org/2000/svg"
   xmlns:rdf="http://www.w3.org/1999/02/22-rdf-syntax-ns#"
   xmlns:cc="http://creativecommons.org/ns#"
   xmlns:dc="http://purl.org/dc/elements/1.1/">
  <defs
     id="defs117" />
  <title
     id="title1">Unbenannte Partitur</title>
  <desc
     id="desc1">Generated by MuseScore Studio 4.3.2</desc>
  <metadata
     id="metadata121">
    <rdf:RDF>
      <cc:Work
         rdf:about="">
        <dc:title>Unbenannte Partitur</dc:title>
      </cc:Work>
    </rdf:RDF>
  </metadata>
  <path
     class="Accidental"
     d="m 11.682831,23.788292 4.96,-4.7585 h 0.31 l 4.8515,4.7585 v 5.25453 c 0,0.79052 0.6044,1.39496 1.395,1.39496 h 5.8589 c 0.7905,0 1.3795,-0.60443 1.3795,-1.39496 v -5.84353 c 0,-0.80599 -0.589,-1.302 -1.3795,-1.302 h -5.27 l -4.96,-4.96 v -0.18599 l 4.96,-4.96 h 5.27 c 0.7905,0 1.3795,-0.6045 1.3795,-1.395 V 4.5372515 c 0,-0.79043 -0.589,-1.37947 -1.3795,-1.37947 h -5.8589 c -0.7906,0 -1.395,0.58904 -1.395,1.37947 v 5.27005 l -4.8515,4.9600005 h -0.31 l -4.96,-4.9600005 v -5.27005 c 0,-0.79043 -0.4961,-1.37947 -1.2865,-1.37947 H 4.5528313 c -0.806,0 -1.395,0.58904 -1.395,1.37947 v 5.8590505 c 0,0.7905 0.589,1.395 1.395,1.395 h 5.2545 l 4.8514997,4.8515 v 0.2945 l -4.8514997,4.96 h -5.2545 c -0.806,0 -1.395,0.496 -1.395,1.302 v 5.84352 c 0,0.79053 0.589,1.39496 1.395,1.39496 h 5.8434997 c 0.7905,0 1.2865,-0.60443 1.2865,-1.39496 v -5.25452"
     id="path9-8"
     style="font-variation-settings:normal;opacity:1;vector-effect:none;fill:#000000;fill-opacity:1;stroke:#ffffff;stroke-width:6.31559;stroke-linecap:butt;stroke-linejoin:miter;stroke-miterlimit:4;stroke-dasharray:none;stroke-dashoffset:0;stroke-opacity:1;-inkscape-stroke:none;stop-color:#000000;stop-opacity:1" />
  <path
     class="Accidental"
     d="m 11.682831,23.788292 4.96,-4.7585 h 0.31 l 4.8515,4.7585 v 5.25453 c 0,0.79052 0.6044,1.39496 1.395,1.39496 h 5.8589 c 0.7905,0 1.3795,-0.60443 1.3795,-1.39496 v -5.84353 c 0,-0.80599 -0.589,-1.302 -1.3795,-1.302 h -5.27 l -4.96,-4.96 v -0.18599 l 4.96,-4.96 h 5.27 c 0.7905,0 1.3795,-0.6045 1.3795,-1.395 V 4.5372515 c 0,-0.79043 -0.589,-1.37947 -1.3795,-1.37947 h -5.8589 c -0.7906,0 -1.395,0.58904 -1.395,1.37947 v 5.27005 l -4.8515,4.9600005 h -0.31 l -4.96,-4.9600005 v -5.27005 c 0,-0.79043 -0.4961,-1.37947 -1.2865,-1.37947 H 4.5528313 c -0.806,0 -1.395,0.58904 -1.395,1.37947 v 5.8590505 c 0,0.7905 0.589,1.395 1.395,1.395 h 5.2545 l 4.8514997,4.8515 v 0.2945 l -4.8514997,4.96 h -5.2545 c -0.806,0 -1.395,0.496 -1.395,1.302 v 5.84352 c 0,0.79053 0.589,1.39496 1.395,1.39496 h 5.8434997 c 0.7905,0 1.2865,-0.60443 1.2865,-1.39496 v -5.25452"
     id="path55"
     style="stroke-width:0.992" />
</svg>
