<?xml version="1.0" encoding="UTF-8" standalone="no"?>
<svg
   width="26.979059"
   height="71.308746"
   viewBox="0 0 26.979061 71.308751"
   version="1.2"
   id="svg117"
   xmlns="http://www.w3.org/2000/svg"
   xmlns:svg="http://www.w3.org/2000/svg"
   xmlns:rdf="http://www.w3.org/1999/02/22-rdf-syntax-ns#"
   xmlns:cc="http://creativecommons.org/ns#"
   xmlns:dc="http://purl.org/dc/elements/1.1/">
  <defs
     id="defs117" />
  <title
     id="title1">Unbenannte Partitur</title>
  <desc
     id="desc1">Generated by MuseScore Studio 4.3.2</desc>
  <metadata
     id="metadata121">
    <rdf:RDF>
      <cc:Work
         rdf:about="">
        <dc:title>Unbenannte Partitur</dc:title>
      </cc:Work>
    </rdf:RDF>
  </metadata>
  <path
     class="KeySig"
     d="m 15.374468,33.950816 c -5.0903,0 -8.0491701,3.19714 -8.5581701,3.82691 l 0.4135,-33.1828497 c 0,-0.82345 -0.6043,-1.43708 -1.4315,-1.43708 h -1.2089 c -0.8272,0 -1.4316,0.61363 -1.4316,1.43708 l 0.5089,62.1188997 c 0,0.82354 0.6044,1.43718 1.4317,1.43718 0.1908,0 0.6044,-0.0969 0.8113,-0.19375 8.7490701,-4.45666 17.9115701,-12.91793 17.9115701,-23.5752 0,-5.36097 -2.4338,-10.43119 -8.4468,-10.43119 m -8.8602701,29.14595 0.3021,-20.15187 c 0.2069,-0.93655 1.73397,-3.92386 5.8062701,-3.92386 3.6745,0 3.9768,3.50403 3.9768,5.68392 0,9.18786 -3.3564,13.01477 -10.0851701,18.39181"
     id="path47"
     style="font-variation-settings:normal;opacity:1;vector-effect:none;fill:#000000;fill-opacity:1;stroke:#ffffff;stroke-width:6.31559;stroke-linecap:butt;stroke-linejoin:miter;stroke-miterlimit:4;stroke-dasharray:none;stroke-dashoffset:0;stroke-opacity:1;-inkscape-stroke:none;stop-color:#000000;stop-opacity:1" />
  <path
     class="KeySig"
     d="m 15.374468,33.950816 c -5.0903,0 -8.0491701,3.19714 -8.5581701,3.82691 l 0.4135,-33.1828497 c 0,-0.82345 -0.6043,-1.43708 -1.4315,-1.43708 h -1.2089 c -0.8272,0 -1.4316,0.61363 -1.4316,1.43708 l 0.5089,62.1188997 c 0,0.82354 0.6044,1.43718 1.4317,1.43718 0.1908,0 0.6044,-0.0969 0.8113,-0.19375 8.7490701,-4.45666 17.9115701,-12.91793 17.9115701,-23.5752 0,-5.36097 -2.4338,-10.43119 -8.4468,-10.43119 m -8.8602701,29.14595 0.3021,-20.15187 c 0.2069,-0.93655 1.73397,-3.92386 5.8062701,-3.92386 3.6745,0 3.9768,3.50403 3.9768,5.68392 0,9.18786 -3.3564,13.01477 -10.0851701,18.39181"
     id="path49"
     style="stroke-width:1.02572" />
</svg>
