<?xml version="1.0" encoding="UTF-8" standalone="no"?>
<svg
   width="31.162889"
   height="75.248695"
   viewBox="0 0 31.162892 75.248701"
   version="1.2"
   id="svg117"
   xmlns="http://www.w3.org/2000/svg"
   xmlns:svg="http://www.w3.org/2000/svg"
   xmlns:rdf="http://www.w3.org/1999/02/22-rdf-syntax-ns#"
   xmlns:cc="http://creativecommons.org/ns#"
   xmlns:dc="http://purl.org/dc/elements/1.1/">
  <defs
     id="defs117" />
  <title
     id="title1">Unbenannte Partitur</title>
  <desc
     id="desc1">Generated by MuseScore Studio 4.3.2</desc>
  <metadata
     id="metadata121">
    <rdf:RDF>
      <cc:Work
         rdf:about="">
        <dc:title>Unbenannte Partitur</dc:title>
      </cc:Work>
    </rdf:RDF>
  </metadata>
  <path
     class="KeySig"
     d="m 26.875813,26.829843 c 0.6204,-0.0969 1.12929,-0.82353 1.12929,-1.45331 v -6.08752 c 0,-1.03343 -0.7157,-1.45321 -1.63829,-1.45321 l -3.3565,0.72662 V 3.1578029 h -2.8476 V 19.175943 l -9.0671,1.87311 V 6.4680829 H 8.2483126 V 21.662693 l -3.977,0.82355 c -0.6044,0.11296 -1.1135,0.82344 -1.1135,1.45322 v 5.9907 c 0,1.13032 0.8113,1.45326 1.734,1.45326 l 3.3565,-0.72663 v 17.0516 l -3.977,0.82352 c -0.6044,0.0969 -1.1135,0.82355 -1.1135,1.45331 v 5.99059 c 0,1.13036 0.8113,1.43719 1.734,1.43719 l 3.3565,-0.71049 v 15.3884 h 2.8473004 v -16.01817 l 9.0671,-1.85697 v 14.58108 h 2.8476 v -15.19463 l 3.8655,-0.72671 c 0.6204,-0.11295 1.1293,-0.82345 1.1293,-1.45323 v -6.08754 c 0,-1.03344 -0.7157,-1.45328 -1.6383,-1.45328 l -3.3565,0.72664 v -17.05162 l 3.8655,-0.72664 m -15.7802,3.19719 9.0671,-1.85696 v 17.05163 l -9.0671,1.96997 v -17.16464"
     id="path37"
     style="stroke:#ffffff;stroke-width:6.31559;stroke-dasharray:none;stroke-opacity:1" />
  <path
     class="KeySig"
     d="m 26.875813,26.829843 c 0.6204,-0.0969 1.12929,-0.82353 1.12929,-1.45331 v -6.08752 c 0,-1.03343 -0.7157,-1.45321 -1.63829,-1.45321 l -3.3565,0.72662 V 3.1578029 h -2.8476 V 19.175943 l -9.0671,1.87311 V 6.4680829 H 8.2483126 V 21.662693 l -3.977,0.82355 c -0.6044,0.11296 -1.1135,0.82344 -1.1135,1.45322 v 5.9907 c 0,1.13032 0.8113,1.45326 1.734,1.45326 l 3.3565,-0.72663 v 17.0516 l -3.977,0.82352 c -0.6044,0.0969 -1.1135,0.82355 -1.1135,1.45331 v 5.99059 c 0,1.13036 0.8113,1.43719 1.734,1.43719 l 3.3565,-0.71049 v 15.3884 h 2.8473004 v -16.01817 l 9.0671,-1.85697 v 14.58108 h 2.8476 v -15.19463 l 3.8655,-0.72671 c 0.6204,-0.11295 1.1293,-0.82345 1.1293,-1.45323 v -6.08754 c 0,-1.03344 -0.7157,-1.45328 -1.6383,-1.45328 l -3.3565,0.72664 v -17.05162 l 3.8655,-0.72664 m -15.7802,3.19719 9.0671,-1.85696 v 17.05163 l -9.0671,1.96997 v -17.16464"
     id="path48"
     style="stroke-width:1.13386;stroke-dasharray:none" />
</svg>
