<?xml version="1.0" encoding="UTF-8" standalone="no"?>
<svg
   width="118.57"
   height="214.33521"
   viewBox="0 0 118.57001 214.33522"
   version="1.2"
   id="svg117"
   xmlns="http://www.w3.org/2000/svg"
   xmlns:svg="http://www.w3.org/2000/svg"
   xmlns:rdf="http://www.w3.org/1999/02/22-rdf-syntax-ns#"
   xmlns:cc="http://creativecommons.org/ns#"
   xmlns:dc="http://purl.org/dc/elements/1.1/">
  <defs
     id="defs117" />
  <title
     id="title1">Unbenannte Partitur</title>
  <desc
     id="desc1">Generated by MuseScore Studio 4.3.2</desc>
  <metadata
     id="metadata121">
    <rdf:RDF>
      <cc:Work
         rdf:about="">
        <dc:title>Unbenannte Partitur</dc:title>
      </cc:Work>
    </rdf:RDF>
  </metadata>
  <g
     id="g2"
     transform="translate(1.1262894,-448.46496)">
    <path
       class="Clef"
       d="m 50.424859,496.64632 c -7.5485,0 -13.5936,4.3555 -13.702,4.3555 -5.8435,4.2625 -9.60999,10.819 -9.60999,18.0575 0,7.2385 4.15399,12.6015 11.50099,12.6015 6.355,0 11.315,-4.2625 11.315,-10.819 0,-5.6575 -4.96,-10.3075 -10.5245,-10.3075 -1.1935,0 -2.2785,0.186 -3.1775,0.496 -0.992,0.3875 -2.666,1.3795 -3.472,2.077 0.6975,-4.371 3.6735,-8.7265 7.5484,-10.819 2.48,-1.3795 5.6576,-1.984 9.1296,-1.984 10.1215,0 15.0815,8.1375 15.0815,24.8 0,12.8961 -8.246,31.4495 -17.9645,40.1915 -10.323,9.424 -20.04149,13.888 -20.13449,13.888 0,0 -1.1935,0.682 -1.1935,1.8755 0,0.2015 0.093,0.2945 0.093,0.496 0.31,0.992 1.1935,1.1935 1.891,1.1935 l 0.2945,-0.093 c 0.2015,0 11.51649,-4.6654 20.53749,-11.718 13.888,-10.013 29.5585,-27.6674 29.5585,-45.9265 0,-17.267 -9.3155,-28.365 -27.1715,-28.365 m 31.1395,12.586 c 0,2.79 2.1855,4.96 4.774,4.96 2.5729,0 4.7585,-2.17 4.7585,-4.96 0,-2.7745 -2.1856,-5.053 -4.7585,-5.053 -2.5885,0 -4.774,2.2785 -4.774,5.053 m 0,24.5055 c 0,2.7746 2.1855,5.0686 4.774,5.0686 2.5729,0 4.7585,-2.294 4.7585,-5.0686 0,-2.7745 -2.1856,-5.053 -4.7585,-5.053 -2.5885,0 -4.774,2.2785 -4.774,5.053"
       id="path74"
       style="stroke-width:0.992" />
    <path
       style="stroke:#000000;stroke-width:3.29154;stroke-dasharray:none;paint-order:markers stroke fill"
       d="M -1.126274,495.61967 H 117.44499"
       id="path19" />
    <path
       style="stroke:#000000;stroke-width:3.29154;stroke-dasharray:none;paint-order:markers stroke fill"
       d="M -1.126274,521.49485 H 117.44499"
       id="path20" />
    <path
       style="stroke:#000000;stroke-width:3.29154;stroke-dasharray:none;paint-order:markers stroke fill"
       d="M -1.126274,547.36995 H 117.44499"
       id="path21" />
    <path
       style="stroke:#000000;stroke-width:3.29154;stroke-dasharray:none;paint-order:markers stroke fill"
       d="M -1.126274,573.24511 H 117.44499"
       id="path22" />
    <path
       style="stroke:#000000;stroke-width:3.29154;stroke-dasharray:none;paint-order:markers stroke fill"
       d="M -1.126274,599.12021 H 117.44499"
       id="path23" />
    <path
       style="stroke:#000000;stroke-width:3.29154;stroke-dasharray:none;paint-order:markers stroke fill"
       d="M -1.126274,521.49485 H 117.44499"
       id="path24" />
    <path
       style="stroke:#000000;stroke-width:3.29154;stroke-dasharray:none;paint-order:markers stroke fill"
       d="M -1.126274,547.36995 H 117.44499"
       id="path25" />
    <path
       style="stroke:#000000;stroke-width:3.29154;stroke-dasharray:none;paint-order:markers stroke fill"
       d="M -1.126274,573.24511 H 117.44499"
       id="path26" />
    <path
       style="stroke:#000000;stroke-width:3.29154;stroke-dasharray:none;paint-order:markers stroke fill"
       d="M -1.126274,599.12021 H 117.44499"
       id="path27" />
  </g>
</svg>
