<?xml version="1.0" encoding="UTF-8" standalone="no"?>
<svg
   width="113.7916"
   height="214.33521"
   viewBox="0 0 113.79161 214.33522"
   version="1.2"
   id="svg117"
   sodipodi:docname="clefs-and-keys.svg"
   inkscape:version="1.3.2 (091e20e, 2023-11-25, custom)"
   xmlns:inkscape="http://www.inkscape.org/namespaces/inkscape"
   xmlns:sodipodi="http://sodipodi.sourceforge.net/DTD/sodipodi-0.dtd"
   xmlns="http://www.w3.org/2000/svg"
   xmlns:svg="http://www.w3.org/2000/svg"
   xmlns:rdf="http://www.w3.org/1999/02/22-rdf-syntax-ns#"
   xmlns:cc="http://creativecommons.org/ns#"
   xmlns:dc="http://purl.org/dc/elements/1.1/">
  <defs
     id="defs117" />
  <sodipodi:namedview
     id="namedview117"
     pagecolor="#ffffff"
     bordercolor="#000000"
     borderopacity="0.25"
     inkscape:showpageshadow="2"
     inkscape:pageopacity="0.0"
     inkscape:pagecheckerboard="0"
     inkscape:deskcolor="#d1d1d1"
     inkscape:zoom="1.112956"
     inkscape:cx="73.677667"
     inkscape:cy="-270.9002"
     inkscape:window-width="2560"
     inkscape:window-height="1009"
     inkscape:window-x="-8"
     inkscape:window-y="-8"
     inkscape:window-maximized="1"
     inkscape:current-layer="g562"
     showguides="true"
     showgrid="false">
    <inkscape:page
       x="2.2450811e-06"
       y="0"
       width="113.79161"
       height="214.33522"
       id="page572"
       margin="0"
       bleed="0"
       inkscape:export-filename="clef-unknown.svg"
       inkscape:export-xdpi="96"
       inkscape:export-ydpi="96" />
  </sodipodi:namedview>
  <title
     id="title1">Unbenannte Partitur</title>
  <desc
     id="desc1">Generated by MuseScore Studio 4.3.2</desc>
  <metadata
     id="metadata121">
    <rdf:RDF>
      <cc:Work
         rdf:about="">
        <dc:title>Unbenannte Partitur</dc:title>
      </cc:Work>
    </rdf:RDF>
  </metadata>
  <g
     id="g562"
     transform="translate(7.7724448e-6,47.143213)">
    <path
       d="m 53.794398,-210.58459 q 0,-2.53334 0.466667,-4.33334 0.533333,-1.86666 1.733334,-3.53333 1.266667,-1.66667 3.400002,-3.46667 2.600001,-2.2 4.000002,-3.66667 1.466667,-1.46667 2.066668,-2.86667 0.6,-1.4 0.6,-3.4 0,-3.2 -2.066668,-4.93333 -2.066667,-1.73334 -6.000003,-1.73334 -3.266668,0 -5.800003,0.86667 -2.533335,0.8 -4.866669,1.93333 l -2.066668,-4.66667 q 2.666668,-1.4 5.86667,-2.33333 3.266668,-0.93333 7.26667,-0.93333 6.333337,0 9.800006,3.13333 3.466668,3.13334 3.466668,8.53334 0,3 -1,5.13333 -0.933334,2.06667 -2.733335,3.86667 -1.733334,1.73334 -4.133336,3.73334 -2.200001,1.86667 -3.400002,3.26667 -1.133334,1.4 -1.533334,2.8 -0.4,1.33333 -0.4,3.26667 v 1.13333 h -4.666669 z m -1.533334,11.60001 q 0,-2.46667 1.133334,-3.46667 1.2,-1 3.000001,-1 1.666668,0 2.866668,1 1.200001,1 1.200001,3.46667 0,2.4 -1.200001,3.46666 -1.2,1.06667 -2.866668,1.06667 -1.800001,0 -3.000001,-1.06667 -1.133334,-1.06666 -1.133334,-3.46666 z"
       id="text573"
       style="font-size:66.6667px;font-family:Sans;-inkscape-font-specification:'Sans, Normal';text-align:center;white-space:pre;stroke-width:6.31559;paint-order:markers stroke fill"
       transform="matrix(3.0976827,0,0,3.0976827,-124.19804,731.92882)"
       aria-label="?" />
    <path
       style="stroke:#000000;stroke-width:3.22452;stroke-dasharray:none;paint-order:markers stroke fill"
       d="M 0,0.01495976 H 113.7916"
       id="path554" />
    <path
       style="stroke:#000000;stroke-width:3.22452;stroke-dasharray:none;paint-order:markers stroke fill"
       d="M 0,25.89013 H 113.7916"
       id="path555" />
    <path
       style="stroke:#000000;stroke-width:3.22452;stroke-dasharray:none;paint-order:markers stroke fill"
       d="M 0,51.76523 H 113.7916"
       id="path556" />
    <path
       style="stroke:#000000;stroke-width:3.22452;stroke-dasharray:none;paint-order:markers stroke fill"
       d="M 0,77.64039 H 113.7916"
       id="path557" />
    <path
       style="stroke:#000000;stroke-width:3.22452;stroke-dasharray:none;paint-order:markers stroke fill"
       d="M 0,103.5155 H 113.7916"
       id="path558" />
    <path
       style="stroke:#000000;stroke-width:3.22452;stroke-dasharray:none;paint-order:markers stroke fill"
       d="M 0,25.89013 H 113.7916"
       id="path559" />
    <path
       style="stroke:#000000;stroke-width:3.22452;stroke-dasharray:none;paint-order:markers stroke fill"
       d="M 0,51.76523 H 113.7916"
       id="path560" />
    <path
       style="stroke:#000000;stroke-width:3.22452;stroke-dasharray:none;paint-order:markers stroke fill"
       d="M 0,77.64039 H 113.7916"
       id="path561" />
    <path
       style="stroke:#000000;stroke-width:3.22452;stroke-dasharray:none;paint-order:markers stroke fill"
       d="M 0,103.5155 H 113.7916"
       id="path562" />
  </g>
  <rect
     style="fill:none;stroke:none;stroke-width:6.31559;-inkscape-stroke:none;paint-order:markers stroke fill"
     id="rect562"
     width="113.7916"
     height="214.33521"
     x="-1.1679849e-06"
     y="6.1779632e-05" />
  <g
     id="g572"
     transform="translate(7.7724448e-6,47.143213)">
    <path
       style="stroke:#000000;stroke-width:3.22452;stroke-dasharray:none;paint-order:markers stroke fill"
       d="M 0,0.01495976 H 113.7916"
       id="path564" />
    <path
       style="stroke:#000000;stroke-width:3.22452;stroke-dasharray:none;paint-order:markers stroke fill"
       d="M 0,25.89013 H 113.7916"
       id="path565" />
    <path
       style="stroke:#000000;stroke-width:3.22452;stroke-dasharray:none;paint-order:markers stroke fill"
       d="M 0,51.76523 H 113.7916"
       id="path566" />
    <path
       style="stroke:#000000;stroke-width:3.22452;stroke-dasharray:none;paint-order:markers stroke fill"
       d="M 0,77.64039 H 113.7916"
       id="path567" />
    <path
       style="stroke:#000000;stroke-width:3.22452;stroke-dasharray:none;paint-order:markers stroke fill"
       d="M 0,103.5155 H 113.7916"
       id="path568" />
    <path
       style="stroke:#000000;stroke-width:3.22452;stroke-dasharray:none;paint-order:markers stroke fill"
       d="M 0,25.89013 H 113.7916"
       id="path569" />
    <path
       style="stroke:#000000;stroke-width:3.22452;stroke-dasharray:none;paint-order:markers stroke fill"
       d="M 0,51.76523 H 113.7916"
       id="path570" />
    <path
       style="stroke:#000000;stroke-width:3.22452;stroke-dasharray:none;paint-order:markers stroke fill"
       d="M 0,77.64039 H 113.7916"
       id="path571" />
    <path
       style="stroke:#000000;stroke-width:3.22452;stroke-dasharray:none;paint-order:markers stroke fill"
       d="M 0,103.5155 H 113.7916"
       id="path572" />
  </g>
  <rect
     style="fill:none;stroke:none;stroke-width:6.31559;-inkscape-stroke:none;paint-order:markers stroke fill"
     id="rect572"
     width="113.7916"
     height="214.33521"
     x="-1.1679849e-06"
     y="6.1779632e-05" />
</svg>
