<?xml version="1.0" encoding="UTF-8" standalone="no"?>
<svg
   width="113.7916"
   height="214.33521"
   viewBox="0 0 113.79161 214.33522"
   version="1.2"
   id="svg117"
   xmlns="http://www.w3.org/2000/svg"
   xmlns:svg="http://www.w3.org/2000/svg"
   xmlns:rdf="http://www.w3.org/1999/02/22-rdf-syntax-ns#"
   xmlns:cc="http://creativecommons.org/ns#"
   xmlns:dc="http://purl.org/dc/elements/1.1/">
  <defs
     id="defs117" />
  <title
     id="title1">Unbenannte Partitur</title>
  <desc
     id="desc1">Generated by MuseScore Studio 4.3.2</desc>
  <metadata
     id="metadata121">
    <rdf:RDF>
      <cc:Work
         rdf:about="">
        <dc:title>Unbenannte Partitur</dc:title>
      </cc:Work>
    </rdf:RDF>
  </metadata>
  <g
     id="g1"
     transform="translate(3.5526308e-6,47.143169)">
    <path
       class="Clef"
       d="m 90.386389,78.271195 c 0,-12.307 -6.54095,-21.9325 -19.54548,-21.9325 -2.27852,0 -3.968,0.2015 -7.82747,2.573 -0.20148,-0.3875 -2.18548,-4.3555 -5.456,-6.634 3.27052,-2.294 5.25452,-6.262 5.456,-6.6495 3.76652,2.2785 5.05295,2.573 9.31547,2.573 12.10548,0 18.05748,-11.2065 18.05748,-21.917 0,-13.888 -10.21443,-21.7309992 -22.22695,-21.7309992 -7.44,0 -18.05748,3.0690002 -18.05748,12.1983992 0,4.8671 3.37895,8.0446 8.246,8.0446 4.35548,0 7.44,-3.1775 7.44,-7.5486 0,-5.456 -3.58052,-7.2384 -8.33905,-7.2384 2.27853,-1.581 5.36305,-2.479999 8.432,-2.479999 10.416,0 12.10548,8.338999 12.10548,17.266999 0,7.6414 -0.20148,18.7395 -8.928,18.7395 -8.72643,0 -10.50895,-9.4241 -10.71043,-10.4161 0,-0.093 0,-1.3794 -1.39505,-1.3794 -1.37947,0 -1.488,1.2865 -1.488,1.3794 -0.88347,5.456 -3.56495,14.9886 -9.12947,17.2671 V 7.126196 c 0,-0.682 -0.496,-1.2866002 -1.19348,-1.2866002 -0.682,0 -1.28652,0.6046002 -1.28652,1.2866002 v 90.287501 c 0,0.69749 0.60452,1.286503 1.28652,1.286503 0.69748,0 1.19348,-0.589013 1.19348,-1.286503 V 54.153195 c 5.85895,2.387 8.04452,11.811 9.12947,17.36 0,0.1085 0.10853,1.2865 1.488,1.2865 1.39505,0 1.39505,-1.178 1.39505,-1.2865 0.20148,-1.085 1.984,-10.509 10.71043,-10.509 8.72652,0 8.928,11.1135 8.928,18.755 0,8.928 -1.68948,17.251502 -12.10548,17.251502 -3.06895,0 -6.15347,-0.8835 -8.432,-2.480002 0.10853,0 0.496,0.1085 1.10053,0.1085 4.35547,0 7.23852,-3.0845 7.23852,-7.347 0,-4.371 -3.08452,-7.533 -7.44,-7.533 -4.86705,0 -8.246,3.162 -8.246,8.029 0,9.222502 10.61748,12.198505 18.05748,12.198505 12.01252,0 22.22695,-7.827505 22.22695,-21.715505 M 29.471409,5.8395958 c -0.69751,0 -1.28651,0.6046002 -1.28651,1.2866002 v 90.287501 c 0,0.69749 0.589,1.286503 1.28651,1.286503 h 7.1455 c 0.69751,0 1.28651,-0.589013 1.28651,-1.286503 V 7.126196 c 0,-0.682 -0.589,-1.2866002 -1.28651,-1.2866002 h -7.1455"
       id="path75"
       style="stroke-width:0.992" />
    <path
       style="stroke:#000000;stroke-width:3.22452;stroke-dasharray:none;paint-order:markers stroke fill"
       d="M 0,0.01495976 H 113.7916"
       id="path28" />
    <path
       style="stroke:#000000;stroke-width:3.22452;stroke-dasharray:none;paint-order:markers stroke fill"
       d="M 0,25.89013 H 113.7916"
       id="path29" />
    <path
       style="stroke:#000000;stroke-width:3.22452;stroke-dasharray:none;paint-order:markers stroke fill"
       d="M 0,51.76523 H 113.7916"
       id="path30" />
    <path
       style="stroke:#000000;stroke-width:3.22452;stroke-dasharray:none;paint-order:markers stroke fill"
       d="M 0,77.64039 H 113.7916"
       id="path31" />
    <path
       style="stroke:#000000;stroke-width:3.22452;stroke-dasharray:none;paint-order:markers stroke fill"
       d="M 0,103.5155 H 113.7916"
       id="path32" />
    <path
       style="stroke:#000000;stroke-width:3.22452;stroke-dasharray:none;paint-order:markers stroke fill"
       d="M 0,25.89013 H 113.7916"
       id="path33" />
    <path
       style="stroke:#000000;stroke-width:3.22452;stroke-dasharray:none;paint-order:markers stroke fill"
       d="M 0,51.76523 H 113.7916"
       id="path34" />
    <path
       style="stroke:#000000;stroke-width:3.22452;stroke-dasharray:none;paint-order:markers stroke fill"
       d="M 0,77.64039 H 113.7916"
       id="path35" />
    <path
       style="stroke:#000000;stroke-width:3.22452;stroke-dasharray:none;paint-order:markers stroke fill"
       d="M 0,103.5155 H 113.7916"
       id="path36" />
  </g>
</svg>
