<?xml version="1.0" encoding="UTF-8" standalone="no"?>
<svg
   width="118.57128"
   height="214.33521"
   viewBox="0 0 118.57129 214.33522"
   version="1.2"
   id="svg117"
   xmlns="http://www.w3.org/2000/svg"
   xmlns:svg="http://www.w3.org/2000/svg"
   xmlns:rdf="http://www.w3.org/1999/02/22-rdf-syntax-ns#"
   xmlns:cc="http://creativecommons.org/ns#"
   xmlns:dc="http://purl.org/dc/elements/1.1/">
  <defs
     id="defs117" />
  <title
     id="title1">Unbenannte Partitur</title>
  <desc
     id="desc1">Generated by MuseScore Studio 4.3.2</desc>
  <metadata
     id="metadata121">
    <rdf:RDF>
      <cc:Work
         rdf:about="">
        <dc:title>Unbenannte Partitur</dc:title>
      </cc:Work>
    </rdf:RDF>
  </metadata>
  <g
     id="g207"
     transform="translate(-517.31813,261.7454)">
    <g
       id="g3"
       transform="translate(140.0144,-501.96344)">
      <path
         class="Clef"
         d="m 468.33339,364.68127 c 0,-14.88001 -10.6175,-25.00151 -25.0945,-25.00151 -0.992,-5.952 -1.891,-11.904 -2.7744,-17.36 10.416,-11.0205 17.7474,-23.5134 17.7474,-39.184 0,-9.1294 -2.7745,-16.368 -4.464,-19.9481 -2.3714,-5.0532 -5.2545,-8.6344 -6.944,-8.6344 -0.682,0 -3.8594,1.3025 -7.037,5.1624 -6.448,7.5481 -8.2304,20.1341 -8.2304,28.4731 0,5.363 0.496,10.2145 2.1854,21.4365 -0.1085,0 -5.27,5.2545 -7.347,7.0371 -9.03639,8.3389 -21.52949,20.4289 -21.52949,40.17589 0,18.64672 16.16649,33.23222 34.62709,33.23222 2.8674,0 5.5489,-0.2946 7.936,-0.6975 1.7824,9.5324 2.976,16.4764 2.976,21.7309 0,10.3231 -5.3631,15.7791 -15.2831,15.7791 -2.48,0 -4.5569,-0.496 -4.6655,-0.6045 -0.186,0 -0.3874,-0.093 -0.3874,-0.186 0,-0.2015 0.2014,-0.31 0.496,-0.4031 4.6654,-0.6975 9.3154,-4.6655 9.3154,-11.0049 0,-5.3631 -4.061,-11.0206 -11.501,-11.0206 -6.851,0 -11.31499,5.6575 -11.31499,12.1986 0,6.5565 4.95999,15.19 18.35199,15.19 12.803,0 19.0495,-7.254 19.0495,-19.9486 0,-3.8594 -0.5889,-8.3234 -1.5809,-13.9809 -0.2946,-1.984 -0.7906,-5.0685 -1.488,-8.8351 9.7184,-3.2705 16.9569,-13.2989 16.9569,-23.6066 m -30.5505,-81.25091 c 0.992,-3.968 5.456,-14.384 10.6176,-14.384 1.488,0 3.968,4.7584 3.968,11.7024 0,10.2145 -7.7346,17.9645 -14.5856,24.8 -0.589,-3.968 -1.085,-7.936 -1.085,-11.997 0,-3.7665 0.3875,-7.0525 1.085,-10.1214 m 2.976,102.57901 c -14.1824,0 -26.28799,-9.92 -26.28799,-24.9086 0,-12.09001 8.63359,-22.90901 17.26699,-30.55041 1.674,-1.3951 3.2706,-2.8831 4.7586,-4.2626 0.8834,5.3475 1.6894,9.92 2.2784,14.0895 -9.0364,2.5731 -15.1744,12.1985 -15.1744,21.42101 0,7.0526 5.456,16.5696 13.392,16.5696 0.7904,0 1.6894,-0.4029 1.6894,-1.3949 0,-0.7905 -0.899,-1.3796 -2.1854,-2.1701 -3.8751,-2.294 -6.0606,-4.96 -6.0606,-9.7341 0,-6.04505 4.5726,-10.91201 10.323,-12.29151 l 5.7505,32.53461 c -1.984,0.496 -3.7665,0.6975 -5.7505,0.6975 m 9.92,-1.8909 c -2.077,-11.7956 -4.7584,-27.57472 -5.456,-31.94571 10.013,0 14.291,6.94397 15.1745,11.71801 0.1085,0.7905 0.2945,1.8756 0.2945,3.0691 0,7.1455 -2.976,14.384 -10.013,17.1586 m -3.875,51.9869 c 0,-3.6735 -3.3634,-5.2544 -6.634,-5.2544 -4.1694,0 -8.246,2.5729 -8.246,7.0369 0,1.8911 0.6975,3.286 2.1855,4.6655 -2.5729,0.992 -5.2545,2.976 -5.2545,6.0605 0,3.2706 2.976,5.456 7.347,5.456 5.3475,0 9.114,-2.976 9.114,-7.254 0,-2.2785 -0.992,-4.154 -2.7745,-5.456 2.8831,-1.2865 4.2625,-2.8674 4.2625,-5.2545 m -6.138,3.968 c -1.488,-0.7904 -1.891,-0.992 -2.1854,-1.1935 l -0.1086,-0.093 c -1.581,-0.8991 -2.077,-1.5965 -2.077,-2.7745 0,-1.798 1.395,-3.0846 3.379,-3.0846 1.984,0 3.069,1.1935 3.069,3.2706 0,1.5965 -0.589,2.6814 -2.077,3.8749 m -3.782,11.904 c -2.17,0 -3.658,-1.3795 -3.658,-3.472 0,-1.8755 0.8835,-3.5649 2.573,-4.5569 0.403,0.2014 0.496,0.2945 0.7905,0.3874 1.1935,0.6046 1.1935,0.6046 1.3951,0.806 1.984,1.0851 2.6814,2.0771 2.6814,3.472 0,1.8755 -1.5965,3.3635 -3.782,3.3635"
         id="path73"
         style="stroke-width:0.992" />
      <path
         style="stroke:#000000;stroke-width:3.29154;stroke-dasharray:none;paint-order:markers stroke fill"
         d="M 377.30375,287.35902 H 495.87503"
         id="path1" />
      <path
         style="stroke:#000000;stroke-width:3.29154;stroke-dasharray:none;paint-order:markers stroke fill"
         d="M 377.30375,313.23419 H 495.87503"
         id="path2" />
      <path
         style="stroke:#000000;stroke-width:3.29154;stroke-dasharray:none;paint-order:markers stroke fill"
         d="M 377.30375,339.1093 H 495.87503"
         id="path3" />
      <path
         style="stroke:#000000;stroke-width:3.29154;stroke-dasharray:none;paint-order:markers stroke fill"
         d="M 377.30375,364.98447 H 495.87503"
         id="path4" />
      <path
         style="stroke:#000000;stroke-width:3.29154;stroke-dasharray:none;paint-order:markers stroke fill"
         d="M 377.30375,390.85967 H 495.87503"
         id="path5" />
      <path
         style="stroke:#000000;stroke-width:3.29154;stroke-dasharray:none;paint-order:markers stroke fill"
         d="M 377.30375,313.23419 H 495.87503"
         id="path6" />
      <path
         style="stroke:#000000;stroke-width:3.29154;stroke-dasharray:none;paint-order:markers stroke fill"
         d="M 377.30375,339.1093 H 495.87503"
         id="path7" />
      <path
         style="stroke:#000000;stroke-width:3.29154;stroke-dasharray:none;paint-order:markers stroke fill"
         d="M 377.30375,364.98447 H 495.87503"
         id="path8" />
      <path
         style="stroke:#000000;stroke-width:3.29154;stroke-dasharray:none;paint-order:markers stroke fill"
         d="M 377.30375,390.85967 H 495.87503"
         id="path12" />
    </g>
  </g>
</svg>
