<?xml version="1.0" encoding="UTF-8" standalone="no"?>
<svg
   width="118.57"
   height="214.34"
   viewBox="0 0 118.57001 214.34001"
   version="1.2"
   id="svg117"
   xmlns="http://www.w3.org/2000/svg"
   xmlns:svg="http://www.w3.org/2000/svg"
   xmlns:rdf="http://www.w3.org/1999/02/22-rdf-syntax-ns#"
   xmlns:cc="http://creativecommons.org/ns#"
   xmlns:dc="http://purl.org/dc/elements/1.1/">
  <defs
     id="defs117" />
  <title
     id="title1">Unbenannte Partitur</title>
  <desc
     id="desc1">Generated by MuseScore Studio 4.3.2</desc>
  <g
     id="g208"
     transform="translate(-707.56545,261.75019)">
    <path
       class="Clef"
       d="m 747.30569,-86.215118 c 0,6.556518 4.96,15.189997 18.352,15.189997 4.6654,0 8.742,-1.19348 12.3069,-3.379049 5.3631,-3.76643 6.7425,-10.32295 6.7425,-16.569478 0,-3.85947 -0.5889,-8.32347 -1.5809,-13.980952 -0.2945,-1.984 -0.8991,-4.96 -1.488,-8.83505 9.7184,-3.17747 16.9569,-13.29895 16.9569,-23.5135 0,-14.97302 -10.6174,-25.0945 -25.0945,-25.0945 -0.992,-5.952 -1.984,-11.81105 -2.7744,-17.36 10.416,-11.02052 17.6544,-23.42052 17.6544,-39.184 0,-9.03652 -2.7744,-16.368 -4.3709,-19.94812 -2.3715,-5.05325 -5.2546,-8.52525 -7.0371,-8.52525 -0.6975,0 -3.7664,1.19337 -7.0369,5.05325 -6.3551,7.54812 -8.1375,20.24265 -8.1375,28.56612 0,5.36295 0.496,10.23 2.1855,21.34348 -0.1086,0.0931 -5.27,5.34747 -7.3471,7.03705 -9.0364,8.33895 -21.5295,20.42895 -21.5295,40.28447 0,18.53805 16.1666,33.12353 34.6271,33.12353 2.8675,0 5.5489,-0.29453 7.8275,-0.69748 1.8909,9.53243 3.0845,16.476432 3.0845,21.730952 0,10.323048 -5.3631,15.779048 -15.376,15.779048 -2.3871,0 -4.464,-0.496 -4.6656,-0.496 -0.093,-0.10852 -0.2944,-0.20157 -0.2944,-0.29452 0,-0.20148 0.2015,-0.31 0.496,-0.31 4.6655,-0.79053 9.3155,-4.75853 9.3155,-11.097998 0,-5.36305 -4.0611,-11.02053 -11.5011,-11.02053 -6.944,0 -11.3149,5.65748 -11.3149,12.19853 m 20.7389,-132.432002 c 0.8991,-3.968 5.456,-14.384 10.6176,-14.384 1.488,0 3.8595,4.75842 3.8595,11.70242 0,10.32305 -7.626,18.05758 -14.4771,24.8 -0.5889,-3.968 -1.0849,-7.82747 -1.0849,-11.99695 0,-3.67347 0.2945,-7.05252 1.0849,-10.12147 m 8.7265,101.97452 c -1.984,0.40295 -3.8594,0.60443 -5.7505,0.60443 -14.1824,0 -26.288,-9.92 -26.288,-24.90848 0,-12.09005 8.5251,-22.909 17.2671,-30.45752 1.674,-1.488 3.2705,-2.86748 4.7585,-4.35548 0.8835,5.34748 1.5809,10.01295 2.2784,14.08948 -9.0364,2.68147 -15.1744,12.19852 -15.1744,21.52952 0,6.944 5.456,16.461 13.392,16.461 0.7904,0 1.6895,-0.40295 1.6895,-1.28652 0,-0.89895 -0.992,-1.39495 -2.1855,-2.18548 -3.8751,-2.387 -6.0605,-4.96 -6.0605,-9.827 0,-6.045 4.5725,-10.91205 10.3229,-12.29152 l 5.7505,32.62757 m 14.0895,-18.35205 c 0,7.05251 -2.8829,14.291 -9.92,17.17405 -2.0769,-11.90405 -4.7584,-27.68305 -5.456,-32.0541 8.928,0 15.376,6.06055 15.376,14.88005"
       id="path71"
       style="stroke-width:0.992" />
    <path
       style="stroke:#000000;stroke-width:3.29154;stroke-dasharray:none;paint-order:markers stroke fill"
       d="M 707.58456,-214.16919 H 826.15584"
       id="path9" />
    <path
       style="stroke:#000000;stroke-width:3.29154;stroke-dasharray:none;paint-order:markers stroke fill"
       d="M 707.58456,-188.29402 H 826.15584"
       id="path10" />
    <path
       style="stroke:#000000;stroke-width:3.29154;stroke-dasharray:none;paint-order:markers stroke fill"
       d="M 707.58456,-162.41892 H 826.15584"
       id="path11" />
    <path
       style="stroke:#000000;stroke-width:3.29154;stroke-dasharray:none;paint-order:markers stroke fill"
       d="M 707.58456,-136.54376 H 826.15584"
       id="path13" />
    <path
       style="stroke:#000000;stroke-width:3.29154;stroke-dasharray:none;paint-order:markers stroke fill"
       d="M 707.58456,-110.66866 H 826.15584"
       id="path14" />
    <path
       style="stroke:#000000;stroke-width:3.29154;stroke-dasharray:none;paint-order:markers stroke fill"
       d="M 707.58456,-188.29402 H 826.15584"
       id="path15" />
    <path
       style="stroke:#000000;stroke-width:3.29154;stroke-dasharray:none;paint-order:markers stroke fill"
       d="M 707.58456,-162.41892 H 826.15584"
       id="path16" />
    <path
       style="stroke:#000000;stroke-width:3.29154;stroke-dasharray:none;paint-order:markers stroke fill"
       d="M 707.58456,-136.54376 H 826.15584"
       id="path17" />
    <path
       style="stroke:#000000;stroke-width:3.29154;stroke-dasharray:none;paint-order:markers stroke fill"
       d="M 707.58456,-110.66866 H 826.15584"
       id="path18" />
  </g>
  <metadata
     id="metadata121">
    <rdf:RDF>
      <cc:Work
         rdf:about="">
        <dc:title>Unbenannte Partitur</dc:title>
      </cc:Work>
    </rdf:RDF>
  </metadata>
</svg>
