<?xml version="1.0" encoding="UTF-8" standalone="no"?>
<svg
   width="71.030647"
   height="214.34"
   viewBox="0 0 71.030652 214.34001"
   version="1.2"
   id="svg117"
   xmlns="http://www.w3.org/2000/svg"
   xmlns:svg="http://www.w3.org/2000/svg"
   xmlns:rdf="http://www.w3.org/1999/02/22-rdf-syntax-ns#"
   xmlns:cc="http://creativecommons.org/ns#"
   xmlns:dc="http://purl.org/dc/elements/1.1/">
  <defs
     id="defs117" />
  <title
     id="title1">Unbenannte Partitur</title>
  <desc
     id="desc1">Generated by MuseScore Studio 4.3.2</desc>
  <metadata
     id="metadata121">
    <rdf:RDF>
      <cc:Work
         rdf:about="">
        <dc:title>Unbenannte Partitur</dc:title>
      </cc:Work>
    </rdf:RDF>
  </metadata>
  <path
     class="KeySig"
     d="m 40.869007,37.176016 c 0.62042,-0.0969 1.12947,-0.82355 1.12947,-1.45331 v -6.08753 c 0,-1.03344 -0.71591,-1.45322 -1.63849,-1.45322 l -3.35649,0.72662 v -15.40464 h -2.84745 v 16.01817 l -9.06721,1.8731 v -14.58099 h -2.8474 v 15.19464 l -3.97686,0.82355 c -0.60449,0.11295 -1.11352,0.82342 -1.11352,1.4532 v 5.99071 c 0,1.13029 0.81128,1.45325 1.73391,1.45325 l 3.35647,-0.72663 v 17.05161 l -3.97686,0.8235 c -0.60449,0.0969 -1.11352,0.82355 -1.11352,1.45332 v 5.9906 c 0,1.13036 0.81128,1.43718 1.73391,1.43718 l 3.35647,-0.71046 v 15.38838 h 2.8474 v -16.01817 l 9.06721,-1.85697 v 14.58108 h 2.84745 v -15.19462 l 3.86551,-0.72671 c 0.62042,-0.11295 1.12947,-0.82344 1.12947,-1.45322 v -6.08758 c 0,-1.03342 -0.71591,-1.45325 -1.63849,-1.45325 l -3.35649,0.72662 v -17.0516 l 3.86551,-0.72663 m -15.78017,3.19717 9.06721,-1.85694 v 17.05161 l -9.06721,1.96998 v -17.16465"
     id="path53"
     style="stroke-width:1.02572" />
  <g
     id="g52"
     transform="translate(-827.263,261.7502)">
    <polyline
       class="StaffLines"
       fill="none"
       stroke="#000000"
       stroke-width="2.73"
       stroke-linejoin="bevel"
       points="336.598,634.198 2847.4,634.198"
       id="polyline1-3"
       transform="matrix(0.02831045,0,0,1.0417648,817.73373,-874.94366)" />
    <polyline
       class="StaffLines"
       fill="none"
       stroke="#000000"
       stroke-width="2.73"
       stroke-linejoin="bevel"
       points="336.598,658.998 2847.4,658.998"
       id="polyline2-0"
       transform="matrix(0.02831045,0,0,1.0417648,817.73373,-874.94366)" />
    <polyline
       class="StaffLines"
       fill="none"
       stroke="#000000"
       stroke-width="2.73"
       stroke-linejoin="bevel"
       points="336.598,683.798 2847.4,683.798"
       id="polyline3-3"
       transform="matrix(0.02831045,0,0,1.0417648,817.73373,-874.94366)" />
    <polyline
       class="StaffLines"
       fill="none"
       stroke="#000000"
       stroke-width="2.73"
       stroke-linejoin="bevel"
       points="336.598,708.598 2847.4,708.598"
       id="polyline4-9"
       transform="matrix(0.02831045,0,0,1.0417648,817.73373,-874.94366)" />
    <polyline
       class="StaffLines"
       fill="none"
       stroke="#000000"
       stroke-width="2.73"
       stroke-linejoin="bevel"
       points="336.598,733.398 2847.4,733.398"
       id="polyline5-5"
       transform="matrix(0.02831045,0,0,1.0417648,817.73373,-874.94366)" />
    <polyline
       class="StaffLines"
       fill="none"
       stroke="#000000"
       stroke-width="2.73"
       stroke-linejoin="bevel"
       points="336.598,634.198 2847.4,634.198"
       id="polyline48-2"
       transform="matrix(0.02831045,0,0,1.0417648,817.73373,-874.94366)" />
    <polyline
       class="StaffLines"
       fill="none"
       stroke="#000000"
       stroke-width="2.73"
       stroke-linejoin="bevel"
       points="336.598,658.998 2847.4,658.998"
       id="polyline49-9"
       transform="matrix(0.02831045,0,0,1.0417648,817.73373,-874.94366)" />
    <polyline
       class="StaffLines"
       fill="none"
       stroke="#000000"
       stroke-width="2.73"
       stroke-linejoin="bevel"
       points="336.598,683.798 2847.4,683.798"
       id="polyline50-1"
       transform="matrix(0.02831045,0,0,1.0417648,817.73373,-874.94366)" />
    <polyline
       class="StaffLines"
       fill="none"
       stroke="#000000"
       stroke-width="2.73"
       stroke-linejoin="bevel"
       points="336.598,708.598 2847.4,708.598"
       id="polyline51-7"
       transform="matrix(0.02831045,0,0,1.0417648,817.73373,-874.94366)" />
    <polyline
       class="StaffLines"
       fill="none"
       stroke="#000000"
       stroke-width="2.73"
       stroke-linejoin="bevel"
       points="336.598,733.398 2847.4,733.398"
       id="polyline52-0"
       transform="matrix(0.02831045,0,0,1.0417648,817.73373,-874.94366)" />
  </g>
</svg>
