<?xml version="1.0" encoding="UTF-8" standalone="no"?>
<svg
   width="71.030647"
   height="214.34"
   viewBox="0 0 71.030652 214.34001"
   version="1.2"
   id="svg117"
   xmlns="http://www.w3.org/2000/svg"
   xmlns:svg="http://www.w3.org/2000/svg"
   xmlns:rdf="http://www.w3.org/1999/02/22-rdf-syntax-ns#"
   xmlns:cc="http://creativecommons.org/ns#"
   xmlns:dc="http://purl.org/dc/elements/1.1/">
  <defs
     id="defs117" />
  <title
     id="title1">Unbenannte Partitur</title>
  <desc
     id="desc1">Generated by MuseScore Studio 4.3.2</desc>
  <metadata
     id="metadata121">
    <rdf:RDF>
      <cc:Work
         rdf:about="">
        <dc:title>Unbenannte Partitur</dc:title>
      </cc:Work>
    </rdf:RDF>
  </metadata>
  <g
     id="g52"
     transform="translate(-827.26301,261.75019)">
    <polyline
       class="StaffLines"
       fill="none"
       stroke="#000000"
       stroke-width="2.73"
       stroke-linejoin="bevel"
       points="336.598,634.198 2847.4,634.198"
       id="polyline1-3"
       transform="matrix(0.02831045,0,0,1.0417648,817.73373,-874.94366)" />
    <polyline
       class="StaffLines"
       fill="none"
       stroke="#000000"
       stroke-width="2.73"
       stroke-linejoin="bevel"
       points="336.598,658.998 2847.4,658.998"
       id="polyline2-0"
       transform="matrix(0.02831045,0,0,1.0417648,817.73373,-874.94366)" />
    <polyline
       class="StaffLines"
       fill="none"
       stroke="#000000"
       stroke-width="2.73"
       stroke-linejoin="bevel"
       points="336.598,683.798 2847.4,683.798"
       id="polyline3-3"
       transform="matrix(0.02831045,0,0,1.0417648,817.73373,-874.94366)" />
    <polyline
       class="StaffLines"
       fill="none"
       stroke="#000000"
       stroke-width="2.73"
       stroke-linejoin="bevel"
       points="336.598,708.598 2847.4,708.598"
       id="polyline4-9"
       transform="matrix(0.02831045,0,0,1.0417648,817.73373,-874.94366)" />
    <polyline
       class="StaffLines"
       fill="none"
       stroke="#000000"
       stroke-width="2.73"
       stroke-linejoin="bevel"
       points="336.598,733.398 2847.4,733.398"
       id="polyline5-5"
       transform="matrix(0.02831045,0,0,1.0417648,817.73373,-874.94366)" />
    <polyline
       class="StaffLines"
       fill="none"
       stroke="#000000"
       stroke-width="2.73"
       stroke-linejoin="bevel"
       points="336.598,634.198 2847.4,634.198"
       id="polyline48-2"
       transform="matrix(0.02831045,0,0,1.0417648,817.73373,-874.94366)" />
    <polyline
       class="StaffLines"
       fill="none"
       stroke="#000000"
       stroke-width="2.73"
       stroke-linejoin="bevel"
       points="336.598,658.998 2847.4,658.998"
       id="polyline49-9"
       transform="matrix(0.02831045,0,0,1.0417648,817.73373,-874.94366)" />
    <polyline
       class="StaffLines"
       fill="none"
       stroke="#000000"
       stroke-width="2.73"
       stroke-linejoin="bevel"
       points="336.598,683.798 2847.4,683.798"
       id="polyline50-1"
       transform="matrix(0.02831045,0,0,1.0417648,817.73373,-874.94366)" />
    <polyline
       class="StaffLines"
       fill="none"
       stroke="#000000"
       stroke-width="2.73"
       stroke-linejoin="bevel"
       points="336.598,708.598 2847.4,708.598"
       id="polyline51-7"
       transform="matrix(0.02831045,0,0,1.0417648,817.73373,-874.94366)" />
    <polyline
       class="StaffLines"
       fill="none"
       stroke="#000000"
       stroke-width="2.73"
       stroke-linejoin="bevel"
       points="336.598,733.398 2847.4,733.398"
       id="polyline52-0"
       transform="matrix(0.02831045,0,0,1.0417648,817.73373,-874.94366)" />
  </g>
</svg>
