<?xml version="1.0" encoding="UTF-8" standalone="no"?>
<svg
   width="115.56006"
   height="214.34"
   viewBox="0 0 115.56007 214.34001"
   version="1.2"
   id="svg117"
   sodipodi:docname="clefs-and-keys.svg"
   inkscape:version="1.3.2 (091e20e, 2023-11-25, custom)"
   xmlns:inkscape="http://www.inkscape.org/namespaces/inkscape"
   xmlns:sodipodi="http://sodipodi.sourceforge.net/DTD/sodipodi-0.dtd"
   xmlns="http://www.w3.org/2000/svg"
   xmlns:svg="http://www.w3.org/2000/svg"
   xmlns:rdf="http://www.w3.org/1999/02/22-rdf-syntax-ns#"
   xmlns:cc="http://creativecommons.org/ns#"
   xmlns:dc="http://purl.org/dc/elements/1.1/">
  <defs
     id="defs117" />
  <sodipodi:namedview
     id="namedview117"
     pagecolor="#ffffff"
     bordercolor="#000000"
     borderopacity="0.25"
     inkscape:showpageshadow="2"
     inkscape:pageopacity="0.0"
     inkscape:pagecheckerboard="0"
     inkscape:deskcolor="#d1d1d1"
     inkscape:zoom="0.32"
     inkscape:cx="2820.3125"
     inkscape:cy="-260.9375"
     inkscape:window-width="1280"
     inkscape:window-height="953"
     inkscape:window-x="2552"
     inkscape:window-y="-8"
     inkscape:window-maximized="1"
     inkscape:current-layer="svg117"
     showguides="true"
     showgrid="false">
    <inkscape:page
       x="-7.1637711e-05"
       y="-1.6343829e-06"
       width="115.56007"
       height="214.34001"
       id="page330"
       margin="0"
       bleed="0" />
  </sodipodi:namedview>
  <title
     id="title1">Unbenannte Partitur</title>
  <desc
     id="desc1">Generated by MuseScore Studio 4.3.2</desc>
  <metadata
     id="metadata121">
    <rdf:RDF>
      <cc:Work
         rdf:about="">
        <dc:title>Unbenannte Partitur</dc:title>
      </cc:Work>
    </rdf:RDF>
  </metadata>
  <path
     class="KeySig"
     d="m 30.224815,109.68041 c -5.0903,0 -8.049,3.19713 -8.5582,3.82689 l 0.4136,-33.182838 c 0,-0.82344 -0.6045,-1.43708 -1.4316,-1.43708 h -1.2091 c -0.8269,0 -1.4317,0.61364 -1.4317,1.43708 l 0.5091,62.118918 c 0,0.82353 0.6045,1.43718 1.4317,1.43718 0.1911,0 0.6045,-0.0968 0.8113,-0.19379 8.7491,-4.45665 17.9118,-12.91792 17.9118,-23.57518 0,-5.36097 -2.4339,-10.43118 -8.4469,-10.43118 m -8.8604,29.14595 0.3022,-20.15188 c 0.2068,-0.93654 1.7339,-3.92386 5.8062,-3.92386 3.6747,0 3.9769,3.50402 3.9769,5.68391 0,9.18785 -3.3564,13.01478 -10.0853,18.39183"
     id="path84"
     style="stroke-width:1.02572" />
  <path
     class="KeySig"
     d="m 58.529715,70.926752 c -5.0903,0 -8.0492,3.19714 -8.5582,3.82691 l 0.4135,-33.18285 c 0,-0.82345 -0.6043,-1.43708 -1.4315,-1.43708 h -1.2089 c -0.8272,0 -1.4316,0.61363 -1.4316,1.43708 l 0.5089,62.118898 c 0,0.82354 0.6044,1.43718 1.4317,1.43718 0.1908,0 0.6044,-0.0969 0.8113,-0.19375 8.7491,-4.45666 17.9116,-12.917928 17.9116,-23.575198 0,-5.36097 -2.4338,-10.43119 -8.4468,-10.43119 m -8.8603,29.145948 0.3021,-20.151868 c 0.2069,-0.93655 1.734,-3.92387 5.8063,-3.92387 3.6745,0 3.9768,3.50404 3.9768,5.68393 0,9.18786 -3.3564,13.01477 -10.0852,18.391808"
     id="path85"
     style="stroke-width:1.02572" />
  <path
     class="KeySig"
     d="m 86.824415,122.59828 c -5.0904,0 -8.0492,3.19712 -8.5581,3.82692 l 0.4135,-33.182858 c 0,-0.82344 -0.6044,-1.43707 -1.4317,-1.43707 h -1.2088 c -0.8273,0 -1.4318,0.61364 -1.4318,1.43707 l 0.5091,62.118928 c 0,0.82352 0.6044,1.43717 1.4315,1.43717 0.1909,0 0.6046,-0.0969 0.8114,-0.19376 8.7491,-4.45668 17.9117,-12.91796 17.9117,-23.5752 0,-5.36097 -2.4338,-10.4312 -8.4468,-10.4312 m -8.8605,29.14596 0.3024,-20.15187 c 0.2068,-0.93655 1.7338,-3.92386 5.8061,-3.92386 3.6747,0 3.9769,3.50403 3.9769,5.68392 0,9.18785 -3.3565,13.01477 -10.0854,18.39181"
     id="path86"
     style="stroke-width:1.02572" />
  <polyline
     class="StaffLines"
     fill="none"
     stroke="#000000"
     stroke-width="2.73"
     stroke-linejoin="bevel"
     points="336.598,634.198 2847.4,634.198"
     id="polyline262"
     transform="matrix(0.04602469,0,0,1.0417648,-15.651685,-613.19346)" />
  <polyline
     class="StaffLines"
     fill="none"
     stroke="#000000"
     stroke-width="2.73"
     stroke-linejoin="bevel"
     points="336.598,658.998 2847.4,658.998"
     id="polyline263"
     transform="matrix(0.04602469,0,0,1.0417648,-15.651685,-613.19346)" />
  <polyline
     class="StaffLines"
     fill="none"
     stroke="#000000"
     stroke-width="2.73"
     stroke-linejoin="bevel"
     points="336.598,683.798 2847.4,683.798"
     id="polyline264"
     transform="matrix(0.04602469,0,0,1.0417648,-15.651685,-613.19346)" />
  <polyline
     class="StaffLines"
     fill="none"
     stroke="#000000"
     stroke-width="2.73"
     stroke-linejoin="bevel"
     points="336.598,708.598 2847.4,708.598"
     id="polyline265"
     transform="matrix(0.04602469,0,0,1.0417648,-15.651685,-613.19346)" />
  <polyline
     class="StaffLines"
     fill="none"
     stroke="#000000"
     stroke-width="2.73"
     stroke-linejoin="bevel"
     points="336.598,733.398 2847.4,733.398"
     id="polyline266"
     transform="matrix(0.04602469,0,0,1.0417648,-15.651685,-613.19346)" />
  <polyline
     class="StaffLines"
     fill="none"
     stroke="#000000"
     stroke-width="2.73"
     stroke-linejoin="bevel"
     points="336.598,634.198 2847.4,634.198"
     id="polyline267"
     transform="matrix(0.04602469,0,0,1.0417648,-15.651685,-613.19346)" />
  <polyline
     class="StaffLines"
     fill="none"
     stroke="#000000"
     stroke-width="2.73"
     stroke-linejoin="bevel"
     points="336.598,658.998 2847.4,658.998"
     id="polyline268"
     transform="matrix(0.04602469,0,0,1.0417648,-15.651685,-613.19346)" />
  <polyline
     class="StaffLines"
     fill="none"
     stroke="#000000"
     stroke-width="2.73"
     stroke-linejoin="bevel"
     points="336.598,683.798 2847.4,683.798"
     id="polyline269"
     transform="matrix(0.04602469,0,0,1.0417648,-15.651685,-613.19346)" />
  <polyline
     class="StaffLines"
     fill="none"
     stroke="#000000"
     stroke-width="2.73"
     stroke-linejoin="bevel"
     points="336.598,708.598 2847.4,708.598"
     id="polyline270"
     transform="matrix(0.04602469,0,0,1.0417648,-15.651685,-613.19346)" />
  <polyline
     class="StaffLines"
     fill="none"
     stroke="#000000"
     stroke-width="2.73"
     stroke-linejoin="bevel"
     points="336.598,733.398 2847.4,733.398"
     id="polyline271"
     transform="matrix(0.04602469,0,0,1.0417648,-15.651685,-613.19346)" />
</svg>
