<?xml version="1.0" encoding="UTF-8" standalone="no"?>
<svg
   width="136.05678"
   height="214.34"
   viewBox="0 0 136.05679 214.34001"
   version="1.2"
   id="svg117"
   xmlns="http://www.w3.org/2000/svg"
   xmlns:svg="http://www.w3.org/2000/svg"
   xmlns:rdf="http://www.w3.org/1999/02/22-rdf-syntax-ns#"
   xmlns:cc="http://creativecommons.org/ns#"
   xmlns:dc="http://purl.org/dc/elements/1.1/">
  <defs
     id="defs117" />
  <title
     id="title1">Unbenannte Partitur</title>
  <desc
     id="desc1">Generated by MuseScore Studio 4.3.2</desc>
  <metadata
     id="metadata121">
    <rdf:RDF>
      <cc:Work
         rdf:about="">
        <dc:title>Unbenannte Partitur</dc:title>
      </cc:Work>
    </rdf:RDF>
  </metadata>
  <path
     class="KeySig"
     d="m 37.781213,37.176016 c 0.6204,-0.0969 1.1295,-0.82355 1.1295,-1.45331 v -6.08753 c 0,-1.03344 -0.7158,-1.45322 -1.6383,-1.45322 l -3.3566,0.72662 v -15.40464 h -2.8473 v 16.01817 l -9.0673,1.8731 v -14.58099 h -2.8474 v 15.19464 l -3.9769,0.82355 c -0.6044,0.11295 -1.1136,0.82342 -1.1136,1.4532 v 5.99071 c 0,1.13029 0.8113,1.45325 1.734,1.45325 l 3.3565,-0.72663 v 17.05161 l -3.9769,0.8235 c -0.6044,0.0969 -1.1136,0.82355 -1.1136,1.45332 v 5.9906 c 0,1.13036 0.8113,1.43718 1.734,1.43718 l 3.3565,-0.71046 v 15.38838 h 2.8474 v -16.01817 l 9.0673,-1.85697 v 14.58108 h 2.8473 v -15.19462 l 3.8654,-0.72671 c 0.6204,-0.11295 1.1295,-0.82344 1.1295,-1.45322 v -6.08758 c 0,-1.03342 -0.7158,-1.45325 -1.6383,-1.45325 l -3.3566,0.72662 v -17.0516 l 3.8654,-0.72663 m -15.78,3.19717 9.0673,-1.85694 v 17.05161 l -9.0673,1.96998 v -17.16465"
     id="path93"
     style="stroke-width:1.02572" />
  <path
     class="KeySig"
     d="m 65.665513,75.929656 c 0.6202,-0.097 1.1294,-0.82353 1.1294,-1.4533 v -6.08753 c 0,-1.03343 -0.7158,-1.45321 -1.6386,-1.45321 l -3.3563,0.7266 v -15.40462 h -2.8476 v 16.01816 l -9.0671,1.8731 v -14.58098 h -2.8474 v 15.19464 l -3.9768,0.82353 c -0.6045,0.11296 -1.1135,0.82344 -1.1135,1.45322 v 5.99069 c 0,1.13032 0.8112,1.45326 1.7337,1.45326 l 3.3566,-0.72663 v 17.05161 l -3.9768,0.82351 c -0.6045,0.097 -1.1135,0.82354 -1.1135,1.45333 v 5.990594 c 0,1.13035 0.8112,1.43719 1.7337,1.43719 l 3.3566,-0.71051 v 15.38841 h 2.8474 v -16.01817 l 9.0671,-1.85698 v 14.58109 h 2.8476 v -15.19462 l 3.8655,-0.72671 c 0.6202,-0.11296 1.1294,-0.82343 1.1294,-1.45323 v -6.087574 c 0,-1.03342 -0.7158,-1.45326 -1.6386,-1.45326 l -3.3563,0.72664 v -17.05161 l 3.8655,-0.72664 m -15.7802,3.19718 9.0671,-1.85695 v 17.05162 l -9.0671,1.96998 v -17.16465"
     id="path94"
     style="stroke-width:1.02572" />
  <path
     class="KeySig"
     d="m 93.549713,24.258116 c 0.6202,-0.0969 1.1293,-0.82353 1.1293,-1.45331 v -6.08752 c 0,-1.03343 -0.7159,-1.45322 -1.6385,-1.45322 l -3.3566,0.72662 V 0.5860554 h -2.8472 V 16.604216 l -9.0674,1.8731 V 3.8963354 h -2.8474 V 19.090956 l -3.9767,0.82355 c -0.6045,0.11296 -1.1136,0.82344 -1.1136,1.45322 v 5.9907 c 0,1.13031 0.8113,1.45325 1.7339,1.45325 l 3.3564,-0.72663 v 17.0516 l -3.9767,0.82352 c -0.6045,0.0969 -1.1136,0.82355 -1.1136,1.45331 v 5.9906 c 0,1.13036 0.8113,1.43719 1.7339,1.43719 l 3.3564,-0.71048 v 15.38839 h 2.8474 v -16.01817 l 9.0674,-1.85696 v 14.58108 h 2.8472 v -15.19463 l 3.8658,-0.72671 c 0.6202,-0.11295 1.1293,-0.82345 1.1293,-1.45323 v -6.08755 c 0,-1.03344 -0.7159,-1.45328 -1.6385,-1.45328 l -3.3566,0.72664 v -17.05161 l 3.8658,-0.72664 m -15.7804,3.19719 9.0674,-1.85696 v 17.05162 l -9.0674,1.96997 v -17.16463"
     id="path95"
     style="stroke-width:1.02572" />
  <path
     class="KeySig"
     d="m 121.41321,63.011786 c 0.6203,-0.097 1.1294,-0.82355 1.1294,-1.45332 v -6.08753 c 0,-1.03342 -0.7158,-1.45321 -1.6385,-1.45321 l -3.3564,0.7266 v -15.40463 h -2.8475 v 16.01817 l -9.0672,1.8731 v -14.58098 h -2.8475 v 15.19463 l -3.976697,0.82354 c -0.6047,0.11296 -1.1135,0.82346 -1.1135,1.45324 v 5.99068 c 0,1.1303 0.8113,1.45326 1.7338,1.45326 l 3.356397,-0.72663 v 17.05161 l -3.976697,0.82352 c -0.6047,0.0969 -1.1135,0.82352 -1.1135,1.45331 v 5.99059 c 0,1.13035 0.8113,1.43718 1.7338,1.43718 l 3.356397,-0.71049 v 15.388424 h 2.8475 V 92.254656 l 9.0672,-1.85695 v 14.581084 h 2.8475 V 89.784156 l 3.8655,-0.72671 c 0.6203,-0.11296 1.1294,-0.82344 1.1294,-1.45323 v -6.08757 c 0,-1.03343 -0.7158,-1.45327 -1.6385,-1.45327 l -3.3564,0.72665 v -17.05162 l 3.8655,-0.72662 m -15.7802,3.19717 9.0672,-1.85695 v 17.0516 l -9.0672,1.96999 v -17.16464"
     id="path96"
     style="stroke-width:1.02572" />
  <g
     id="g61"
     transform="translate(-1447.361,261.7502)">
    <polyline
       class="StaffLines"
       fill="none"
       stroke="#000000"
       stroke-width="2.73"
       stroke-linejoin="bevel"
       points="336.598,634.198 2847.4,634.198"
       id="polyline52"
       transform="matrix(0.03805572,0,0,1.0417648,880.4535,-874.94366)" />
    <polyline
       class="StaffLines"
       fill="none"
       stroke="#000000"
       stroke-width="2.73"
       stroke-linejoin="bevel"
       points="336.598,658.998 2847.4,658.998"
       id="polyline53"
       transform="matrix(0.03805572,0,0,1.0417648,880.4535,-874.94366)" />
    <polyline
       class="StaffLines"
       fill="none"
       stroke="#000000"
       stroke-width="2.73"
       stroke-linejoin="bevel"
       points="336.598,683.798 2847.4,683.798"
       id="polyline54"
       transform="matrix(0.03805572,0,0,1.0417648,880.4535,-874.94366)" />
    <polyline
       class="StaffLines"
       fill="none"
       stroke="#000000"
       stroke-width="2.73"
       stroke-linejoin="bevel"
       points="336.598,708.598 2847.4,708.598"
       id="polyline55"
       transform="matrix(0.03805572,0,0,1.0417648,880.4535,-874.94366)" />
    <polyline
       class="StaffLines"
       fill="none"
       stroke="#000000"
       stroke-width="2.73"
       stroke-linejoin="bevel"
       points="336.598,733.398 2847.4,733.398"
       id="polyline56"
       transform="matrix(0.03805572,0,0,1.0417648,880.4535,-874.94366)" />
    <polyline
       class="StaffLines"
       fill="none"
       stroke="#000000"
       stroke-width="2.73"
       stroke-linejoin="bevel"
       points="336.598,634.198 2847.4,634.198"
       id="polyline57"
       transform="matrix(0.03805572,0,0,1.0417648,880.4535,-874.94366)" />
    <polyline
       class="StaffLines"
       fill="none"
       stroke="#000000"
       stroke-width="2.73"
       stroke-linejoin="bevel"
       points="336.598,658.998 2847.4,658.998"
       id="polyline58"
       transform="matrix(0.03805572,0,0,1.0417648,880.4535,-874.94366)" />
    <polyline
       class="StaffLines"
       fill="none"
       stroke="#000000"
       stroke-width="2.73"
       stroke-linejoin="bevel"
       points="336.598,683.798 2847.4,683.798"
       id="polyline59"
       transform="matrix(0.03805572,0,0,1.0417648,880.4535,-874.94366)" />
    <polyline
       class="StaffLines"
       fill="none"
       stroke="#000000"
       stroke-width="2.73"
       stroke-linejoin="bevel"
       points="336.598,708.598 2847.4,708.598"
       id="polyline60"
       transform="matrix(0.03805572,0,0,1.0417648,880.4535,-874.94366)" />
    <polyline
       class="StaffLines"
       fill="none"
       stroke="#000000"
       stroke-width="2.73"
       stroke-linejoin="bevel"
       points="336.598,733.398 2847.4,733.398"
       id="polyline61"
       transform="matrix(0.03805572,0,0,1.0417648,880.4535,-874.94366)" />
    <polyline
       class="StaffLines"
       fill="none"
       stroke="#000000"
       stroke-width="2.73"
       stroke-linejoin="bevel"
       points="336.598,634.198 2847.4,634.198"
       id="polyline62"
       transform="matrix(0.04569673,0,0,1.0417648,1167.8816,-874.94366)" />
    <polyline
       class="StaffLines"
       fill="none"
       stroke="#000000"
       stroke-width="2.73"
       stroke-linejoin="bevel"
       points="336.598,658.998 2847.4,658.998"
       id="polyline63"
       transform="matrix(0.04569673,0,0,1.0417648,1167.8816,-874.94366)" />
    <polyline
       class="StaffLines"
       fill="none"
       stroke="#000000"
       stroke-width="2.73"
       stroke-linejoin="bevel"
       points="336.598,683.798 2847.4,683.798"
       id="polyline64"
       transform="matrix(0.04569673,0,0,1.0417648,1167.8816,-874.94366)" />
    <polyline
       class="StaffLines"
       fill="none"
       stroke="#000000"
       stroke-width="2.73"
       stroke-linejoin="bevel"
       points="336.598,708.598 2847.4,708.598"
       id="polyline65"
       transform="matrix(0.04569673,0,0,1.0417648,1167.8816,-874.94366)" />
    <polyline
       class="StaffLines"
       fill="none"
       stroke="#000000"
       stroke-width="2.73"
       stroke-linejoin="bevel"
       points="336.598,733.398 2847.4,733.398"
       id="polyline66"
       transform="matrix(0.04569673,0,0,1.0417648,1167.8816,-874.94366)" />
    <polyline
       class="StaffLines"
       fill="none"
       stroke="#000000"
       stroke-width="2.73"
       stroke-linejoin="bevel"
       points="336.598,634.198 2847.4,634.198"
       id="polyline67"
       transform="matrix(0.04569673,0,0,1.0417648,1167.8816,-874.94366)" />
    <polyline
       class="StaffLines"
       fill="none"
       stroke="#000000"
       stroke-width="2.73"
       stroke-linejoin="bevel"
       points="336.598,658.998 2847.4,658.998"
       id="polyline68"
       transform="matrix(0.04569673,0,0,1.0417648,1167.8816,-874.94366)" />
    <polyline
       class="StaffLines"
       fill="none"
       stroke="#000000"
       stroke-width="2.73"
       stroke-linejoin="bevel"
       points="336.598,683.798 2847.4,683.798"
       id="polyline69"
       transform="matrix(0.04569673,0,0,1.0417648,1167.8816,-874.94366)" />
    <polyline
       class="StaffLines"
       fill="none"
       stroke="#000000"
       stroke-width="2.73"
       stroke-linejoin="bevel"
       points="336.598,708.598 2847.4,708.598"
       id="polyline70"
       transform="matrix(0.04569673,0,0,1.0417648,1167.8816,-874.94366)" />
    <polyline
       class="StaffLines"
       fill="none"
       stroke="#000000"
       stroke-width="2.73"
       stroke-linejoin="bevel"
       points="336.598,733.398 2847.4,733.398"
       id="polyline71"
       transform="matrix(0.04569673,0,0,1.0417648,1167.8816,-874.94366)" />
    <polyline
       class="StaffLines"
       fill="none"
       stroke="#000000"
       stroke-width="2.73"
       stroke-linejoin="bevel"
       points="336.598,634.198 2847.4,634.198"
       id="polyline72"
       transform="matrix(0.05426658,0,0,1.0417648,1428.997,-874.94366)" />
    <polyline
       class="StaffLines"
       fill="none"
       stroke="#000000"
       stroke-width="2.73"
       stroke-linejoin="bevel"
       points="336.598,658.998 2847.4,658.998"
       id="polyline73"
       transform="matrix(0.05426658,0,0,1.0417648,1428.997,-874.94366)" />
    <polyline
       class="StaffLines"
       fill="none"
       stroke="#000000"
       stroke-width="2.73"
       stroke-linejoin="bevel"
       points="336.598,683.798 2847.4,683.798"
       id="polyline74"
       transform="matrix(0.05426658,0,0,1.0417648,1428.997,-874.94366)" />
    <polyline
       class="StaffLines"
       fill="none"
       stroke="#000000"
       stroke-width="2.73"
       stroke-linejoin="bevel"
       points="336.598,708.598 2847.4,708.598"
       id="polyline75"
       transform="matrix(0.05426658,0,0,1.0417648,1428.997,-874.94366)" />
    <polyline
       class="StaffLines"
       fill="none"
       stroke="#000000"
       stroke-width="2.73"
       stroke-linejoin="bevel"
       points="336.598,733.398 2847.4,733.398"
       id="polyline76"
       transform="matrix(0.05426658,0,0,1.0417648,1428.997,-874.94366)" />
    <polyline
       class="StaffLines"
       fill="none"
       stroke="#000000"
       stroke-width="2.73"
       stroke-linejoin="bevel"
       points="336.598,634.198 2847.4,634.198"
       id="polyline77"
       transform="matrix(0.05426658,0,0,1.0417648,1428.997,-874.94366)" />
    <polyline
       class="StaffLines"
       fill="none"
       stroke="#000000"
       stroke-width="2.73"
       stroke-linejoin="bevel"
       points="336.598,658.998 2847.4,658.998"
       id="polyline78"
       transform="matrix(0.05426658,0,0,1.0417648,1428.997,-874.94366)" />
    <polyline
       class="StaffLines"
       fill="none"
       stroke="#000000"
       stroke-width="2.73"
       stroke-linejoin="bevel"
       points="336.598,683.798 2847.4,683.798"
       id="polyline79"
       transform="matrix(0.05426658,0,0,1.0417648,1428.997,-874.94366)" />
    <polyline
       class="StaffLines"
       fill="none"
       stroke="#000000"
       stroke-width="2.73"
       stroke-linejoin="bevel"
       points="336.598,708.598 2847.4,708.598"
       id="polyline80"
       transform="matrix(0.05426658,0,0,1.0417648,1428.997,-874.94366)" />
    <polyline
       class="StaffLines"
       fill="none"
       stroke="#000000"
       stroke-width="2.73"
       stroke-linejoin="bevel"
       points="336.598,733.398 2847.4,733.398"
       id="polyline81"
       transform="matrix(0.05426658,0,0,1.0417648,1428.997,-874.94366)" />
    <polyline
       class="StaffLines"
       fill="none"
       stroke="#000000"
       stroke-width="2.73"
       stroke-linejoin="bevel"
       points="336.598,634.198 2847.4,634.198"
       id="polyline82"
       transform="matrix(0.06428468,0,0,1.0417648,1691.6249,-874.94366)" />
    <polyline
       class="StaffLines"
       fill="none"
       stroke="#000000"
       stroke-width="2.73"
       stroke-linejoin="bevel"
       points="336.598,658.998 2847.4,658.998"
       id="polyline83"
       transform="matrix(0.06428468,0,0,1.0417648,1691.6249,-874.94366)" />
    <polyline
       class="StaffLines"
       fill="none"
       stroke="#000000"
       stroke-width="2.73"
       stroke-linejoin="bevel"
       points="336.598,683.798 2847.4,683.798"
       id="polyline84"
       transform="matrix(0.06428468,0,0,1.0417648,1691.6249,-874.94366)" />
    <polyline
       class="StaffLines"
       fill="none"
       stroke="#000000"
       stroke-width="2.73"
       stroke-linejoin="bevel"
       points="336.598,708.598 2847.4,708.598"
       id="polyline85"
       transform="matrix(0.06428468,0,0,1.0417648,1691.6249,-874.94366)" />
    <polyline
       class="StaffLines"
       fill="none"
       stroke="#000000"
       stroke-width="2.73"
       stroke-linejoin="bevel"
       points="336.598,733.398 2847.4,733.398"
       id="polyline86"
       transform="matrix(0.06428468,0,0,1.0417648,1691.6249,-874.94366)" />
    <polyline
       class="StaffLines"
       fill="none"
       stroke="#000000"
       stroke-width="2.73"
       stroke-linejoin="bevel"
       points="336.598,634.198 2847.4,634.198"
       id="polyline87"
       transform="matrix(0.06428468,0,0,1.0417648,1691.6249,-874.94366)" />
    <polyline
       class="StaffLines"
       fill="none"
       stroke="#000000"
       stroke-width="2.73"
       stroke-linejoin="bevel"
       points="336.598,658.998 2847.4,658.998"
       id="polyline88"
       transform="matrix(0.06428468,0,0,1.0417648,1691.6249,-874.94366)" />
    <polyline
       class="StaffLines"
       fill="none"
       stroke="#000000"
       stroke-width="2.73"
       stroke-linejoin="bevel"
       points="336.598,683.798 2847.4,683.798"
       id="polyline89"
       transform="matrix(0.06428468,0,0,1.0417648,1691.6249,-874.94366)" />
    <polyline
       class="StaffLines"
       fill="none"
       stroke="#000000"
       stroke-width="2.73"
       stroke-linejoin="bevel"
       points="336.598,708.598 2847.4,708.598"
       id="polyline90"
       transform="matrix(0.06428468,0,0,1.0417648,1691.6249,-874.94366)" />
    <polyline
       class="StaffLines"
       fill="none"
       stroke="#000000"
       stroke-width="2.73"
       stroke-linejoin="bevel"
       points="336.598,733.398 2847.4,733.398"
       id="polyline91"
       transform="matrix(0.06428468,0,0,1.0417648,1691.6249,-874.94366)" />
    <polyline
       class="StaffLines"
       fill="none"
       stroke="#000000"
       stroke-width="2.73"
       stroke-linejoin="bevel"
       points="336.598,634.198 2847.4,634.198"
       id="polyline92"
       transform="matrix(0.074153,0,0,1.0417648,1952.3033,-874.94366)" />
    <polyline
       class="StaffLines"
       fill="none"
       stroke="#000000"
       stroke-width="2.73"
       stroke-linejoin="bevel"
       points="336.598,658.998 2847.4,658.998"
       id="polyline93"
       transform="matrix(0.074153,0,0,1.0417648,1952.3033,-874.94366)" />
    <polyline
       class="StaffLines"
       fill="none"
       stroke="#000000"
       stroke-width="2.73"
       stroke-linejoin="bevel"
       points="336.598,683.798 2847.4,683.798"
       id="polyline94"
       transform="matrix(0.074153,0,0,1.0417648,1952.3033,-874.94366)" />
    <polyline
       class="StaffLines"
       fill="none"
       stroke="#000000"
       stroke-width="2.73"
       stroke-linejoin="bevel"
       points="336.598,708.598 2847.4,708.598"
       id="polyline95"
       transform="matrix(0.074153,0,0,1.0417648,1952.3033,-874.94366)" />
    <polyline
       class="StaffLines"
       fill="none"
       stroke="#000000"
       stroke-width="2.73"
       stroke-linejoin="bevel"
       points="336.598,733.398 2847.4,733.398"
       id="polyline96"
       transform="matrix(0.074153,0,0,1.0417648,1952.3033,-874.94366)" />
    <polyline
       class="StaffLines"
       fill="none"
       stroke="#000000"
       stroke-width="2.73"
       stroke-linejoin="bevel"
       points="336.598,634.198 2847.4,634.198"
       id="polyline97"
       transform="matrix(0.074153,0,0,1.0417648,1952.3033,-874.94366)" />
    <polyline
       class="StaffLines"
       fill="none"
       stroke="#000000"
       stroke-width="2.73"
       stroke-linejoin="bevel"
       points="336.598,658.998 2847.4,658.998"
       id="polyline98"
       transform="matrix(0.074153,0,0,1.0417648,1952.3033,-874.94366)" />
    <polyline
       class="StaffLines"
       fill="none"
       stroke="#000000"
       stroke-width="2.73"
       stroke-linejoin="bevel"
       points="336.598,683.798 2847.4,683.798"
       id="polyline99"
       transform="matrix(0.074153,0,0,1.0417648,1952.3033,-874.94366)" />
    <polyline
       class="StaffLines"
       fill="none"
       stroke="#000000"
       stroke-width="2.73"
       stroke-linejoin="bevel"
       points="336.598,708.598 2847.4,708.598"
       id="polyline100"
       transform="matrix(0.074153,0,0,1.0417648,1952.3033,-874.94366)" />
    <polyline
       class="StaffLines"
       fill="none"
       stroke="#000000"
       stroke-width="2.73"
       stroke-linejoin="bevel"
       points="336.598,733.398 2847.4,733.398"
       id="polyline101"
       transform="matrix(0.074153,0,0,1.0417648,1952.3033,-874.94366)" />
    <polyline
       class="StaffLines"
       fill="none"
       stroke="#000000"
       stroke-width="2.73"
       stroke-linejoin="bevel"
       points="336.598,634.198 2847.4,634.198"
       id="polyline102"
       transform="matrix(0.08213926,0,0,1.0417648,2217.6151,-874.94366)" />
    <polyline
       class="StaffLines"
       fill="none"
       stroke="#000000"
       stroke-width="2.73"
       stroke-linejoin="bevel"
       points="336.598,658.998 2847.4,658.998"
       id="polyline103"
       transform="matrix(0.08213926,0,0,1.0417648,2217.6151,-874.94366)" />
    <polyline
       class="StaffLines"
       fill="none"
       stroke="#000000"
       stroke-width="2.73"
       stroke-linejoin="bevel"
       points="336.598,683.798 2847.4,683.798"
       id="polyline104"
       transform="matrix(0.08213926,0,0,1.0417648,2217.6151,-874.94366)" />
    <polyline
       class="StaffLines"
       fill="none"
       stroke="#000000"
       stroke-width="2.73"
       stroke-linejoin="bevel"
       points="336.598,708.598 2847.4,708.598"
       id="polyline105"
       transform="matrix(0.08213926,0,0,1.0417648,2217.6151,-874.94366)" />
    <polyline
       class="StaffLines"
       fill="none"
       stroke="#000000"
       stroke-width="2.73"
       stroke-linejoin="bevel"
       points="336.598,733.398 2847.4,733.398"
       id="polyline106"
       transform="matrix(0.08213926,0,0,1.0417648,2217.6151,-874.94366)" />
    <polyline
       class="StaffLines"
       fill="none"
       stroke="#000000"
       stroke-width="2.73"
       stroke-linejoin="bevel"
       points="336.598,634.198 2847.4,634.198"
       id="polyline107"
       transform="matrix(0.08213926,0,0,1.0417648,2217.6151,-874.94366)" />
    <polyline
       class="StaffLines"
       fill="none"
       stroke="#000000"
       stroke-width="2.73"
       stroke-linejoin="bevel"
       points="336.598,658.998 2847.4,658.998"
       id="polyline108"
       transform="matrix(0.08213926,0,0,1.0417648,2217.6151,-874.94366)" />
    <polyline
       class="StaffLines"
       fill="none"
       stroke="#000000"
       stroke-width="2.73"
       stroke-linejoin="bevel"
       points="336.598,683.798 2847.4,683.798"
       id="polyline109"
       transform="matrix(0.08213926,0,0,1.0417648,2217.6151,-874.94366)" />
    <polyline
       class="StaffLines"
       fill="none"
       stroke="#000000"
       stroke-width="2.73"
       stroke-linejoin="bevel"
       points="336.598,708.598 2847.4,708.598"
       id="polyline110"
       transform="matrix(0.08213926,0,0,1.0417648,2217.6151,-874.94366)" />
    <polyline
       class="StaffLines"
       fill="none"
       stroke="#000000"
       stroke-width="2.73"
       stroke-linejoin="bevel"
       points="336.598,733.398 2847.4,733.398"
       id="polyline111"
       transform="matrix(0.08213926,0,0,1.0417648,2217.6151,-874.94366)" />
    <polyline
       class="StaffLines"
       fill="none"
       stroke="#000000"
       stroke-width="2.73"
       stroke-linejoin="bevel"
       points="336.598,634.198 2847.4,634.198"
       id="polyline112"
       transform="matrix(0.0224173,0,0,1.0417648,2489.7174,-874.94366)" />
    <polyline
       class="StaffLines"
       fill="none"
       stroke="#000000"
       stroke-width="2.73"
       stroke-linejoin="bevel"
       points="336.598,658.998 2847.4,658.998"
       id="polyline113"
       transform="matrix(0.0224173,0,0,1.0417648,2489.7174,-874.94366)" />
    <polyline
       class="StaffLines"
       fill="none"
       stroke="#000000"
       stroke-width="2.73"
       stroke-linejoin="bevel"
       points="336.598,683.798 2847.4,683.798"
       id="polyline114"
       transform="matrix(0.0224173,0,0,1.0417648,2489.7174,-874.94366)" />
    <polyline
       class="StaffLines"
       fill="none"
       stroke="#000000"
       stroke-width="2.73"
       stroke-linejoin="bevel"
       points="336.598,708.598 2847.4,708.598"
       id="polyline115"
       transform="matrix(0.0224173,0,0,1.0417648,2489.7174,-874.94366)" />
    <polyline
       class="StaffLines"
       fill="none"
       stroke="#000000"
       stroke-width="2.73"
       stroke-linejoin="bevel"
       points="336.598,733.398 2847.4,733.398"
       id="polyline116"
       transform="matrix(0.0224173,0,0,1.0417648,2489.7174,-874.94366)" />
    <polyline
       class="StaffLines"
       fill="none"
       stroke="#000000"
       stroke-width="2.73"
       stroke-linejoin="bevel"
       points="336.598,634.198 2847.4,634.198"
       id="polyline117"
       transform="matrix(0.0224173,0,0,1.0417648,2489.7174,-874.94366)" />
    <polyline
       class="StaffLines"
       fill="none"
       stroke="#000000"
       stroke-width="2.73"
       stroke-linejoin="bevel"
       points="336.598,658.998 2847.4,658.998"
       id="polyline118"
       transform="matrix(0.0224173,0,0,1.0417648,2489.7174,-874.94366)" />
    <polyline
       class="StaffLines"
       fill="none"
       stroke="#000000"
       stroke-width="2.73"
       stroke-linejoin="bevel"
       points="336.598,683.798 2847.4,683.798"
       id="polyline119"
       transform="matrix(0.0224173,0,0,1.0417648,2489.7174,-874.94366)" />
    <polyline
       class="StaffLines"
       fill="none"
       stroke="#000000"
       stroke-width="2.73"
       stroke-linejoin="bevel"
       points="336.598,708.598 2847.4,708.598"
       id="polyline120"
       transform="matrix(0.0224173,0,0,1.0417648,2489.7174,-874.94366)" />
    <polyline
       class="StaffLines"
       fill="none"
       stroke="#000000"
       stroke-width="2.73"
       stroke-linejoin="bevel"
       points="336.598,733.398 2847.4,733.398"
       id="polyline121"
       transform="matrix(0.0224173,0,0,1.0417648,2489.7174,-874.94366)" />
    <polyline
       class="StaffLines"
       fill="none"
       stroke="#000000"
       stroke-width="2.73"
       stroke-linejoin="bevel"
       points="336.598,634.198 2847.4,634.198"
       id="polyline122"
       transform="matrix(0.03551408,0,0,1.0417648,2745.309,-874.94366)" />
    <polyline
       class="StaffLines"
       fill="none"
       stroke="#000000"
       stroke-width="2.73"
       stroke-linejoin="bevel"
       points="336.598,658.998 2847.4,658.998"
       id="polyline123"
       transform="matrix(0.03551408,0,0,1.0417648,2745.309,-874.94366)" />
    <polyline
       class="StaffLines"
       fill="none"
       stroke="#000000"
       stroke-width="2.73"
       stroke-linejoin="bevel"
       points="336.598,683.798 2847.4,683.798"
       id="polyline124"
       transform="matrix(0.03551408,0,0,1.0417648,2745.309,-874.94366)" />
    <polyline
       class="StaffLines"
       fill="none"
       stroke="#000000"
       stroke-width="2.73"
       stroke-linejoin="bevel"
       points="336.598,708.598 2847.4,708.598"
       id="polyline125"
       transform="matrix(0.03551408,0,0,1.0417648,2745.309,-874.94366)" />
    <polyline
       class="StaffLines"
       fill="none"
       stroke="#000000"
       stroke-width="2.73"
       stroke-linejoin="bevel"
       points="336.598,733.398 2847.4,733.398"
       id="polyline126"
       transform="matrix(0.03551408,0,0,1.0417648,2745.309,-874.94366)" />
    <polyline
       class="StaffLines"
       fill="none"
       stroke="#000000"
       stroke-width="2.73"
       stroke-linejoin="bevel"
       points="336.598,634.198 2847.4,634.198"
       id="polyline127"
       transform="matrix(0.03551408,0,0,1.0417648,2745.309,-874.94366)" />
    <polyline
       class="StaffLines"
       fill="none"
       stroke="#000000"
       stroke-width="2.73"
       stroke-linejoin="bevel"
       points="336.598,658.998 2847.4,658.998"
       id="polyline128"
       transform="matrix(0.03551408,0,0,1.0417648,2745.309,-874.94366)" />
    <polyline
       class="StaffLines"
       fill="none"
       stroke="#000000"
       stroke-width="2.73"
       stroke-linejoin="bevel"
       points="336.598,683.798 2847.4,683.798"
       id="polyline129"
       transform="matrix(0.03551408,0,0,1.0417648,2745.309,-874.94366)" />
    <polyline
       class="StaffLines"
       fill="none"
       stroke="#000000"
       stroke-width="2.73"
       stroke-linejoin="bevel"
       points="336.598,708.598 2847.4,708.598"
       id="polyline130"
       transform="matrix(0.03551408,0,0,1.0417648,2745.309,-874.94366)" />
    <polyline
       class="StaffLines"
       fill="none"
       stroke="#000000"
       stroke-width="2.73"
       stroke-linejoin="bevel"
       points="336.598,733.398 2847.4,733.398"
       id="polyline131"
       transform="matrix(0.03551408,0,0,1.0417648,2745.309,-874.94366)" />
    <polyline
       class="StaffLines"
       fill="none"
       stroke="#000000"
       stroke-width="2.73"
       stroke-linejoin="bevel"
       points="336.598,634.198 2847.4,634.198"
       id="polyline132"
       transform="matrix(0.04602469,0,0,1.0417648,3009.7712,-874.94366)" />
    <polyline
       class="StaffLines"
       fill="none"
       stroke="#000000"
       stroke-width="2.73"
       stroke-linejoin="bevel"
       points="336.598,658.998 2847.4,658.998"
       id="polyline133"
       transform="matrix(0.04602469,0,0,1.0417648,3009.7712,-874.94366)" />
    <polyline
       class="StaffLines"
       fill="none"
       stroke="#000000"
       stroke-width="2.73"
       stroke-linejoin="bevel"
       points="336.598,683.798 2847.4,683.798"
       id="polyline134"
       transform="matrix(0.04602469,0,0,1.0417648,3009.7712,-874.94366)" />
    <polyline
       class="StaffLines"
       fill="none"
       stroke="#000000"
       stroke-width="2.73"
       stroke-linejoin="bevel"
       points="336.598,708.598 2847.4,708.598"
       id="polyline135"
       transform="matrix(0.04602469,0,0,1.0417648,3009.7712,-874.94366)" />
    <polyline
       class="StaffLines"
       fill="none"
       stroke="#000000"
       stroke-width="2.73"
       stroke-linejoin="bevel"
       points="336.598,733.398 2847.4,733.398"
       id="polyline136"
       transform="matrix(0.04602469,0,0,1.0417648,3009.7712,-874.94366)" />
    <polyline
       class="StaffLines"
       fill="none"
       stroke="#000000"
       stroke-width="2.73"
       stroke-linejoin="bevel"
       points="336.598,634.198 2847.4,634.198"
       id="polyline137"
       transform="matrix(0.04602469,0,0,1.0417648,3009.7712,-874.94366)" />
    <polyline
       class="StaffLines"
       fill="none"
       stroke="#000000"
       stroke-width="2.73"
       stroke-linejoin="bevel"
       points="336.598,658.998 2847.4,658.998"
       id="polyline138"
       transform="matrix(0.04602469,0,0,1.0417648,3009.7712,-874.94366)" />
    <polyline
       class="StaffLines"
       fill="none"
       stroke="#000000"
       stroke-width="2.73"
       stroke-linejoin="bevel"
       points="336.598,683.798 2847.4,683.798"
       id="polyline139"
       transform="matrix(0.04602469,0,0,1.0417648,3009.7712,-874.94366)" />
    <polyline
       class="StaffLines"
       fill="none"
       stroke="#000000"
       stroke-width="2.73"
       stroke-linejoin="bevel"
       points="336.598,708.598 2847.4,708.598"
       id="polyline140"
       transform="matrix(0.04602469,0,0,1.0417648,3009.7712,-874.94366)" />
    <polyline
       class="StaffLines"
       fill="none"
       stroke="#000000"
       stroke-width="2.73"
       stroke-linejoin="bevel"
       points="336.598,733.398 2847.4,733.398"
       id="polyline141"
       transform="matrix(0.04602469,0,0,1.0417648,3009.7712,-874.94366)" />
    <polyline
       class="StaffLines"
       fill="none"
       stroke="#000000"
       stroke-width="2.73"
       stroke-linejoin="bevel"
       points="336.598,634.198 2847.4,634.198"
       id="polyline142"
       transform="matrix(0.05250038,0,0,1.0417648,3287.5915,-874.94366)" />
    <polyline
       class="StaffLines"
       fill="none"
       stroke="#000000"
       stroke-width="2.73"
       stroke-linejoin="bevel"
       points="336.598,658.998 2847.4,658.998"
       id="polyline143"
       transform="matrix(0.05250038,0,0,1.0417648,3287.5915,-874.94366)" />
    <polyline
       class="StaffLines"
       fill="none"
       stroke="#000000"
       stroke-width="2.73"
       stroke-linejoin="bevel"
       points="336.598,683.798 2847.4,683.798"
       id="polyline144"
       transform="matrix(0.05250038,0,0,1.0417648,3287.5915,-874.94366)" />
    <polyline
       class="StaffLines"
       fill="none"
       stroke="#000000"
       stroke-width="2.73"
       stroke-linejoin="bevel"
       points="336.598,708.598 2847.4,708.598"
       id="polyline145"
       transform="matrix(0.05250038,0,0,1.0417648,3287.5915,-874.94366)" />
    <polyline
       class="StaffLines"
       fill="none"
       stroke="#000000"
       stroke-width="2.73"
       stroke-linejoin="bevel"
       points="336.598,733.398 2847.4,733.398"
       id="polyline146"
       transform="matrix(0.05250038,0,0,1.0417648,3287.5915,-874.94366)" />
    <polyline
       class="StaffLines"
       fill="none"
       stroke="#000000"
       stroke-width="2.73"
       stroke-linejoin="bevel"
       points="336.598,634.198 2847.4,634.198"
       id="polyline147"
       transform="matrix(0.05250038,0,0,1.0417648,3287.5915,-874.94366)" />
    <polyline
       class="StaffLines"
       fill="none"
       stroke="#000000"
       stroke-width="2.73"
       stroke-linejoin="bevel"
       points="336.598,658.998 2847.4,658.998"
       id="polyline148"
       transform="matrix(0.05250038,0,0,1.0417648,3287.5915,-874.94366)" />
    <polyline
       class="StaffLines"
       fill="none"
       stroke="#000000"
       stroke-width="2.73"
       stroke-linejoin="bevel"
       points="336.598,683.798 2847.4,683.798"
       id="polyline149"
       transform="matrix(0.05250038,0,0,1.0417648,3287.5915,-874.94366)" />
    <polyline
       class="StaffLines"
       fill="none"
       stroke="#000000"
       stroke-width="2.73"
       stroke-linejoin="bevel"
       points="336.598,708.598 2847.4,708.598"
       id="polyline150"
       transform="matrix(0.05250038,0,0,1.0417648,3287.5915,-874.94366)" />
    <polyline
       class="StaffLines"
       fill="none"
       stroke="#000000"
       stroke-width="2.73"
       stroke-linejoin="bevel"
       points="336.598,733.398 2847.4,733.398"
       id="polyline151"
       transform="matrix(0.05250038,0,0,1.0417648,3287.5915,-874.94366)" />
    <polyline
       class="StaffLines"
       fill="none"
       stroke="#000000"
       stroke-width="2.73"
       stroke-linejoin="bevel"
       points="336.598,634.198 2847.4,634.198"
       id="polyline152"
       transform="matrix(0.0659746,0,0,1.0417648,3561.0561,-874.94366)" />
    <polyline
       class="StaffLines"
       fill="none"
       stroke="#000000"
       stroke-width="2.73"
       stroke-linejoin="bevel"
       points="336.598,658.998 2847.4,658.998"
       id="polyline153"
       transform="matrix(0.0659746,0,0,1.0417648,3561.0561,-874.94366)" />
    <polyline
       class="StaffLines"
       fill="none"
       stroke="#000000"
       stroke-width="2.73"
       stroke-linejoin="bevel"
       points="336.598,683.798 2847.4,683.798"
       id="polyline154"
       transform="matrix(0.0659746,0,0,1.0417648,3561.0561,-874.94366)" />
    <polyline
       class="StaffLines"
       fill="none"
       stroke="#000000"
       stroke-width="2.73"
       stroke-linejoin="bevel"
       points="336.598,708.598 2847.4,708.598"
       id="polyline155"
       transform="matrix(0.0659746,0,0,1.0417648,3561.0561,-874.94366)" />
    <polyline
       class="StaffLines"
       fill="none"
       stroke="#000000"
       stroke-width="2.73"
       stroke-linejoin="bevel"
       points="336.598,733.398 2847.4,733.398"
       id="polyline156"
       transform="matrix(0.0659746,0,0,1.0417648,3561.0561,-874.94366)" />
    <polyline
       class="StaffLines"
       fill="none"
       stroke="#000000"
       stroke-width="2.73"
       stroke-linejoin="bevel"
       points="336.598,634.198 2847.4,634.198"
       id="polyline157"
       transform="matrix(0.0659746,0,0,1.0417648,3561.0561,-874.94366)" />
    <polyline
       class="StaffLines"
       fill="none"
       stroke="#000000"
       stroke-width="2.73"
       stroke-linejoin="bevel"
       points="336.598,658.998 2847.4,658.998"
       id="polyline158"
       transform="matrix(0.0659746,0,0,1.0417648,3561.0561,-874.94366)" />
    <polyline
       class="StaffLines"
       fill="none"
       stroke="#000000"
       stroke-width="2.73"
       stroke-linejoin="bevel"
       points="336.598,683.798 2847.4,683.798"
       id="polyline159"
       transform="matrix(0.0659746,0,0,1.0417648,3561.0561,-874.94366)" />
    <polyline
       class="StaffLines"
       fill="none"
       stroke="#000000"
       stroke-width="2.73"
       stroke-linejoin="bevel"
       points="336.598,708.598 2847.4,708.598"
       id="polyline160"
       transform="matrix(0.0659746,0,0,1.0417648,3561.0561,-874.94366)" />
    <polyline
       class="StaffLines"
       fill="none"
       stroke="#000000"
       stroke-width="2.73"
       stroke-linejoin="bevel"
       points="336.598,733.398 2847.4,733.398"
       id="polyline161"
       transform="matrix(0.0659746,0,0,1.0417648,3561.0561,-874.94366)" />
    <polyline
       class="StaffLines"
       fill="none"
       stroke="#000000"
       stroke-width="2.73"
       stroke-linejoin="bevel"
       points="336.598,634.198 2847.4,634.198"
       id="polyline162"
       transform="matrix(0.0711258,0,0,1.0417648,3863.3223,-874.94366)" />
    <polyline
       class="StaffLines"
       fill="none"
       stroke="#000000"
       stroke-width="2.73"
       stroke-linejoin="bevel"
       points="336.598,658.998 2847.4,658.998"
       id="polyline163"
       transform="matrix(0.0711258,0,0,1.0417648,3863.3223,-874.94366)" />
    <polyline
       class="StaffLines"
       fill="none"
       stroke="#000000"
       stroke-width="2.73"
       stroke-linejoin="bevel"
       points="336.598,683.798 2847.4,683.798"
       id="polyline164"
       transform="matrix(0.0711258,0,0,1.0417648,3863.3223,-874.94366)" />
    <polyline
       class="StaffLines"
       fill="none"
       stroke="#000000"
       stroke-width="2.73"
       stroke-linejoin="bevel"
       points="336.598,708.598 2847.4,708.598"
       id="polyline165"
       transform="matrix(0.0711258,0,0,1.0417648,3863.3223,-874.94366)" />
    <polyline
       class="StaffLines"
       fill="none"
       stroke="#000000"
       stroke-width="2.73"
       stroke-linejoin="bevel"
       points="336.598,733.398 2847.4,733.398"
       id="polyline166"
       transform="matrix(0.0711258,0,0,1.0417648,3863.3223,-874.94366)" />
    <polyline
       class="StaffLines"
       fill="none"
       stroke="#000000"
       stroke-width="2.73"
       stroke-linejoin="bevel"
       points="336.598,634.198 2847.4,634.198"
       id="polyline167"
       transform="matrix(0.0711258,0,0,1.0417648,3863.3223,-874.94366)" />
    <polyline
       class="StaffLines"
       fill="none"
       stroke="#000000"
       stroke-width="2.73"
       stroke-linejoin="bevel"
       points="336.598,658.998 2847.4,658.998"
       id="polyline168"
       transform="matrix(0.0711258,0,0,1.0417648,3863.3223,-874.94366)" />
    <polyline
       class="StaffLines"
       fill="none"
       stroke="#000000"
       stroke-width="2.73"
       stroke-linejoin="bevel"
       points="336.598,683.798 2847.4,683.798"
       id="polyline169"
       transform="matrix(0.0711258,0,0,1.0417648,3863.3223,-874.94366)" />
    <polyline
       class="StaffLines"
       fill="none"
       stroke="#000000"
       stroke-width="2.73"
       stroke-linejoin="bevel"
       points="336.598,708.598 2847.4,708.598"
       id="polyline170"
       transform="matrix(0.0711258,0,0,1.0417648,3863.3223,-874.94366)" />
    <polyline
       class="StaffLines"
       fill="none"
       stroke="#000000"
       stroke-width="2.73"
       stroke-linejoin="bevel"
       points="336.598,733.398 2847.4,733.398"
       id="polyline171"
       transform="matrix(0.0711258,0,0,1.0417648,3863.3223,-874.94366)" />
    <polyline
       class="StaffLines"
       fill="none"
       stroke="#000000"
       stroke-width="2.73"
       stroke-linejoin="bevel"
       points="336.598,634.198 2847.4,634.198"
       id="polyline172"
       transform="matrix(0.08213926,0,0,1.0417648,4149.6151,-874.94366)" />
    <polyline
       class="StaffLines"
       fill="none"
       stroke="#000000"
       stroke-width="2.73"
       stroke-linejoin="bevel"
       points="336.598,658.998 2847.4,658.998"
       id="polyline173"
       transform="matrix(0.08213926,0,0,1.0417648,4149.6151,-874.94366)" />
    <polyline
       class="StaffLines"
       fill="none"
       stroke="#000000"
       stroke-width="2.73"
       stroke-linejoin="bevel"
       points="336.598,683.798 2847.4,683.798"
       id="polyline174"
       transform="matrix(0.08213926,0,0,1.0417648,4149.6151,-874.94366)" />
    <polyline
       class="StaffLines"
       fill="none"
       stroke="#000000"
       stroke-width="2.73"
       stroke-linejoin="bevel"
       points="336.598,708.598 2847.4,708.598"
       id="polyline175"
       transform="matrix(0.08213926,0,0,1.0417648,4149.6151,-874.94366)" />
    <polyline
       class="StaffLines"
       fill="none"
       stroke="#000000"
       stroke-width="2.73"
       stroke-linejoin="bevel"
       points="336.598,733.398 2847.4,733.398"
       id="polyline176"
       transform="matrix(0.08213926,0,0,1.0417648,4149.6151,-874.94366)" />
    <polyline
       class="StaffLines"
       fill="none"
       stroke="#000000"
       stroke-width="2.73"
       stroke-linejoin="bevel"
       points="336.598,634.198 2847.4,634.198"
       id="polyline177"
       transform="matrix(0.08213926,0,0,1.0417648,4149.6151,-874.94366)" />
    <polyline
       class="StaffLines"
       fill="none"
       stroke="#000000"
       stroke-width="2.73"
       stroke-linejoin="bevel"
       points="336.598,658.998 2847.4,658.998"
       id="polyline178"
       transform="matrix(0.08213926,0,0,1.0417648,4149.6151,-874.94366)" />
    <polyline
       class="StaffLines"
       fill="none"
       stroke="#000000"
       stroke-width="2.73"
       stroke-linejoin="bevel"
       points="336.598,683.798 2847.4,683.798"
       id="polyline179"
       transform="matrix(0.08213926,0,0,1.0417648,4149.6151,-874.94366)" />
    <polyline
       class="StaffLines"
       fill="none"
       stroke="#000000"
       stroke-width="2.73"
       stroke-linejoin="bevel"
       points="336.598,708.598 2847.4,708.598"
       id="polyline180"
       transform="matrix(0.08213926,0,0,1.0417648,4149.6151,-874.94366)" />
    <polyline
       class="StaffLines"
       fill="none"
       stroke="#000000"
       stroke-width="2.73"
       stroke-linejoin="bevel"
       points="336.598,733.398 2847.4,733.398"
       id="polyline181"
       transform="matrix(0.08213926,0,0,1.0417648,4149.6151,-874.94366)" />
  </g>
</svg>
