<?xml version="1.0" encoding="UTF-8" standalone="no"?>
<svg
   width="56.933628"
   height="214.34"
   viewBox="0 0 56.933632 214.34001"
   version="1.2"
   id="svg117"
   sodipodi:docname="clefs-and-keys.svg"
   inkscape:version="1.3.2 (091e20e, 2023-11-25, custom)"
   xmlns:inkscape="http://www.inkscape.org/namespaces/inkscape"
   xmlns:sodipodi="http://sodipodi.sourceforge.net/DTD/sodipodi-0.dtd"
   xmlns="http://www.w3.org/2000/svg"
   xmlns:svg="http://www.w3.org/2000/svg"
   xmlns:rdf="http://www.w3.org/1999/02/22-rdf-syntax-ns#"
   xmlns:cc="http://creativecommons.org/ns#"
   xmlns:dc="http://purl.org/dc/elements/1.1/">
  <defs
     id="defs117" />
  <sodipodi:namedview
     id="namedview117"
     pagecolor="#ffffff"
     bordercolor="#000000"
     borderopacity="0.25"
     inkscape:showpageshadow="2"
     inkscape:pageopacity="0.0"
     inkscape:pagecheckerboard="0"
     inkscape:deskcolor="#d1d1d1"
     inkscape:zoom="0.55647799"
     inkscape:cx="1869.7954"
     inkscape:cy="610.08702"
     inkscape:window-width="2560"
     inkscape:window-height="1009"
     inkscape:window-x="-8"
     inkscape:window-y="-8"
     inkscape:window-maximized="1"
     inkscape:current-layer="svg117"
     showguides="true"
     showgrid="false">
    <inkscape:page
       x="1.5823482e-06"
       y="-3.4451066e-06"
       width="56.933632"
       height="214.34001"
       id="page530"
       margin="0"
       bleed="0" />
  </sodipodi:namedview>
  <title
     id="title1">Unbenannte Partitur</title>
  <desc
     id="desc1">Generated by MuseScore Studio 4.3.2</desc>
  <metadata
     id="metadata121">
    <rdf:RDF>
      <cc:Work
         rdf:about="">
        <dc:title>Unbenannte Partitur</dc:title>
      </cc:Work>
    </rdf:RDF>
  </metadata>
  <path
     class="KeySig"
     d="m 38.869045,47.176011 c 0.62042,-0.0969 1.12947,-0.82355 1.12947,-1.45331 v -6.08753 c 0,-1.03344 -0.71591,-1.45322 -1.63849,-1.45322 l -3.35649,0.72662 v -15.40465 h -2.84745 v 16.01818 l -9.06721,1.8731 v -14.581 h -2.8474 v 15.19465 l -3.97686,0.82355 c -0.60449,0.11295 -1.11352,0.82342 -1.11352,1.4532 v 5.99071 c 0,1.13029 0.81128,1.45325 1.73391,1.45325 l 3.35647,-0.72663 v 17.0516 l -3.97686,0.8235 c -0.60449,0.0969 -1.11352,0.82355 -1.11352,1.45332 v 5.99061 c 0,1.13036 0.81128,1.43718 1.73391,1.43718 l 3.35647,-0.71046 v 15.38838 h 2.8474 v -16.01817 l 9.06721,-1.85698 v 14.58109 h 2.84745 v -15.19463 l 3.86551,-0.72671 c 0.62042,-0.11295 1.12947,-0.82344 1.12947,-1.45322 v -6.08758 c 0,-1.03342 -0.71591,-1.45325 -1.63849,-1.45325 l -3.35649,0.72662 v -17.05159 l 3.86551,-0.72663 m -15.78017,3.19717 9.06721,-1.85694 v 17.0516 l -9.06721,1.96998 v -17.16464"
     id="path338"
     style="stroke-width:1.02572" />
  <g
     id="g529"
     transform="translate(-827.26297,261.75018)">
    <polyline
       class="StaffLines"
       fill="none"
       stroke="#000000"
       stroke-width="2.73"
       stroke-linejoin="bevel"
       points="336.598,634.198 2847.4,634.198"
       id="polyline520"
       transform="matrix(0.02267547,0,0,1.0417648,819.63045,-874.94366)" />
    <polyline
       class="StaffLines"
       fill="none"
       stroke="#000000"
       stroke-width="2.73"
       stroke-linejoin="bevel"
       points="336.598,658.998 2847.4,658.998"
       id="polyline521"
       transform="matrix(0.02267547,0,0,1.0417648,819.63045,-874.94366)" />
    <polyline
       class="StaffLines"
       fill="none"
       stroke="#000000"
       stroke-width="2.73"
       stroke-linejoin="bevel"
       points="336.598,683.798 2847.4,683.798"
       id="polyline522"
       transform="matrix(0.02267547,0,0,1.0417648,819.63045,-874.94366)" />
    <polyline
       class="StaffLines"
       fill="none"
       stroke="#000000"
       stroke-width="2.73"
       stroke-linejoin="bevel"
       points="336.598,708.598 2847.4,708.598"
       id="polyline523"
       transform="matrix(0.02267547,0,0,1.0417648,819.63045,-874.94366)" />
    <polyline
       class="StaffLines"
       fill="none"
       stroke="#000000"
       stroke-width="2.73"
       stroke-linejoin="bevel"
       points="336.598,733.398 2847.4,733.398"
       id="polyline524"
       transform="matrix(0.02267547,0,0,1.0417648,819.63045,-874.94366)" />
    <polyline
       class="StaffLines"
       fill="none"
       stroke="#000000"
       stroke-width="2.73"
       stroke-linejoin="bevel"
       points="336.598,634.198 2847.4,634.198"
       id="polyline525"
       transform="matrix(0.02267547,0,0,1.0417648,819.63045,-874.94366)" />
    <polyline
       class="StaffLines"
       fill="none"
       stroke="#000000"
       stroke-width="2.73"
       stroke-linejoin="bevel"
       points="336.598,658.998 2847.4,658.998"
       id="polyline526"
       transform="matrix(0.02267547,0,0,1.0417648,819.63045,-874.94366)" />
    <polyline
       class="StaffLines"
       fill="none"
       stroke="#000000"
       stroke-width="2.73"
       stroke-linejoin="bevel"
       points="336.598,683.798 2847.4,683.798"
       id="polyline527"
       transform="matrix(0.02267547,0,0,1.0417648,819.63045,-874.94366)" />
    <polyline
       class="StaffLines"
       fill="none"
       stroke="#000000"
       stroke-width="2.73"
       stroke-linejoin="bevel"
       points="336.598,708.598 2847.4,708.598"
       id="polyline528"
       transform="matrix(0.02267547,0,0,1.0417648,819.63045,-874.94366)" />
    <polyline
       class="StaffLines"
       fill="none"
       stroke="#000000"
       stroke-width="2.73"
       stroke-linejoin="bevel"
       points="336.598,733.398 2847.4,733.398"
       id="polyline529"
       transform="matrix(0.02267547,0,0,1.0417648,819.63045,-874.94366)" />
  </g>
</svg>
