<?xml version="1.0" encoding="UTF-8" standalone="no"?>
<svg
   width="101.80038"
   height="214.34"
   viewBox="0 0 101.80039 214.34001"
   version="1.2"
   id="svg117"
   sodipodi:docname="clefs-and-keys.svg"
   inkscape:version="1.3.2 (091e20e, 2023-11-25, custom)"
   xmlns:inkscape="http://www.inkscape.org/namespaces/inkscape"
   xmlns:sodipodi="http://sodipodi.sourceforge.net/DTD/sodipodi-0.dtd"
   xmlns="http://www.w3.org/2000/svg"
   xmlns:svg="http://www.w3.org/2000/svg"
   xmlns:rdf="http://www.w3.org/1999/02/22-rdf-syntax-ns#"
   xmlns:cc="http://creativecommons.org/ns#"
   xmlns:dc="http://purl.org/dc/elements/1.1/">
  <defs
     id="defs117" />
  <sodipodi:namedview
     id="namedview117"
     pagecolor="#ffffff"
     bordercolor="#000000"
     borderopacity="0.25"
     inkscape:showpageshadow="2"
     inkscape:pageopacity="0.0"
     inkscape:pagecheckerboard="0"
     inkscape:deskcolor="#d1d1d1"
     inkscape:zoom="0.32"
     inkscape:cx="2820.3125"
     inkscape:cy="-260.9375"
     inkscape:window-width="1280"
     inkscape:window-height="953"
     inkscape:window-x="2552"
     inkscape:window-y="-8"
     inkscape:window-maximized="1"
     inkscape:current-layer="svg117"
     showguides="true"
     showgrid="false">
    <inkscape:page
       x="-3.2546592e-05"
       y="-1.6343829e-06"
       width="101.80039"
       height="214.34001"
       id="page322"
       margin="0"
       bleed="0" />
  </sodipodi:namedview>
  <title
     id="title1">Unbenannte Partitur</title>
  <desc
     id="desc1">Generated by MuseScore Studio 4.3.2</desc>
  <metadata
     id="metadata121">
    <rdf:RDF>
      <cc:Work
         rdf:about="">
        <dc:title>Unbenannte Partitur</dc:title>
      </cc:Work>
    </rdf:RDF>
  </metadata>
  <path
     class="KeySig"
     d="m 44.538156,63.176032 c 0.6204,-0.0969 1.1295,-0.82355 1.1295,-1.45331 v -6.08753 c 0,-1.03344 -0.7159,-1.45322 -1.6385,-1.45322 l -3.3565,0.72662 v -15.40465 h -2.8474 v 16.01818 l -9.0672,1.8731 v -14.581 h -2.8474 v 15.19465 l -3.9769,0.82355 c -0.6045,0.11295 -1.1135,0.82342 -1.1135,1.4532 v 5.99071 c 0,1.13029 0.8113,1.45325 1.7339,1.45325 l 3.3565,-0.72663 v 17.0516 l -3.9769,0.8235 c -0.6045,0.0969 -1.1135,0.82355 -1.1135,1.45332 v 5.9906 c 0,1.13036 0.8113,1.43718 1.7339,1.43718 l 3.3565,-0.71046 v 15.388388 h 2.8474 V 92.418902 l 9.0672,-1.85697 v 14.581088 h 2.8474 V 89.948392 l 3.8655,-0.72671 c 0.6204,-0.11295 1.1295,-0.82344 1.1295,-1.45322 v -6.08758 c 0,-1.03342 -0.7159,-1.45325 -1.6385,-1.45325 l -3.3565,0.72662 v -17.05159 l 3.8655,-0.72663 m -15.7801,3.19717 9.0672,-1.85694 v 17.0516 l -9.0672,1.96998 v -17.16464"
     id="path82"
     style="stroke-width:1.02572" />
  <path
     class="KeySig"
     d="m 72.423356,101.92966 c 0.6204,-0.097 1.1294,-0.82353 1.1294,-1.4533 v -6.087528 c 0,-1.03342 -0.7158,-1.45321 -1.6385,-1.45321 l -3.3564,0.72661 v -15.40462 h -2.8474 v 16.01816 l -9.0672,1.8731 v -14.58098 h -2.8475 v 15.19464 l -3.9768,0.82353 c -0.6045,0.11296 -1.1135,0.82344 -1.1135,1.45322 v 5.990688 c 0,1.13032 0.8112,1.45326 1.7339,1.45326 l 3.3564,-0.72663 v 17.0516 l -3.9768,0.82351 c -0.6045,0.097 -1.1135,0.82354 -1.1135,1.45333 v 5.9906 c 0,1.13035 0.8112,1.43719 1.7339,1.43719 l 3.3564,-0.71051 v 15.38841 h 2.8475 v -16.01817 l 9.0672,-1.85698 v 14.58109 h 2.8474 v -15.19462 l 3.8655,-0.72671 c 0.6204,-0.11296 1.1294,-0.82343 1.1294,-1.45323 v -6.08758 c 0,-1.03342 -0.7158,-1.45326 -1.6385,-1.45326 l -3.3564,0.72664 V 102.6563 l 3.8655,-0.72664 m -15.7801,3.19718 9.0672,-1.85694 v 17.05162 l -9.0672,1.96998 v -17.16465"
     id="path83"
     style="stroke-width:1.02572" />
  <polyline
     class="StaffLines"
     fill="none"
     stroke="#000000"
     stroke-width="2.73"
     stroke-linejoin="bevel"
     points="336.598,634.198 2847.4,634.198"
     id="polyline182"
     transform="matrix(0.03805572,0,0,1.0417648,-12.809444,-613.19346)" />
  <polyline
     class="StaffLines"
     fill="none"
     stroke="#000000"
     stroke-width="2.73"
     stroke-linejoin="bevel"
     points="336.598,658.998 2847.4,658.998"
     id="polyline183"
     transform="matrix(0.03805572,0,0,1.0417648,-12.809444,-613.19346)" />
  <polyline
     class="StaffLines"
     fill="none"
     stroke="#000000"
     stroke-width="2.73"
     stroke-linejoin="bevel"
     points="336.598,683.798 2847.4,683.798"
     id="polyline184"
     transform="matrix(0.03805572,0,0,1.0417648,-12.809444,-613.19346)" />
  <polyline
     class="StaffLines"
     fill="none"
     stroke="#000000"
     stroke-width="2.73"
     stroke-linejoin="bevel"
     points="336.598,708.598 2847.4,708.598"
     id="polyline185"
     transform="matrix(0.03805572,0,0,1.0417648,-12.809444,-613.19346)" />
  <polyline
     class="StaffLines"
     fill="none"
     stroke="#000000"
     stroke-width="2.73"
     stroke-linejoin="bevel"
     points="336.598,733.398 2847.4,733.398"
     id="polyline186"
     transform="matrix(0.03805572,0,0,1.0417648,-12.809444,-613.19346)" />
  <polyline
     class="StaffLines"
     fill="none"
     stroke="#000000"
     stroke-width="2.73"
     stroke-linejoin="bevel"
     points="336.598,634.198 2847.4,634.198"
     id="polyline187"
     transform="matrix(0.03805572,0,0,1.0417648,-12.809444,-613.19346)" />
  <polyline
     class="StaffLines"
     fill="none"
     stroke="#000000"
     stroke-width="2.73"
     stroke-linejoin="bevel"
     points="336.598,658.998 2847.4,658.998"
     id="polyline188"
     transform="matrix(0.03805572,0,0,1.0417648,-12.809444,-613.19346)" />
  <polyline
     class="StaffLines"
     fill="none"
     stroke="#000000"
     stroke-width="2.73"
     stroke-linejoin="bevel"
     points="336.598,683.798 2847.4,683.798"
     id="polyline189"
     transform="matrix(0.03805572,0,0,1.0417648,-12.809444,-613.19346)" />
  <polyline
     class="StaffLines"
     fill="none"
     stroke="#000000"
     stroke-width="2.73"
     stroke-linejoin="bevel"
     points="336.598,708.598 2847.4,708.598"
     id="polyline190"
     transform="matrix(0.03805572,0,0,1.0417648,-12.809444,-613.19346)" />
  <polyline
     class="StaffLines"
     fill="none"
     stroke="#000000"
     stroke-width="2.73"
     stroke-linejoin="bevel"
     points="336.598,733.398 2847.4,733.398"
     id="polyline191"
     transform="matrix(0.03805572,0,0,1.0417648,-12.809444,-613.19346)" />
</svg>
