<?xml version="1.0" encoding="UTF-8" standalone="no"?>
<svg
   width="206.03297"
   height="214.34"
   viewBox="0 0 206.03299 214.34001"
   version="1.2"
   id="svg117"
   sodipodi:docname="clefs-and-keys.svg"
   inkscape:version="1.3.2 (091e20e, 2023-11-25, custom)"
   xmlns:inkscape="http://www.inkscape.org/namespaces/inkscape"
   xmlns:sodipodi="http://sodipodi.sourceforge.net/DTD/sodipodi-0.dtd"
   xmlns="http://www.w3.org/2000/svg"
   xmlns:svg="http://www.w3.org/2000/svg"
   xmlns:rdf="http://www.w3.org/1999/02/22-rdf-syntax-ns#"
   xmlns:cc="http://creativecommons.org/ns#"
   xmlns:dc="http://purl.org/dc/elements/1.1/">
  <defs
     id="defs117" />
  <sodipodi:namedview
     id="namedview117"
     pagecolor="#ffffff"
     bordercolor="#000000"
     borderopacity="0.25"
     inkscape:showpageshadow="2"
     inkscape:pageopacity="0.0"
     inkscape:pagecheckerboard="0"
     inkscape:deskcolor="#d1d1d1"
     inkscape:zoom="0.55647799"
     inkscape:cx="1869.7954"
     inkscape:cy="610.08702"
     inkscape:window-width="2560"
     inkscape:window-height="1009"
     inkscape:window-x="-8"
     inkscape:window-y="-8"
     inkscape:window-maximized="1"
     inkscape:current-layer="svg117"
     showguides="true"
     showgrid="false">
    <inkscape:page
       x="-8.1479684e-06"
       y="-3.4451066e-06"
       width="206.03299"
       height="214.34001"
       id="page536"
       margin="0"
       bleed="0" />
  </sodipodi:namedview>
  <title
     id="title1">Unbenannte Partitur</title>
  <desc
     id="desc1">Generated by MuseScore Studio 4.3.2</desc>
  <metadata
     id="metadata121">
    <rdf:RDF>
      <cc:Work
         rdf:about="">
        <dc:title>Unbenannte Partitur</dc:title>
      </cc:Work>
    </rdf:RDF>
  </metadata>
  <path
     class="KeySig"
     d="m 30.877493,47.176011 c 0.6204,-0.0969 1.1295,-0.82355 1.1295,-1.45331 v -6.08753 c 0,-1.03344 -0.716,-1.45322 -1.6386,-1.45322 l -3.3565,0.72662 v -15.40465 h -2.8473 v 16.01818 l -9.0673,1.8731 v -14.581 h -2.8474 v 15.19465 l -3.977,0.82355 c -0.6043,0.11295 -1.1134,0.82342 -1.1134,1.4532 v 5.99071 c 0,1.13029 0.8113,1.45325 1.734,1.45325 l 3.3564,-0.72663 v 17.0516 l -3.977,0.8235 c -0.6043,0.0969 -1.1134,0.82355 -1.1134,1.45332 v 5.99061 c 0,1.13036 0.8113,1.43718 1.734,1.43718 l 3.3564,-0.71046 v 15.38838 h 2.8474 v -16.01817 l 9.0673,-1.85698 v 14.58109 h 2.8473 v -15.19463 l 3.8656,-0.72671 c 0.6204,-0.11295 1.1295,-0.82344 1.1295,-1.45322 v -6.08758 c 0,-1.03342 -0.716,-1.45325 -1.6386,-1.45325 l -3.3565,0.72662 v -17.05159 l 3.8656,-0.72663 m -15.7802,3.19717 9.0673,-1.85694 v 17.0516 l -9.0673,1.96998 v -17.16464"
     id="path349"
     style="stroke-width:1.02572" />
  <path
     class="KeySig"
     d="m 58.761693,85.929641 c 0.6202,-0.097 1.1293,-0.82353 1.1293,-1.4533 v -6.08753 c 0,-1.03342 -0.7158,-1.45321 -1.6385,-1.45321 l -3.3564,0.72661 v -15.40462 h -2.8474 v 16.01816 l -9.0673,1.8731 v -14.58098 h -2.8474 v 15.19464 l -3.9767,0.82353 c -0.6046,0.11296 -1.1136,0.82344 -1.1136,1.45322 v 5.99069 c 0,1.13032 0.8112,1.45326 1.7339,1.45326 l 3.3564,-0.72663 v 17.051599 l -3.9767,0.82351 c -0.6046,0.097 -1.1136,0.82354 -1.1136,1.45333 v 5.9906 c 0,1.13035 0.8112,1.43719 1.7339,1.43719 l 3.3564,-0.71051 v 15.38841 h 2.8474 v -16.01817 l 9.0673,-1.85698 v 14.58109 h 2.8474 v -15.19462 l 3.8656,-0.72671 c 0.6202,-0.11296 1.1293,-0.82343 1.1293,-1.45323 v -6.08758 c 0,-1.03342 -0.7158,-1.45326 -1.6385,-1.45326 l -3.3564,0.72664 V 86.656291 l 3.8656,-0.72664 m -15.7803,3.19718 9.0673,-1.85695 v 17.051609 l -9.0673,1.96998 V 89.126831"
     id="path350"
     style="stroke-width:1.02572" />
  <path
     class="KeySig"
     d="m 86.655893,34.258111 c 0.6205,-0.0969 1.1295,-0.82354 1.1295,-1.45331 v -6.08752 c 0,-1.03343 -0.7158,-1.45322 -1.6385,-1.45322 l -3.3565,0.72661 v -15.40462 h -2.8474 v 16.01815 l -9.0673,1.8731 v -14.58097 h -2.8474 v 15.19461 l -3.9767,0.82355 c -0.6045,0.11296 -1.1136,0.82344 -1.1136,1.45322 v 5.9907 c 0,1.13032 0.8113,1.45326 1.734,1.45326 l 3.3563,-0.72663 v 17.0516 l -3.9767,0.82352 c -0.6045,0.0969 -1.1136,0.82355 -1.1136,1.45331 v 5.99059 c 0,1.13036 0.8113,1.43719 1.734,1.43719 l 3.3563,-0.71048 v 15.3884 h 2.8474 v -16.01818 l 9.0673,-1.85696 v 14.58109 h 2.8474 v -15.19464 l 3.8655,-0.72671 c 0.6205,-0.11295 1.1295,-0.82345 1.1295,-1.45323 v -6.08754 c 0,-1.03344 -0.7158,-1.45328 -1.6385,-1.45328 l -3.3565,0.72664 v -17.05162 l 3.8655,-0.72664 m -15.7802,3.19719 9.0673,-1.85696 v 17.05163 l -9.0673,1.96997 v -17.16464"
     id="path351"
     style="stroke-width:1.02572" />
  <path
     class="KeySig"
     d="m 114.51969,73.011781 c 0.6203,-0.097 1.1295,-0.82355 1.1295,-1.45333 v -6.08753 c 0,-1.03342 -0.716,-1.45321 -1.6386,-1.45321 l -3.3566,0.72661 v -15.40463 h -2.8472 v 16.01817 l -9.067297,1.87309 v -14.58097 h -2.8475 v 15.19463 l -3.9768,0.82353 c -0.6046,0.11296 -1.1134,0.82346 -1.1134,1.45324 v 5.99069 c 0,1.1303 0.8113,1.45326 1.7338,1.45326 l 3.3564,-0.72663 v 17.05161 l -3.9768,0.82352 c -0.6046,0.0969 -1.1134,0.82352 -1.1134,1.4533 v 5.990589 c 0,1.13035 0.8113,1.43718 1.7338,1.43718 l 3.3564,-0.71049 v 15.38843 h 2.8475 v -16.0182 l 9.067297,-1.85695 v 14.58109 h 2.8472 V 99.784141 l 3.8657,-0.72671 c 0.6203,-0.11296 1.1295,-0.82344 1.1295,-1.45323 v -6.08757 c 0,-1.03343 -0.716,-1.45327 -1.6386,-1.45327 l -3.3566,0.72665 v -17.05162 l 3.8657,-0.72661 m -15.780197,3.19717 9.067297,-1.85695 v 17.0516 l -9.067297,1.96999 v -17.16464"
     id="path352"
     style="stroke-width:1.02572" />
  <path
     class="KeySig"
     d="m 142.42419,111.76542 c 0.6205,-0.0969 1.1294,-0.82353 1.1294,-1.45332 v -6.08751 c 0,-1.03343 -0.7159,-1.45323 -1.6384,-1.45323 l -3.3564,0.7266 V 88.093331 h -2.8474 v 16.018199 l -9.0673,1.87308 V 91.403611 h -2.8474 v 15.194649 l -3.9769,0.82354 c -0.6045,0.11297 -1.1136,0.82345 -1.1136,1.45322 v 5.99069 c 0,1.13031 0.8113,1.45326 1.734,1.45326 l 3.3565,-0.72662 v 17.05161 l -3.9769,0.82351 c -0.6045,0.097 -1.1136,0.82354 -1.1136,1.45332 v 5.9906 c 0,1.13034 0.8113,1.43718 1.734,1.43718 l 3.3565,-0.71048 v 15.38839 h 2.8474 v -16.01817 l 9.0673,-1.85696 v 14.58106 h 2.8474 v -15.19462 l 3.8654,-0.72669 c 0.6205,-0.11299 1.1294,-0.82345 1.1294,-1.45323 v -6.08757 c 0,-1.03344 -0.7159,-1.45327 -1.6384,-1.45327 l -3.3564,0.72663 v -17.0516 l 3.8654,-0.72664 m -15.7801,3.19719 9.0673,-1.85695 v 17.05162 l -9.0673,1.96996 v -17.16463"
     id="path353"
     style="stroke-width:1.02572" />
  <path
     class="KeySig"
     d="m 170.30849,60.093901 c 0.6203,-0.097 1.1293,-0.82355 1.1293,-1.45332 v -6.08752 c 0,-1.03344 -0.7159,-1.45323 -1.6384,-1.45323 l -3.3565,0.72661 v -15.40463 h -2.8474 v 16.01818 l -9.0673,1.87309 v -14.58098 h -2.8474 v 15.19463 l -3.9768,0.82354 c -0.6045,0.11295 -1.1136,0.82345 -1.1136,1.45323 v 5.99066 c 0,1.13034 0.8114,1.45329 1.734,1.45329 l 3.3564,-0.72664 v 17.05162 l -3.9768,0.82349 c -0.6045,0.0969 -1.1136,0.82354 -1.1136,1.45332 v 5.9906 c 0,1.13037 0.8114,1.43719 1.734,1.43719 l 3.3564,-0.71049 v 15.388409 h 2.8474 V 89.336751 l 9.0673,-1.85696 v 14.581079 h 2.8474 V 86.866251 l 3.8656,-0.72672 c 0.6203,-0.11293 1.1293,-0.82343 1.1293,-1.45319 v -6.08759 c 0,-1.03342 -0.7159,-1.45326 -1.6384,-1.45326 l -3.3565,0.72662 v -17.0516 l 3.8656,-0.72661 m -15.7803,3.19717 9.0673,-1.85695 v 17.05161 l -9.0673,1.96998 v -17.16464"
     id="path354"
     style="stroke-width:1.02572" />
  <path
     class="KeySig"
     d="m 198.19239,98.847541 c 0.6205,-0.0971 1.1296,-0.82353 1.1296,-1.45332 v -6.08751 c 0,-1.03344 -0.7158,-1.45323 -1.6385,-1.45323 l -3.3564,0.7266 v -15.40462 h -2.8475 v 16.01819 l -9.0672,1.87308 v -14.58099 h -2.8474 v 15.19465 l -3.977,0.82353 c -0.6044,0.11295 -1.1134,0.82345 -1.1134,1.45321 v 5.990699 c 0,1.13032 0.8112,1.45327 1.7338,1.45327 l 3.3566,-0.72663 v 17.05159 l -3.977,0.82353 c -0.6044,0.097 -1.1134,0.82352 -1.1134,1.45331 v 5.9906 c 0,1.13037 0.8112,1.43718 1.7338,1.43718 l 3.3566,-0.71047 v 15.38838 h 2.8474 v -16.01816 l 9.0672,-1.85698 v 14.58109 h 2.8475 V 125.6199 l 3.8653,-0.7267 c 0.6205,-0.11295 1.1296,-0.82344 1.1296,-1.45322 v -6.08757 c 0,-1.03344 -0.7158,-1.45326 -1.6385,-1.45326 l -3.3564,0.72663 V 99.574161 l 3.8653,-0.72661 m -15.78,3.197169 9.0672,-1.85694 v 17.05161 l -9.0672,1.96997 v -17.16464"
     id="path355"
     style="stroke-width:1.02572" />
  <polyline
     class="StaffLines"
     fill="none"
     stroke="#000000"
     stroke-width="2.73"
     stroke-linejoin="bevel"
     points="336.598,634.198 2847.4,634.198"
     id="polyline440"
     transform="matrix(0.08213926,0,0,1.0417648,-27.647807,-613.19352)" />
  <polyline
     class="StaffLines"
     fill="none"
     stroke="#000000"
     stroke-width="2.73"
     stroke-linejoin="bevel"
     points="336.598,658.998 2847.4,658.998"
     id="polyline441"
     transform="matrix(0.08213926,0,0,1.0417648,-27.647807,-613.19352)" />
  <polyline
     class="StaffLines"
     fill="none"
     stroke="#000000"
     stroke-width="2.73"
     stroke-linejoin="bevel"
     points="336.598,683.798 2847.4,683.798"
     id="polyline442"
     transform="matrix(0.08213926,0,0,1.0417648,-27.647807,-613.19352)" />
  <polyline
     class="StaffLines"
     fill="none"
     stroke="#000000"
     stroke-width="2.73"
     stroke-linejoin="bevel"
     points="336.598,708.598 2847.4,708.598"
     id="polyline443"
     transform="matrix(0.08213926,0,0,1.0417648,-27.647807,-613.19352)" />
  <polyline
     class="StaffLines"
     fill="none"
     stroke="#000000"
     stroke-width="2.73"
     stroke-linejoin="bevel"
     points="336.598,733.398 2847.4,733.398"
     id="polyline444"
     transform="matrix(0.08213926,0,0,1.0417648,-27.647807,-613.19352)" />
  <polyline
     class="StaffLines"
     fill="none"
     stroke="#000000"
     stroke-width="2.73"
     stroke-linejoin="bevel"
     points="336.598,634.198 2847.4,634.198"
     id="polyline445"
     transform="matrix(0.08213926,0,0,1.0417648,-27.647807,-613.19352)" />
  <polyline
     class="StaffLines"
     fill="none"
     stroke="#000000"
     stroke-width="2.73"
     stroke-linejoin="bevel"
     points="336.598,658.998 2847.4,658.998"
     id="polyline446"
     transform="matrix(0.08213926,0,0,1.0417648,-27.647807,-613.19352)" />
  <polyline
     class="StaffLines"
     fill="none"
     stroke="#000000"
     stroke-width="2.73"
     stroke-linejoin="bevel"
     points="336.598,683.798 2847.4,683.798"
     id="polyline447"
     transform="matrix(0.08213926,0,0,1.0417648,-27.647807,-613.19352)" />
  <polyline
     class="StaffLines"
     fill="none"
     stroke="#000000"
     stroke-width="2.73"
     stroke-linejoin="bevel"
     points="336.598,708.598 2847.4,708.598"
     id="polyline448"
     transform="matrix(0.08213926,0,0,1.0417648,-27.647807,-613.19352)" />
  <polyline
     class="StaffLines"
     fill="none"
     stroke="#000000"
     stroke-width="2.73"
     stroke-linejoin="bevel"
     points="336.598,733.398 2847.4,733.398"
     id="polyline449"
     transform="matrix(0.08213926,0,0,1.0417648,-27.647807,-613.19352)" />
</svg>
