<?xml version="1.0" encoding="UTF-8" standalone="no"?>
<svg
   width="136.15468"
   height="214.34"
   viewBox="0 0 136.15469 214.34001"
   version="1.2"
   id="svg117"
   sodipodi:docname="clefs-and-keys.svg"
   inkscape:version="1.3.2 (091e20e, 2023-11-25, custom)"
   xmlns:inkscape="http://www.inkscape.org/namespaces/inkscape"
   xmlns:sodipodi="http://sodipodi.sourceforge.net/DTD/sodipodi-0.dtd"
   xmlns="http://www.w3.org/2000/svg"
   xmlns:svg="http://www.w3.org/2000/svg"
   xmlns:rdf="http://www.w3.org/1999/02/22-rdf-syntax-ns#"
   xmlns:cc="http://creativecommons.org/ns#"
   xmlns:dc="http://purl.org/dc/elements/1.1/">
  <defs
     id="defs117" />
  <sodipodi:namedview
     id="namedview117"
     pagecolor="#ffffff"
     bordercolor="#000000"
     borderopacity="0.25"
     inkscape:showpageshadow="2"
     inkscape:pageopacity="0.0"
     inkscape:pagecheckerboard="0"
     inkscape:deskcolor="#d1d1d1"
     inkscape:zoom="0.32"
     inkscape:cx="2820.3125"
     inkscape:cy="-260.9375"
     inkscape:window-width="1280"
     inkscape:window-height="953"
     inkscape:window-x="2552"
     inkscape:window-y="-8"
     inkscape:window-maximized="1"
     inkscape:current-layer="svg117"
     showguides="true"
     showgrid="false">
    <inkscape:page
       x="-1.5087218e-05"
       y="-1.6343829e-06"
       width="136.15469"
       height="214.34001"
       id="page324"
       margin="0"
       bleed="0" />
  </sodipodi:namedview>
  <title
     id="title1">Unbenannte Partitur</title>
  <desc
     id="desc1">Generated by MuseScore Studio 4.3.2</desc>
  <metadata
     id="metadata121">
    <rdf:RDF>
      <cc:Work
         rdf:about="">
        <dc:title>Unbenannte Partitur</dc:title>
      </cc:Work>
    </rdf:RDF>
  </metadata>
  <path
     class="KeySig"
     d="m 37.879135,63.176032 c 0.6204,-0.0969 1.1295,-0.82355 1.1295,-1.45331 v -6.08753 c 0,-1.03344 -0.7158,-1.45322 -1.6383,-1.45322 l -3.3566,0.72662 v -15.40465 h -2.8473 v 16.01818 l -9.0673,1.8731 v -14.581 h -2.8474 v 15.19465 l -3.9769,0.82355 c -0.6044,0.11295 -1.1136,0.82342 -1.1136,1.4532 v 5.99071 c 0,1.13029 0.8113,1.45325 1.734,1.45325 l 3.3565,-0.72663 v 17.0516 l -3.9769,0.8235 c -0.6044,0.0969 -1.1136,0.82355 -1.1136,1.45332 v 5.9906 c 0,1.13036 0.8113,1.43718 1.734,1.43718 l 3.3565,-0.71046 v 15.388388 h 2.8474 V 92.418902 l 9.0673,-1.85697 v 14.581088 h 2.8473 V 89.948392 l 3.8654,-0.72671 c 0.6204,-0.11295 1.1295,-0.82344 1.1295,-1.45322 v -6.08758 c 0,-1.03342 -0.7158,-1.45325 -1.6383,-1.45325 l -3.3566,0.72662 v -17.05159 l 3.8654,-0.72663 m -15.78,3.19717 9.0673,-1.85694 v 17.0516 l -9.0673,1.96998 v -17.16464"
     id="path58"
     style="stroke-width:1.02572" />
  <path
     class="KeySig"
     d="m 65.763435,101.92966 c 0.6202,-0.097 1.1294,-0.82353 1.1294,-1.4533 v -6.087528 c 0,-1.03342 -0.7158,-1.45321 -1.6386,-1.45321 l -3.3563,0.72661 v -15.40462 h -2.8476 v 16.01816 l -9.0671,1.8731 v -14.58098 h -2.8474 v 15.19464 l -3.9768,0.82353 c -0.6045,0.11296 -1.1135,0.82344 -1.1135,1.45322 v 5.990688 c 0,1.13032 0.8112,1.45326 1.7337,1.45326 l 3.3566,-0.72663 v 17.0516 l -3.9768,0.82351 c -0.6045,0.097 -1.1135,0.82354 -1.1135,1.45333 v 5.9906 c 0,1.13035 0.8112,1.43719 1.7337,1.43719 l 3.3566,-0.71051 v 15.38841 h 2.8474 v -16.01817 l 9.0671,-1.85698 v 14.58109 h 2.8476 v -15.19462 l 3.8655,-0.72671 c 0.6202,-0.11296 1.1294,-0.82343 1.1294,-1.45323 v -6.08758 c 0,-1.03342 -0.7158,-1.45326 -1.6386,-1.45326 l -3.3563,0.72664 V 102.6563 l 3.8655,-0.72664 m -15.7802,3.19718 9.0671,-1.85694 v 17.05162 l -9.0671,1.96998 v -17.16465"
     id="path59"
     style="stroke-width:1.02572" />
  <path
     class="KeySig"
     d="m 93.647635,50.258132 c 0.6202,-0.0969 1.1293,-0.82354 1.1293,-1.45331 v -6.08752 c 0,-1.03343 -0.7159,-1.45322 -1.6385,-1.45322 l -3.3566,0.72661 v -15.40462 h -2.8472 v 16.01815 l -9.0674,1.8731 v -14.58097 h -2.8474 v 15.19461 l -3.9767,0.82355 c -0.6045,0.11296 -1.1136,0.82344 -1.1136,1.45322 v 5.9907 c 0,1.13032 0.8113,1.45326 1.7339,1.45326 l 3.3564,-0.72663 v 17.0516 l -3.9767,0.82352 c -0.6045,0.0969 -1.1136,0.82355 -1.1136,1.45331 v 5.9906 c 0,1.13036 0.8113,1.43719 1.7339,1.43719 l 3.3564,-0.71048 v 15.38839 h 2.8474 v -16.01817 l 9.0674,-1.85697 v 14.58109 h 2.8472 v -15.19464 l 3.8658,-0.72671 c 0.6202,-0.11295 1.1293,-0.82345 1.1293,-1.45323 v -6.08754 c 0,-1.03344 -0.7159,-1.45328 -1.6385,-1.45328 l -3.3566,0.72664 v -17.05162 l 3.8658,-0.72664 m -15.7804,3.19719 9.0674,-1.85696 v 17.05163 l -9.0674,1.96997 v -17.16464"
     id="path60"
     style="stroke-width:1.02572" />
  <path
     class="KeySig"
     d="m 121.51114,89.011802 c 0.6203,-0.097 1.1294,-0.82355 1.1294,-1.45333 v -6.08753 c 0,-1.03342 -0.7158,-1.45321 -1.6385,-1.45321 l -3.3564,0.72661 v -15.40463 h -2.8475 v 16.01817 l -9.0672,1.87309 v -14.58097 h -2.8475 v 15.19463 l -3.976705,0.82353 c -0.6047,0.11296 -1.1135,0.82346 -1.1135,1.45324 v 5.99068 c 0,1.1303 0.8113,1.45326 1.7338,1.45326 l 3.356405,-0.72663 v 17.051618 l -3.976705,0.82352 c -0.6047,0.0969 -1.1135,0.82352 -1.1135,1.45331 v 5.99058 c 0,1.13035 0.8113,1.43718 1.7338,1.43718 l 3.356405,-0.71049 v 15.38843 h 2.8475 v -16.0182 l 9.0672,-1.85694 v 14.58108 h 2.8475 v -15.19464 l 3.8655,-0.72671 c 0.6203,-0.11296 1.1294,-0.82344 1.1294,-1.45323 v -6.08757 c 0,-1.03343 -0.7158,-1.45327 -1.6385,-1.45327 l -3.3564,0.72665 V 89.738412 l 3.8655,-0.72661 m -15.7802,3.19717 9.0672,-1.85695 v 17.051598 l -9.0672,1.96999 V 92.208972"
     id="path61"
     style="stroke-width:1.02572" />
  <polyline
     class="StaffLines"
     fill="none"
     stroke="#000000"
     stroke-width="2.73"
     stroke-linejoin="bevel"
     points="336.598,634.198 2847.4,634.198"
     id="polyline202"
     transform="matrix(0.05426658,0,0,1.0417648,-18.265965,-613.19346)" />
  <polyline
     class="StaffLines"
     fill="none"
     stroke="#000000"
     stroke-width="2.73"
     stroke-linejoin="bevel"
     points="336.598,658.998 2847.4,658.998"
     id="polyline203"
     transform="matrix(0.05426658,0,0,1.0417648,-18.265965,-613.19346)" />
  <polyline
     class="StaffLines"
     fill="none"
     stroke="#000000"
     stroke-width="2.73"
     stroke-linejoin="bevel"
     points="336.598,683.798 2847.4,683.798"
     id="polyline204"
     transform="matrix(0.05426658,0,0,1.0417648,-18.265965,-613.19346)" />
  <polyline
     class="StaffLines"
     fill="none"
     stroke="#000000"
     stroke-width="2.73"
     stroke-linejoin="bevel"
     points="336.598,708.598 2847.4,708.598"
     id="polyline205"
     transform="matrix(0.05426658,0,0,1.0417648,-18.265965,-613.19346)" />
  <polyline
     class="StaffLines"
     fill="none"
     stroke="#000000"
     stroke-width="2.73"
     stroke-linejoin="bevel"
     points="336.598,733.398 2847.4,733.398"
     id="polyline206"
     transform="matrix(0.05426658,0,0,1.0417648,-18.265965,-613.19346)" />
  <polyline
     class="StaffLines"
     fill="none"
     stroke="#000000"
     stroke-width="2.73"
     stroke-linejoin="bevel"
     points="336.598,634.198 2847.4,634.198"
     id="polyline207"
     transform="matrix(0.05426658,0,0,1.0417648,-18.265965,-613.19346)" />
  <polyline
     class="StaffLines"
     fill="none"
     stroke="#000000"
     stroke-width="2.73"
     stroke-linejoin="bevel"
     points="336.598,658.998 2847.4,658.998"
     id="polyline208"
     transform="matrix(0.05426658,0,0,1.0417648,-18.265965,-613.19346)" />
  <polyline
     class="StaffLines"
     fill="none"
     stroke="#000000"
     stroke-width="2.73"
     stroke-linejoin="bevel"
     points="336.598,683.798 2847.4,683.798"
     id="polyline209"
     transform="matrix(0.05426658,0,0,1.0417648,-18.265965,-613.19346)" />
  <polyline
     class="StaffLines"
     fill="none"
     stroke="#000000"
     stroke-width="2.73"
     stroke-linejoin="bevel"
     points="336.598,708.598 2847.4,708.598"
     id="polyline210"
     transform="matrix(0.05426658,0,0,1.0417648,-18.265965,-613.19346)" />
  <polyline
     class="StaffLines"
     fill="none"
     stroke="#000000"
     stroke-width="2.73"
     stroke-linejoin="bevel"
     points="336.598,733.398 2847.4,733.398"
     id="polyline211"
     transform="matrix(0.05426658,0,0,1.0417648,-18.265965,-613.19346)" />
</svg>
