<?xml version="1.0" encoding="UTF-8" standalone="no"?>
<svg
   width="132.09836"
   height="214.34"
   viewBox="0 0 132.09837 214.34001"
   version="1.2"
   id="svg117"
   sodipodi:docname="clefs-and-keys.svg"
   inkscape:version="1.3.2 (091e20e, 2023-11-25, custom)"
   xmlns:inkscape="http://www.inkscape.org/namespaces/inkscape"
   xmlns:sodipodi="http://sodipodi.sourceforge.net/DTD/sodipodi-0.dtd"
   xmlns="http://www.w3.org/2000/svg"
   xmlns:svg="http://www.w3.org/2000/svg"
   xmlns:rdf="http://www.w3.org/1999/02/22-rdf-syntax-ns#"
   xmlns:cc="http://creativecommons.org/ns#"
   xmlns:dc="http://purl.org/dc/elements/1.1/">
  <defs
     id="defs117" />
  <sodipodi:namedview
     id="namedview117"
     pagecolor="#ffffff"
     bordercolor="#000000"
     borderopacity="0.25"
     inkscape:showpageshadow="2"
     inkscape:pageopacity="0.0"
     inkscape:pagecheckerboard="0"
     inkscape:deskcolor="#d1d1d1"
     inkscape:zoom="0.55647799"
     inkscape:cx="1869.7954"
     inkscape:cy="610.08702"
     inkscape:window-width="2560"
     inkscape:window-height="1009"
     inkscape:window-x="-8"
     inkscape:window-y="-8"
     inkscape:window-maximized="1"
     inkscape:current-layer="svg117"
     showguides="true"
     showgrid="false">
    <inkscape:page
       x="-5.2057017e-05"
       y="-3.4451066e-06"
       width="132.09837"
       height="214.34001"
       id="page540"
       margin="0"
       bleed="0" />
  </sodipodi:namedview>
  <title
     id="title1">Unbenannte Partitur</title>
  <desc
     id="desc1">Generated by MuseScore Studio 4.3.2</desc>
  <metadata
     id="metadata121">
    <rdf:RDF>
      <cc:Work
         rdf:about="">
        <dc:title>Unbenannte Partitur</dc:title>
      </cc:Work>
    </rdf:RDF>
  </metadata>
  <path
     class="KeySig"
     d="m 28.049348,93.680391 c -5.0904,0 -8.0492,3.19713 -8.5582,3.82689 l 0.4136,-33.18285 c 0,-0.82344 -0.6045,-1.43707 -1.4315,-1.43707 h -1.2092 c -0.8272,0 -1.4315,0.61364 -1.4315,1.43707 l 0.5088,62.118929 c 0,0.82353 0.6046,1.43718 1.4319,1.43718 0.1908,0 0.6043,-0.0968 0.8113,-0.19379 8.749,-4.45665 17.9118,-12.91792 17.9118,-23.57517 0,-5.360979 -2.434,-10.431189 -8.447,-10.431189 m -8.8605,29.145949 0.3023,-20.15187 c 0.2067,-0.93655 1.7341,-3.923869 5.8062,-3.923869 3.6746,0 3.9769,3.504029 3.9769,5.683919 0,9.18784 -3.3566,13.01477 -10.0854,18.39182"
     id="path356"
     style="stroke-width:1.02572" />
  <path
     class="KeySig"
     d="m 56.354248,54.926731 c -5.0904,0 -8.0491,3.19713 -8.5582,3.8269 l 0.4137,-33.18285 c 0,-0.82345 -0.6045,-1.43708 -1.4317,-1.43708 h -1.209 c -0.8272,0 -1.4317,0.61363 -1.4317,1.43708 l 0.5091,62.1189 c 0,0.82354 0.6045,1.43718 1.4315,1.43718 0.191,0 0.6046,-0.0969 0.8114,-0.19375 8.749,-4.45666 17.9117,-12.91793 17.9117,-23.5752 0,-5.36097 -2.4337,-10.43118 -8.4468,-10.43118 m -8.8605,29.14594 0.3023,-20.15187 c 0.2068,-0.93655 1.734,-3.92386 5.8062,-3.92386 3.6748,0 3.9768,3.50403 3.9768,5.68392 0,9.18786 -3.3564,13.01477 -10.0853,18.39181"
     id="path357"
     style="stroke-width:1.02572" />
  <path
     class="KeySig"
     d="m 84.648848,106.59826 c -5.0904,0 -8.049,3.19712 -8.558,3.82692 l 0.4135,-33.182859 c 0,-0.82344 -0.6044,-1.43707 -1.4317,-1.43707 h -1.209 c -0.8272,0 -1.4316,0.61363 -1.4316,1.43707 l 0.5091,62.118929 c 0,0.82352 0.6043,1.43717 1.4316,1.43717 0.1911,0 0.6045,-0.0969 0.8112,-0.19376 8.7492,-4.45668 17.9119,-12.91796 17.9119,-23.5752 0,-5.36097 -2.4339,-10.4312 -8.447,-10.4312 m -8.8604,29.14596 0.3024,-20.15187 c 0.2065,-0.93655 1.7338,-3.92386 5.806,-3.92386 3.6747,0 3.9769,3.50403 3.9769,5.68392 0,9.18785 -3.3563,13.01477 -10.0853,18.39181"
     id="path358"
     style="stroke-width:1.02572" />
  <path
     class="KeySig"
     d="m 112.93315,67.844611 c -5.0903,0 -8.0491,3.19714 -8.5581,3.82691 l 0.4136,-33.18284 c 0,-0.82345 -0.6044,-1.43709 -1.4316,-1.43709 h -1.209 c -0.8271,0 -1.4316,0.61364 -1.4316,1.43709 l 0.5089,62.118899 c 0,0.82353 0.6047,1.43719 1.4317,1.43719 0.191,0 0.6045,-0.0969 0.8114,-0.19376 8.7491,-4.456679 17.9118,-12.917939 17.9118,-23.575209 0,-5.36097 -2.4339,-10.43119 -8.4471,-10.43119 m -8.8602,29.14596 0.3021,-20.15187 c 0.2068,-0.93655 1.734,-3.92387 5.8062,-3.92387 3.6746,0 3.9771,3.50404 3.9771,5.68393 0,9.18784 -3.3567,13.01475 -10.0854,18.39181"
     id="path359"
     style="stroke-width:1.02572" />
  <polyline
     class="StaffLines"
     fill="none"
     stroke="#000000"
     stroke-width="2.73"
     stroke-linejoin="bevel"
     points="336.598,634.198 2847.4,634.198"
     id="polyline480"
     transform="matrix(0.05250038,0,0,1.0417648,-17.671452,-613.19352)" />
  <polyline
     class="StaffLines"
     fill="none"
     stroke="#000000"
     stroke-width="2.73"
     stroke-linejoin="bevel"
     points="336.598,658.998 2847.4,658.998"
     id="polyline481"
     transform="matrix(0.05250038,0,0,1.0417648,-17.671452,-613.19352)" />
  <polyline
     class="StaffLines"
     fill="none"
     stroke="#000000"
     stroke-width="2.73"
     stroke-linejoin="bevel"
     points="336.598,683.798 2847.4,683.798"
     id="polyline482"
     transform="matrix(0.05250038,0,0,1.0417648,-17.671452,-613.19352)" />
  <polyline
     class="StaffLines"
     fill="none"
     stroke="#000000"
     stroke-width="2.73"
     stroke-linejoin="bevel"
     points="336.598,708.598 2847.4,708.598"
     id="polyline483"
     transform="matrix(0.05250038,0,0,1.0417648,-17.671452,-613.19352)" />
  <polyline
     class="StaffLines"
     fill="none"
     stroke="#000000"
     stroke-width="2.73"
     stroke-linejoin="bevel"
     points="336.598,733.398 2847.4,733.398"
     id="polyline484"
     transform="matrix(0.05250038,0,0,1.0417648,-17.671452,-613.19352)" />
  <polyline
     class="StaffLines"
     fill="none"
     stroke="#000000"
     stroke-width="2.73"
     stroke-linejoin="bevel"
     points="336.598,634.198 2847.4,634.198"
     id="polyline485"
     transform="matrix(0.05250038,0,0,1.0417648,-17.671452,-613.19352)" />
  <polyline
     class="StaffLines"
     fill="none"
     stroke="#000000"
     stroke-width="2.73"
     stroke-linejoin="bevel"
     points="336.598,658.998 2847.4,658.998"
     id="polyline486"
     transform="matrix(0.05250038,0,0,1.0417648,-17.671452,-613.19352)" />
  <polyline
     class="StaffLines"
     fill="none"
     stroke="#000000"
     stroke-width="2.73"
     stroke-linejoin="bevel"
     points="336.598,683.798 2847.4,683.798"
     id="polyline487"
     transform="matrix(0.05250038,0,0,1.0417648,-17.671452,-613.19352)" />
  <polyline
     class="StaffLines"
     fill="none"
     stroke="#000000"
     stroke-width="2.73"
     stroke-linejoin="bevel"
     points="336.598,708.598 2847.4,708.598"
     id="polyline488"
     transform="matrix(0.05250038,0,0,1.0417648,-17.671452,-613.19352)" />
  <polyline
     class="StaffLines"
     fill="none"
     stroke="#000000"
     stroke-width="2.73"
     stroke-linejoin="bevel"
     points="336.598,733.398 2847.4,733.398"
     id="polyline489"
     transform="matrix(0.05250038,0,0,1.0417648,-17.671452,-613.19352)" />
</svg>
