<?xml version="1.0" encoding="UTF-8" standalone="no"?>
<svg
   width="56.270386"
   height="214.34"
   viewBox="0 0 56.27039 214.34001"
   version="1.2"
   id="svg117"
   sodipodi:docname="key-signature-treble-1-flats.svg"
   inkscape:version="1.3.2 (091e20e, 2023-11-25, custom)"
   xmlns:inkscape="http://www.inkscape.org/namespaces/inkscape"
   xmlns:sodipodi="http://sodipodi.sourceforge.net/DTD/sodipodi-0.dtd"
   xmlns="http://www.w3.org/2000/svg"
   xmlns:svg="http://www.w3.org/2000/svg"
   xmlns:rdf="http://www.w3.org/1999/02/22-rdf-syntax-ns#"
   xmlns:cc="http://creativecommons.org/ns#"
   xmlns:dc="http://purl.org/dc/elements/1.1/">
  <sodipodi:namedview
     id="namedview1"
     pagecolor="#ffffff"
     bordercolor="#000000"
     borderopacity="0.25"
     inkscape:showpageshadow="2"
     inkscape:pageopacity="0.0"
     inkscape:pagecheckerboard="0"
     inkscape:deskcolor="#d1d1d1"
     inkscape:zoom="0.48462724"
     inkscape:cx="1028.6256"
     inkscape:cy="-133.09198"
     inkscape:window-width="2560"
     inkscape:window-height="1009"
     inkscape:window-x="-8"
     inkscape:window-y="-8"
     inkscape:window-maximized="1"
     inkscape:current-layer="svg117" />
  <defs
     id="defs117" />
  <title
     id="title1">Unbenannte Partitur</title>
  <desc
     id="desc1">Generated by MuseScore Studio 4.3.2</desc>
  <metadata
     id="metadata121">
    <rdf:RDF>
      <cc:Work
         rdf:about="">
        <dc:title>Unbenannte Partitur</dc:title>
      </cc:Work>
    </rdf:RDF>
  </metadata>
  <path
     class="KeySig"
     d="m 31.045221,83.680396 c -5.0905,0 -8.0492,3.19713 -8.5583,3.82689 l 0.4137,-33.18284 c 0,-0.82344 -0.6045,-1.43708 -1.4316,-1.43708 h -1.2091 c -0.8273,0 -1.4317,0.61364 -1.4317,1.43708 l 0.509,62.118924 c 0,0.82353 0.6046,1.43718 1.4317,1.43718 0.191,0 0.6046,-0.0968 0.8112,-0.19379 8.7493,-4.45665 17.912,-12.91792 17.912,-23.575174 0,-5.36098 -2.4339,-10.43119 -8.4469,-10.43119 m -8.8605,29.145954 0.3022,-20.151874 c 0.2068,-0.93655 1.734,-3.92387 5.8064,-3.92387 3.6744,0 3.9767,3.50403 3.9767,5.68392 0,9.187844 -3.3566,13.014774 -10.0853,18.391824"
     id="path179"
     style="stroke-width:1.02572" />
  <g
     id="g61"
     transform="translate(-2497.2706,261.7502)">
    <polyline
       class="StaffLines"
       fill="none"
       stroke="#000000"
       stroke-width="2.73"
       stroke-linejoin="bevel"
       points="336.598,634.198 2847.4,634.198"
       id="polyline112"
       transform="matrix(0.0224173,0,0,1.0417648,2489.7174,-874.94366)" />
    <polyline
       class="StaffLines"
       fill="none"
       stroke="#000000"
       stroke-width="2.73"
       stroke-linejoin="bevel"
       points="336.598,658.998 2847.4,658.998"
       id="polyline113"
       transform="matrix(0.0224173,0,0,1.0417648,2489.7174,-874.94366)" />
    <polyline
       class="StaffLines"
       fill="none"
       stroke="#000000"
       stroke-width="2.73"
       stroke-linejoin="bevel"
       points="336.598,683.798 2847.4,683.798"
       id="polyline114"
       transform="matrix(0.0224173,0,0,1.0417648,2489.7174,-874.94366)" />
    <polyline
       class="StaffLines"
       fill="none"
       stroke="#000000"
       stroke-width="2.73"
       stroke-linejoin="bevel"
       points="336.598,708.598 2847.4,708.598"
       id="polyline115"
       transform="matrix(0.0224173,0,0,1.0417648,2489.7174,-874.94366)" />
    <polyline
       class="StaffLines"
       fill="none"
       stroke="#000000"
       stroke-width="2.73"
       stroke-linejoin="bevel"
       points="336.598,733.398 2847.4,733.398"
       id="polyline116"
       transform="matrix(0.0224173,0,0,1.0417648,2489.7174,-874.94366)" />
    <polyline
       class="StaffLines"
       fill="none"
       stroke="#000000"
       stroke-width="2.73"
       stroke-linejoin="bevel"
       points="336.598,634.198 2847.4,634.198"
       id="polyline117"
       transform="matrix(0.0224173,0,0,1.0417648,2489.7174,-874.94366)" />
    <polyline
       class="StaffLines"
       fill="none"
       stroke="#000000"
       stroke-width="2.73"
       stroke-linejoin="bevel"
       points="336.598,658.998 2847.4,658.998"
       id="polyline118"
       transform="matrix(0.0224173,0,0,1.0417648,2489.7174,-874.94366)" />
    <polyline
       class="StaffLines"
       fill="none"
       stroke="#000000"
       stroke-width="2.73"
       stroke-linejoin="bevel"
       points="336.598,683.798 2847.4,683.798"
       id="polyline119"
       transform="matrix(0.0224173,0,0,1.0417648,2489.7174,-874.94366)" />
    <polyline
       class="StaffLines"
       fill="none"
       stroke="#000000"
       stroke-width="2.73"
       stroke-linejoin="bevel"
       points="336.598,708.598 2847.4,708.598"
       id="polyline120"
       transform="matrix(0.0224173,0,0,1.0417648,2489.7174,-874.94366)" />
    <polyline
       class="StaffLines"
       fill="none"
       stroke="#000000"
       stroke-width="2.73"
       stroke-linejoin="bevel"
       points="336.598,733.398 2847.4,733.398"
       id="polyline121"
       transform="matrix(0.0224173,0,0,1.0417648,2489.7174,-874.94366)" />
  </g>
</svg>
