<?xml version="1.0" encoding="UTF-8" standalone="no"?>
<svg
   width="115.44792"
   height="214.34"
   viewBox="0 0 115.44793 214.34001"
   version="1.2"
   id="svg117"
   sodipodi:docname="clefs-and-keys.svg"
   inkscape:version="1.3.2 (091e20e, 2023-11-25, custom)"
   xmlns:inkscape="http://www.inkscape.org/namespaces/inkscape"
   xmlns:sodipodi="http://sodipodi.sourceforge.net/DTD/sodipodi-0.dtd"
   xmlns="http://www.w3.org/2000/svg"
   xmlns:svg="http://www.w3.org/2000/svg"
   xmlns:rdf="http://www.w3.org/1999/02/22-rdf-syntax-ns#"
   xmlns:cc="http://creativecommons.org/ns#"
   xmlns:dc="http://purl.org/dc/elements/1.1/">
  <defs
     id="defs117" />
  <sodipodi:namedview
     id="namedview117"
     pagecolor="#ffffff"
     bordercolor="#000000"
     borderopacity="0.25"
     inkscape:showpageshadow="2"
     inkscape:pageopacity="0.0"
     inkscape:pagecheckerboard="0"
     inkscape:deskcolor="#d1d1d1"
     inkscape:zoom="0.55647799"
     inkscape:cx="1869.7954"
     inkscape:cy="610.08702"
     inkscape:window-width="2560"
     inkscape:window-height="1009"
     inkscape:window-x="-8"
     inkscape:window-y="-8"
     inkscape:window-maximized="1"
     inkscape:current-layer="svg117"
     showguides="true"
     showgrid="false">
    <inkscape:page
       x="7.0625737e-07"
       y="-3.4451066e-06"
       width="115.44793"
       height="214.34001"
       id="page532"
       margin="0"
       bleed="0" />
  </sodipodi:namedview>
  <title
     id="title1">Unbenannte Partitur</title>
  <desc
     id="desc1">Generated by MuseScore Studio 4.3.2</desc>
  <metadata
     id="metadata121">
    <rdf:RDF>
      <cc:Work
         rdf:about="">
        <dc:title>Unbenannte Partitur</dc:title>
      </cc:Work>
    </rdf:RDF>
  </metadata>
  <path
     class="KeySig"
     d="m 38.203035,47.176011 c 0.6204,-0.0969 1.1295,-0.82355 1.1295,-1.45331 v -6.08753 c 0,-1.03344 -0.716,-1.45322 -1.6386,-1.45322 l -3.3565,0.72662 v -15.40465 h -2.8473 v 16.01818 l -9.0672,1.8731 v -14.581 h -2.8475 v 15.19465 l -3.9768,0.82355 c -0.6046,0.11295 -1.1136,0.82342 -1.1136,1.4532 v 5.99071 c 0,1.13029 0.8113,1.45325 1.734,1.45325 l 3.3564,-0.72663 v 17.0516 l -3.9768,0.8235 c -0.6046,0.0969 -1.1136,0.82355 -1.1136,1.45332 v 5.99061 c 0,1.13036 0.8113,1.43718 1.734,1.43718 l 3.3564,-0.71046 v 15.38838 h 2.8475 v -16.01817 l 9.0672,-1.85698 v 14.58109 h 2.8473 v -15.19463 l 3.8656,-0.72671 c 0.6204,-0.11295 1.1295,-0.82344 1.1295,-1.45322 v -6.08758 c 0,-1.03342 -0.716,-1.45325 -1.6386,-1.45325 l -3.3565,0.72662 v -17.05159 l 3.8656,-0.72663 m -15.7801,3.19717 9.0672,-1.85694 v 17.0516 l -9.0672,1.96998 v -17.16464"
     id="path335"
     style="stroke-width:1.02572" />
  <path
     class="KeySig"
     d="m 66.086935,85.929641 c 0.6203,-0.097 1.1293,-0.82353 1.1293,-1.4533 v -6.08753 c 0,-1.03342 -0.7158,-1.45321 -1.6384,-1.45321 l -3.3563,0.72661 v -15.40462 h -2.8474 v 16.01816 l -9.0672,1.8731 v -14.58098 h -2.8474 v 15.19464 l -3.9767,0.82353 c -0.6046,0.11296 -1.1136,0.82344 -1.1136,1.45322 v 5.99069 c 0,1.13032 0.8112,1.45326 1.7339,1.45326 l 3.3564,-0.72663 v 17.051599 l -3.9767,0.82351 c -0.6046,0.097 -1.1136,0.82354 -1.1136,1.45333 v 5.9906 c 0,1.13035 0.8112,1.43719 1.7339,1.43719 l 3.3564,-0.71051 v 15.38841 h 2.8474 v -16.01817 l 9.0672,-1.85698 v 14.58109 h 2.8474 v -15.19462 l 3.8654,-0.72671 c 0.6203,-0.11296 1.1293,-0.82343 1.1293,-1.45323 v -6.08758 c 0,-1.03342 -0.7158,-1.45326 -1.6384,-1.45326 l -3.3563,0.72664 V 86.656291 l 3.8654,-0.72664 m -15.78,3.19718 9.0672,-1.85695 v 17.051609 l -9.0672,1.96998 V 89.126831"
     id="path336"
     style="stroke-width:1.02572" />
  <path
     class="KeySig"
     d="m 93.981435,34.258111 c 0.6204,-0.0969 1.1293,-0.82354 1.1293,-1.45331 v -6.08752 c 0,-1.03343 -0.7157,-1.45322 -1.6383,-1.45322 l -3.3565,0.72661 v -15.40462 h -2.8476 v 16.01815 l -9.0671,1.8731 v -14.58097 h -2.8473 v 15.19461 l -3.977,0.82355 c -0.6044,0.11296 -1.1135,0.82344 -1.1135,1.45322 v 5.9907 c 0,1.13032 0.8113,1.45326 1.734,1.45326 l 3.3565,-0.72663 v 17.0516 l -3.977,0.82352 c -0.6044,0.0969 -1.1135,0.82355 -1.1135,1.45331 v 5.99059 c 0,1.13036 0.8113,1.43719 1.734,1.43719 l 3.3565,-0.71048 v 15.3884 h 2.8473 v -16.01818 l 9.0671,-1.85696 v 14.58109 h 2.8476 v -15.19464 l 3.8655,-0.72671 c 0.6204,-0.11295 1.1293,-0.82345 1.1293,-1.45323 v -6.08754 c 0,-1.03344 -0.7157,-1.45328 -1.6383,-1.45328 l -3.3565,0.72664 v -17.05162 l 3.8655,-0.72664 m -15.7802,3.19719 9.0671,-1.85696 v 17.05163 l -9.0671,1.96997 v -17.16464"
     id="path337"
     style="stroke-width:1.02572" />
  <polyline
     class="StaffLines"
     fill="none"
     stroke="#000000"
     stroke-width="2.73"
     stroke-linejoin="bevel"
     points="336.598,634.198 2847.4,634.198"
     id="polyline400"
     transform="matrix(0.04569673,0,0,1.0417648,-15.381465,-613.19352)" />
  <polyline
     class="StaffLines"
     fill="none"
     stroke="#000000"
     stroke-width="2.73"
     stroke-linejoin="bevel"
     points="336.598,658.998 2847.4,658.998"
     id="polyline401"
     transform="matrix(0.04569673,0,0,1.0417648,-15.381465,-613.19352)" />
  <polyline
     class="StaffLines"
     fill="none"
     stroke="#000000"
     stroke-width="2.73"
     stroke-linejoin="bevel"
     points="336.598,683.798 2847.4,683.798"
     id="polyline402"
     transform="matrix(0.04569673,0,0,1.0417648,-15.381465,-613.19352)" />
  <polyline
     class="StaffLines"
     fill="none"
     stroke="#000000"
     stroke-width="2.73"
     stroke-linejoin="bevel"
     points="336.598,708.598 2847.4,708.598"
     id="polyline403"
     transform="matrix(0.04569673,0,0,1.0417648,-15.381465,-613.19352)" />
  <polyline
     class="StaffLines"
     fill="none"
     stroke="#000000"
     stroke-width="2.73"
     stroke-linejoin="bevel"
     points="336.598,733.398 2847.4,733.398"
     id="polyline404"
     transform="matrix(0.04569673,0,0,1.0417648,-15.381465,-613.19352)" />
  <polyline
     class="StaffLines"
     fill="none"
     stroke="#000000"
     stroke-width="2.73"
     stroke-linejoin="bevel"
     points="336.598,634.198 2847.4,634.198"
     id="polyline405"
     transform="matrix(0.04569673,0,0,1.0417648,-15.381465,-613.19352)" />
  <polyline
     class="StaffLines"
     fill="none"
     stroke="#000000"
     stroke-width="2.73"
     stroke-linejoin="bevel"
     points="336.598,658.998 2847.4,658.998"
     id="polyline406"
     transform="matrix(0.04569673,0,0,1.0417648,-15.381465,-613.19352)" />
  <polyline
     class="StaffLines"
     fill="none"
     stroke="#000000"
     stroke-width="2.73"
     stroke-linejoin="bevel"
     points="336.598,683.798 2847.4,683.798"
     id="polyline407"
     transform="matrix(0.04569673,0,0,1.0417648,-15.381465,-613.19352)" />
  <polyline
     class="StaffLines"
     fill="none"
     stroke="#000000"
     stroke-width="2.73"
     stroke-linejoin="bevel"
     points="336.598,708.598 2847.4,708.598"
     id="polyline408"
     transform="matrix(0.04569673,0,0,1.0417648,-15.381465,-613.19352)" />
  <polyline
     class="StaffLines"
     fill="none"
     stroke="#000000"
     stroke-width="2.73"
     stroke-linejoin="bevel"
     points="336.598,733.398 2847.4,733.398"
     id="polyline409"
     transform="matrix(0.04569673,0,0,1.0417648,-15.381465,-613.19352)" />
</svg>
