<?xml version="1.0" encoding="UTF-8" standalone="no"?>
<svg
   width="131.82004"
   height="214.34"
   viewBox="0 0 131.82005 214.34001"
   version="1.2"
   id="svg117"
   sodipodi:docname="clefs-and-keys.svg"
   inkscape:version="1.3.2 (091e20e, 2023-11-25, custom)"
   xmlns:inkscape="http://www.inkscape.org/namespaces/inkscape"
   xmlns:sodipodi="http://sodipodi.sourceforge.net/DTD/sodipodi-0.dtd"
   xmlns="http://www.w3.org/2000/svg"
   xmlns:svg="http://www.w3.org/2000/svg"
   xmlns:rdf="http://www.w3.org/1999/02/22-rdf-syntax-ns#"
   xmlns:cc="http://creativecommons.org/ns#"
   xmlns:dc="http://purl.org/dc/elements/1.1/">
  <defs
     id="defs117" />
  <sodipodi:namedview
     id="namedview117"
     pagecolor="#ffffff"
     bordercolor="#000000"
     borderopacity="0.25"
     inkscape:showpageshadow="2"
     inkscape:pageopacity="0.0"
     inkscape:pagecheckerboard="0"
     inkscape:deskcolor="#d1d1d1"
     inkscape:zoom="0.32"
     inkscape:cx="2820.3125"
     inkscape:cy="-260.9375"
     inkscape:window-width="1280"
     inkscape:window-height="953"
     inkscape:window-x="2552"
     inkscape:window-y="-8"
     inkscape:window-maximized="1"
     inkscape:current-layer="svg117"
     showguides="true"
     showgrid="false">
    <inkscape:page
       x="-5.9711692e-05"
       y="-1.6343829e-06"
       width="131.82005"
       height="214.34001"
       id="page331"
       margin="0"
       bleed="0" />
  </sodipodi:namedview>
  <title
     id="title1">Unbenannte Partitur</title>
  <desc
     id="desc1">Generated by MuseScore Studio 4.3.2</desc>
  <metadata
     id="metadata121">
    <rdf:RDF>
      <cc:Work
         rdf:about="">
        <dc:title>Unbenannte Partitur</dc:title>
      </cc:Work>
    </rdf:RDF>
  </metadata>
  <path
     class="KeySig"
     d="m 27.770783,109.68041 c -5.0904,0 -8.0492,3.19713 -8.5582,3.82689 l 0.4136,-33.182838 c 0,-0.82344 -0.6045,-1.43708 -1.4315,-1.43708 h -1.2092 c -0.8272,0 -1.4315,0.61364 -1.4315,1.43708 l 0.5088,62.118918 c 0,0.82353 0.6046,1.43718 1.4319,1.43718 0.1908,0 0.6043,-0.0968 0.8113,-0.19379 8.749,-4.45665 17.9118,-12.91792 17.9118,-23.57518 0,-5.36097 -2.434,-10.43118 -8.447,-10.43118 m -8.8605,29.14595 0.3023,-20.15188 c 0.2067,-0.93654 1.7341,-3.92386 5.8062,-3.92386 3.6746,0 3.9769,3.50402 3.9769,5.68391 0,9.18785 -3.3566,13.01478 -10.0854,18.39183"
     id="path69"
     style="stroke-width:1.02572" />
  <path
     class="KeySig"
     d="m 56.075683,70.926752 c -5.0904,0 -8.0491,3.19714 -8.5582,3.82691 l 0.4137,-33.18285 c 0,-0.82345 -0.6045,-1.43708 -1.4317,-1.43708 h -1.209 c -0.8272,0 -1.4317,0.61363 -1.4317,1.43708 l 0.5091,62.118898 c 0,0.82354 0.6045,1.43718 1.4315,1.43718 0.191,0 0.6046,-0.0969 0.8114,-0.19375 8.749,-4.45666 17.9117,-12.917928 17.9117,-23.575198 0,-5.36097 -2.4337,-10.43119 -8.4468,-10.43119 m -8.8605,29.145948 0.3023,-20.151868 c 0.2068,-0.93655 1.734,-3.92387 5.8062,-3.92387 3.6748,0 3.9768,3.50404 3.9768,5.68393 0,9.18786 -3.3564,13.01477 -10.0853,18.391808"
     id="path70"
     style="stroke-width:1.02572" />
  <path
     class="KeySig"
     d="m 84.370283,122.59828 c -5.0904,0 -8.049,3.19712 -8.558,3.82692 l 0.4135,-33.182858 c 0,-0.82344 -0.6044,-1.43707 -1.4317,-1.43707 h -1.209 c -0.8272,0 -1.4316,0.61364 -1.4316,1.43707 l 0.5091,62.118928 c 0,0.82352 0.6043,1.43717 1.4316,1.43717 0.1911,0 0.6045,-0.0969 0.8112,-0.19376 8.7492,-4.45668 17.9119,-12.91796 17.9119,-23.5752 0,-5.36097 -2.4339,-10.4312 -8.447,-10.4312 m -8.8604,29.14596 0.3024,-20.15187 c 0.2065,-0.93655 1.7338,-3.92386 5.806,-3.92386 3.6747,0 3.9769,3.50403 3.9769,5.68392 0,9.18785 -3.3563,13.01477 -10.0853,18.39181"
     id="path72"
     style="stroke-width:1.02572" />
  <path
     class="KeySig"
     d="m 112.65458,83.844632 c -5.0903,0 -8.0491,3.19714 -8.5581,3.82691 l 0.4136,-33.18284 c 0,-0.82345 -0.6044,-1.43709 -1.4316,-1.43709 h -1.209 c -0.8271,0 -1.4316,0.61364 -1.4316,1.43709 l 0.5089,62.118898 c 0,0.82353 0.6047,1.43718 1.4317,1.43718 0.191,0 0.6045,-0.0969 0.8114,-0.19375 8.7491,-4.45668 17.9118,-12.91794 17.9118,-23.575208 0,-5.36097 -2.4339,-10.43119 -8.4471,-10.43119 m -8.8602,29.145958 0.3021,-20.151868 c 0.2068,-0.93655 1.734,-3.92387 5.8062,-3.92387 3.6746,0 3.9771,3.50403 3.9771,5.68392 0,9.187848 -3.3567,13.014758 -10.0854,18.391818"
     id="path81"
     style="stroke-width:1.02572" />
  <polyline
     class="StaffLines"
     fill="none"
     stroke="#000000"
     stroke-width="2.73"
     stroke-linejoin="bevel"
     points="336.598,634.198 2847.4,634.198"
     id="polyline272"
     transform="matrix(0.05250038,0,0,1.0417648,-17.950017,-613.19346)" />
  <polyline
     class="StaffLines"
     fill="none"
     stroke="#000000"
     stroke-width="2.73"
     stroke-linejoin="bevel"
     points="336.598,658.998 2847.4,658.998"
     id="polyline273"
     transform="matrix(0.05250038,0,0,1.0417648,-17.950017,-613.19346)" />
  <polyline
     class="StaffLines"
     fill="none"
     stroke="#000000"
     stroke-width="2.73"
     stroke-linejoin="bevel"
     points="336.598,683.798 2847.4,683.798"
     id="polyline274"
     transform="matrix(0.05250038,0,0,1.0417648,-17.950017,-613.19346)" />
  <polyline
     class="StaffLines"
     fill="none"
     stroke="#000000"
     stroke-width="2.73"
     stroke-linejoin="bevel"
     points="336.598,708.598 2847.4,708.598"
     id="polyline275"
     transform="matrix(0.05250038,0,0,1.0417648,-17.950017,-613.19346)" />
  <polyline
     class="StaffLines"
     fill="none"
     stroke="#000000"
     stroke-width="2.73"
     stroke-linejoin="bevel"
     points="336.598,733.398 2847.4,733.398"
     id="polyline276"
     transform="matrix(0.05250038,0,0,1.0417648,-17.950017,-613.19346)" />
  <polyline
     class="StaffLines"
     fill="none"
     stroke="#000000"
     stroke-width="2.73"
     stroke-linejoin="bevel"
     points="336.598,634.198 2847.4,634.198"
     id="polyline277"
     transform="matrix(0.05250038,0,0,1.0417648,-17.950017,-613.19346)" />
  <polyline
     class="StaffLines"
     fill="none"
     stroke="#000000"
     stroke-width="2.73"
     stroke-linejoin="bevel"
     points="336.598,658.998 2847.4,658.998"
     id="polyline278"
     transform="matrix(0.05250038,0,0,1.0417648,-17.950017,-613.19346)" />
  <polyline
     class="StaffLines"
     fill="none"
     stroke="#000000"
     stroke-width="2.73"
     stroke-linejoin="bevel"
     points="336.598,683.798 2847.4,683.798"
     id="polyline279"
     transform="matrix(0.05250038,0,0,1.0417648,-17.950017,-613.19346)" />
  <polyline
     class="StaffLines"
     fill="none"
     stroke="#000000"
     stroke-width="2.73"
     stroke-linejoin="bevel"
     points="336.598,708.598 2847.4,708.598"
     id="polyline280"
     transform="matrix(0.05250038,0,0,1.0417648,-17.950017,-613.19346)" />
  <polyline
     class="StaffLines"
     fill="none"
     stroke="#000000"
     stroke-width="2.73"
     stroke-linejoin="bevel"
     points="336.598,733.398 2847.4,733.398"
     id="polyline281"
     transform="matrix(0.05250038,0,0,1.0417648,-17.950017,-613.19346)" />
</svg>
