<?xml version="1.0" encoding="UTF-8" standalone="no"?>
<svg
   width="206.24001"
   height="214.34"
   viewBox="0 0 206.24002 214.34001"
   version="1.2"
   id="svg117"
   sodipodi:docname="clefs-and-keys.svg"
   inkscape:version="1.3.2 (091e20e, 2023-11-25, custom)"
   xmlns:inkscape="http://www.inkscape.org/namespaces/inkscape"
   xmlns:sodipodi="http://sodipodi.sourceforge.net/DTD/sodipodi-0.dtd"
   xmlns="http://www.w3.org/2000/svg"
   xmlns:svg="http://www.w3.org/2000/svg"
   xmlns:rdf="http://www.w3.org/1999/02/22-rdf-syntax-ns#"
   xmlns:cc="http://creativecommons.org/ns#"
   xmlns:dc="http://purl.org/dc/elements/1.1/">
  <defs
     id="defs117" />
  <sodipodi:namedview
     id="namedview117"
     pagecolor="#ffffff"
     bordercolor="#000000"
     borderopacity="0.25"
     inkscape:showpageshadow="2"
     inkscape:pageopacity="0.0"
     inkscape:pagecheckerboard="0"
     inkscape:deskcolor="#d1d1d1"
     inkscape:zoom="0.32"
     inkscape:cx="2820.3125"
     inkscape:cy="-260.9375"
     inkscape:window-width="1280"
     inkscape:window-height="953"
     inkscape:window-x="2552"
     inkscape:window-y="-8"
     inkscape:window-maximized="1"
     inkscape:current-layer="svg117"
     showguides="true"
     showgrid="false">
    <inkscape:page
       x="7.3810284e-06"
       y="-1.6343829e-06"
       width="206.24002"
       height="214.34001"
       id="page334"
       margin="0"
       bleed="0"
       inkscape:export-filename="6f.svg"
       inkscape:export-xdpi="96"
       inkscape:export-ydpi="96" />
  </sodipodi:namedview>
  <title
     id="title1">Unbenannte Partitur</title>
  <desc
     id="desc1">Generated by MuseScore Studio 4.3.2</desc>
  <metadata
     id="metadata121">
    <rdf:RDF>
      <cc:Work
         rdf:about="">
        <dc:title>Unbenannte Partitur</dc:title>
      </cc:Work>
    </rdf:RDF>
  </metadata>
  <path
     class="KeySig"
     d="m 23.682108,109.88969 c -5.0904,0 -8.0492,3.1972 -8.5583,3.8269 l 0.4138,-33.182888 c 0,-0.8235 -0.6046,-1.43721 -1.4319,-1.43721 h -1.2088 c -0.8273,0 -1.4317,0.6137 -1.4317,1.43721 l 0.5091,62.118998 c 0,0.8236 0.6045,1.4372 1.4316,1.4372 0.1909,0 0.6044,-0.097 0.8114,-0.194 8.749,-4.4565 17.9116,-12.9178 17.9116,-23.57511 0,-5.361 -2.4338,-10.4311 -8.4468,-10.4311 m -8.8604,29.14591 0.3021,-20.15191 c 0.207,-0.9366 1.734,-3.9239 5.8064,-3.9239 3.6744,0 3.9768,3.5041 3.9768,5.6841 0,9.18791 -3.3564,13.01481 -10.0853,18.39171"
     id="path116"
     style="stroke-width:1.02572" />
  <path
     class="KeySig"
     d="m 51.976708,71.136102 c -5.0903,0 -8.049,3.197 -8.558,3.82679 l 0.4134,-33.1828 c 0,-0.82349 -0.6044,-1.43699 -1.4316,-1.43699 h -1.2091 c -0.8271,0 -1.4316,0.6135 -1.4316,1.43699 l 0.5091,62.118898 c 0,0.8237 0.6044,1.4371 1.4316,1.4371 0.1909,0 0.6046,-0.098 0.8114,-0.1938 8.7491,-4.4566 17.9116,-12.917798 17.9116,-23.575098 0,-5.361 -2.4338,-10.43109 -8.4468,-10.43109 m -8.8603,29.145988 0.3023,-20.152098 c 0.2067,-0.9364 1.7337,-3.9238 5.8061,-3.9238 3.6746,0 3.9767,3.504 3.9767,5.6839 0,9.1879 -3.3563,13.0147 -10.0851,18.391998"
     id="path117"
     style="stroke-width:1.02572" />
  <path
     class="KeySig"
     d="m 80.281808,122.80749 c -5.0905,0 -8.0493,3.19711 -8.5584,3.82711 l 0.4136,-33.182998 c 0,-0.8236 -0.6045,-1.4371 -1.4316,-1.4371 h -1.2089 c -0.8271,0 -1.4317,0.6135 -1.4317,1.4371 l 0.509,62.119098 c 0,0.8233 0.6046,1.4369 1.4318,1.4369 0.1908,0 0.6044,-0.098 0.8112,-0.1936 8.7489,-4.4568 17.9116,-12.9181 17.9116,-23.5753 0,-5.3609 -2.4338,-10.43121 -8.4466,-10.43121 m -8.8605,29.14601 0.3021,-20.1518 c 0.2069,-0.9367 1.734,-3.9239 5.8062,-3.9239 3.6748,0 3.9768,3.504 3.9768,5.6839 0,9.1879 -3.3562,13.0148 -10.0851,18.3918"
     id="path118"
     style="stroke-width:1.02572" />
  <path
     class="KeySig"
     d="m 108.56591,84.053992 c -5.0903,0 -8.0489,3.197 -8.558,3.8267 l 0.4137,-33.18279 c 0,-0.82341 -0.604702,-1.437 -1.431702,-1.437 h -1.2092 c -0.827,0 -1.4314,0.6136 -1.4314,1.437 l 0.509,62.118998 c 0,0.8236 0.6044,1.4371 1.4315,1.4371 0.191,0 0.6047,-0.097 0.8114,-0.1938 8.749002,-4.4565 17.911702,-12.9179 17.911702,-23.575108 0,-5.361 -2.4339,-10.4311 -8.447,-10.4311 M 99.705708,113.1999 100.00791,93.047992 c 0.2067,-0.9366 1.734,-3.9239 5.8061,-3.9239 3.6747,0 3.9769,3.5039 3.9769,5.6838 0,9.188008 -3.3565,13.014908 -10.085202,18.392008"
     id="path123"
     style="stroke-width:1.02572" />
  <path
     class="KeySig"
     d="m 136.86081,135.7255 c -5.0904,0 -8.0492,3.197 -8.5583,3.8269 l 0.4136,-33.1829 c 0,-0.8235 -0.6044,-1.4372 -1.4317,-1.4372 h -1.209 c -0.8272,0 -1.4317,0.6137 -1.4317,1.4372 l 0.509,62.11899 c 0,0.8235 0.6046,1.437 1.4318,1.437 0.191,0 0.6046,-0.097 0.8112,-0.1936 8.7492,-4.4568 17.912,-12.91789 17.912,-23.57539 0,-5.3609 -2.4339,-10.431 -8.4469,-10.431 m -8.8605,29.14589 0.3022,-20.15189 c 0.2068,-0.9364 1.7339,-3.9239 5.8064,-3.9239 3.6745,0 3.9766,3.504 3.9766,5.6841 0,9.1878 -3.3564,13.0146 -10.0852,18.39169"
     id="path124"
     style="stroke-width:1.02572" />
  <path
     class="KeySig"
     d="m 165.16571,96.971792 c -5.0905,0 -8.0492,3.197198 -8.5583,3.826998 l 0.4137,-33.183088 c 0,-0.8235 -0.6045,-1.437 -1.4319,-1.437 h -1.2087 c -0.8273,0 -1.4318,0.6135 -1.4318,1.437 l 0.5091,62.118998 c 0,0.8235 0.6044,1.4372 1.4317,1.4372 0.1909,0 0.6043,-0.098 0.8112,-0.1938 8.7491,-4.4566 17.9117,-12.91791 17.9117,-23.57511 0,-5.361 -2.4339,-10.431198 -8.4467,-10.431198 m -8.8607,29.146008 0.3024,-20.15181 c 0.2068,-0.9366 1.734,-3.924 5.8062,-3.924 3.6747,0 3.9768,3.504 3.9768,5.684 0,9.1878 -3.3563,13.0148 -10.0854,18.39181"
     id="path125"
     style="stroke-width:1.02572" />
  <path
     class="KeySig"
     d="m 193.46011,148.6434 c -5.0903,0 -8.049,3.197 -8.5579,3.8268 l 0.4135,-33.1829 c 0,-0.8234 -0.6044,-1.43701 -1.4316,-1.43701 h -1.2092 c -0.827,0 -1.4314,0.61361 -1.4314,1.43701 l 0.5088,62.11909 c 0,0.8233 0.6046,1.437 1.4318,1.437 0.1908,0 0.6045,-0.098 0.8113,-0.1937 8.7491,-4.4567 17.9117,-12.9178 17.9117,-23.57519 0,-5.361 -2.4338,-10.4311 -8.447,-10.4311 m -8.8603,29.14589 0.3024,-20.15189 c 0.2066,-0.9365 1.7339,-3.9239 5.8059,-3.9239 3.6748,0 3.9771,3.5041 3.9771,5.6839 0,9.18789 -3.3565,13.01489 -10.0854,18.39189"
     id="path126"
     style="stroke-width:1.02572" />
  <polyline
     class="StaffLines"
     fill="none"
     stroke="#000000"
     stroke-width="2.73"
     stroke-linejoin="bevel"
     points="336.598,634.198 2847.4,634.198"
     id="polyline302"
     transform="matrix(0.08213926,0,0,1.0417648,-29.235192,-613.19346)" />
  <polyline
     class="StaffLines"
     fill="none"
     stroke="#000000"
     stroke-width="2.73"
     stroke-linejoin="bevel"
     points="336.598,658.998 2847.4,658.998"
     id="polyline303"
     transform="matrix(0.08213926,0,0,1.0417648,-29.235192,-613.19346)" />
  <polyline
     class="StaffLines"
     fill="none"
     stroke="#000000"
     stroke-width="2.73"
     stroke-linejoin="bevel"
     points="336.598,683.798 2847.4,683.798"
     id="polyline304"
     transform="matrix(0.08213926,0,0,1.0417648,-29.235192,-613.19346)" />
  <polyline
     class="StaffLines"
     fill="none"
     stroke="#000000"
     stroke-width="2.73"
     stroke-linejoin="bevel"
     points="336.598,708.598 2847.4,708.598"
     id="polyline305"
     transform="matrix(0.08213926,0,0,1.0417648,-29.235192,-613.19346)" />
  <polyline
     class="StaffLines"
     fill="none"
     stroke="#000000"
     stroke-width="2.73"
     stroke-linejoin="bevel"
     points="336.598,733.398 2847.4,733.398"
     id="polyline306"
     transform="matrix(0.08213926,0,0,1.0417648,-29.235192,-613.19346)" />
  <polyline
     class="StaffLines"
     fill="none"
     stroke="#000000"
     stroke-width="2.73"
     stroke-linejoin="bevel"
     points="336.598,634.198 2847.4,634.198"
     id="polyline307"
     transform="matrix(0.08213926,0,0,1.0417648,-29.235192,-613.19346)" />
  <polyline
     class="StaffLines"
     fill="none"
     stroke="#000000"
     stroke-width="2.73"
     stroke-linejoin="bevel"
     points="336.598,658.998 2847.4,658.998"
     id="polyline308"
     transform="matrix(0.08213926,0,0,1.0417648,-29.235192,-613.19346)" />
  <polyline
     class="StaffLines"
     fill="none"
     stroke="#000000"
     stroke-width="2.73"
     stroke-linejoin="bevel"
     points="336.598,683.798 2847.4,683.798"
     id="polyline309"
     transform="matrix(0.08213926,0,0,1.0417648,-29.235192,-613.19346)" />
  <polyline
     class="StaffLines"
     fill="none"
     stroke="#000000"
     stroke-width="2.73"
     stroke-linejoin="bevel"
     points="336.598,708.598 2847.4,708.598"
     id="polyline310"
     transform="matrix(0.08213926,0,0,1.0417648,-29.235192,-613.19346)" />
  <polyline
     class="StaffLines"
     fill="none"
     stroke="#000000"
     stroke-width="2.73"
     stroke-linejoin="bevel"
     points="336.598,733.398 2847.4,733.398"
     id="polyline311"
     transform="matrix(0.08213926,0,0,1.0417648,-29.235192,-613.19346)" />
</svg>
