<?xml version="1.0" encoding="UTF-8" standalone="no"?>
<svg
   width="165.73833"
   height="214.34"
   viewBox="0 0 165.73834 214.34001"
   version="1.2"
   id="svg117"
   sodipodi:docname="clefs-and-keys.svg"
   inkscape:version="1.3.2 (091e20e, 2023-11-25, custom)"
   xmlns:inkscape="http://www.inkscape.org/namespaces/inkscape"
   xmlns:sodipodi="http://sodipodi.sourceforge.net/DTD/sodipodi-0.dtd"
   xmlns="http://www.w3.org/2000/svg"
   xmlns:svg="http://www.w3.org/2000/svg"
   xmlns:rdf="http://www.w3.org/1999/02/22-rdf-syntax-ns#"
   xmlns:cc="http://creativecommons.org/ns#"
   xmlns:dc="http://purl.org/dc/elements/1.1/">
  <defs
     id="defs117" />
  <sodipodi:namedview
     id="namedview117"
     pagecolor="#ffffff"
     bordercolor="#000000"
     borderopacity="0.25"
     inkscape:showpageshadow="2"
     inkscape:pageopacity="0.0"
     inkscape:pagecheckerboard="0"
     inkscape:deskcolor="#d1d1d1"
     inkscape:zoom="0.55647799"
     inkscape:cx="1869.7954"
     inkscape:cy="610.08702"
     inkscape:window-width="2560"
     inkscape:window-height="1009"
     inkscape:window-x="-8"
     inkscape:window-y="-8"
     inkscape:window-maximized="1"
     inkscape:current-layer="svg117"
     showguides="true"
     showgrid="false">
    <inkscape:page
       x="-1.9683195e-05"
       y="-3.4451066e-06"
       width="165.73834"
       height="214.34001"
       id="page541"
       margin="0"
       bleed="0" />
  </sodipodi:namedview>
  <title
     id="title1">Unbenannte Partitur</title>
  <desc
     id="desc1">Generated by MuseScore Studio 4.3.2</desc>
  <metadata
     id="metadata121">
    <rdf:RDF>
      <cc:Work
         rdf:about="">
        <dc:title>Unbenannte Partitur</dc:title>
      </cc:Work>
    </rdf:RDF>
  </metadata>
  <path
     class="KeySig"
     d="m 29.843768,93.889671 c -5.0902,0 -8.0491,3.1972 -8.5582,3.8269 l 0.4137,-33.18289 c 0,-0.8235 -0.6046,-1.43721 -1.4317,-1.43721 h -1.209 c -0.8271,0 -1.4316,0.6137 -1.4316,1.43721 l 0.509,62.118999 c 0,0.8236 0.6046,1.4372 1.4317,1.4372 0.1909,0 0.6045,-0.097 0.8112,-0.194 8.7491,-4.4565 17.9118,-12.9178 17.9118,-23.57511 0,-5.360999 -2.4339,-10.431099 -8.4469,-10.431099 m -8.8603,29.145909 0.3021,-20.15191 c 0.2068,-0.9366 1.7339,-3.923899 5.8062,-3.923899 3.6746,0 3.977,3.504099 3.977,5.684099 0,9.18791 -3.3565,13.01481 -10.0853,18.39171"
     id="path365"
     style="stroke-width:1.02572" />
  <path
     class="KeySig"
     d="m 58.148568,55.136081 c -5.0902,0 -8.049,3.19699 -8.5581,3.82679 l 0.4136,-33.1828 c 0,-0.82349 -0.6044,-1.43699 -1.4316,-1.43699 h -1.2091 c -0.8271,0 -1.4315,0.6135 -1.4315,1.43699 l 0.509,62.1189 c 0,0.8237 0.6043,1.4371 1.4317,1.4371 0.1909,0 0.6044,-0.098 0.8112,-0.1938 8.7492,-4.4566 17.9118,-12.9178 17.9118,-23.5751 0,-5.361 -2.4339,-10.43109 -8.447,-10.43109 m -8.8602,29.14599 0.3021,-20.1521 c 0.2069,-0.9364 1.7341,-3.9238 5.8062,-3.9238 3.6747,0 3.977,3.504 3.977,5.6839 0,9.1879 -3.3566,13.0147 -10.0853,18.392"
     id="path366"
     style="stroke-width:1.02572" />
  <path
     class="KeySig"
     d="m 86.443368,106.80747 c -5.0904,0 -8.0492,3.19711 -8.5583,3.82711 l 0.4137,-33.182999 c 0,-0.8236 -0.6045,-1.4371 -1.4317,-1.4371 h -1.2089 c -0.8272,0 -1.4316,0.6135 -1.4316,1.4371 l 0.509,62.119099 c 0,0.8233 0.6045,1.4369 1.4316,1.4369 0.1909,0 0.6045,-0.098 0.8113,-0.1936 8.7489,-4.4568 17.9117,-12.9181 17.9117,-23.5753 0,-5.3609 -2.4338,-10.43121 -8.4468,-10.43121 m -8.8604,29.14601 0.3021,-20.1518 c 0.207,-0.9367 1.734,-3.9239 5.8063,-3.9239 3.6747,0 3.9769,3.504 3.9769,5.6839 0,9.1879 -3.3565,13.0148 -10.0853,18.3918"
     id="path367"
     style="stroke-width:1.02572" />
  <path
     class="KeySig"
     d="m 114.72777,68.053971 c -5.0905,0 -8.0491,3.197 -8.5581,3.8267 l 0.4136,-33.18279 c 0,-0.82341 -0.6046,-1.437 -1.4317,-1.437 h -1.209 c -0.8273,0 -1.4316,0.6136 -1.4316,1.437 l 0.5089,62.118999 c 0,0.8236 0.6045,1.4371 1.4318,1.4371 0.1908,0 0.6043,-0.097 0.8111,-0.1938 8.7492,-4.456499 17.9117,-12.917899 17.9117,-23.575099 0,-5.36101 -2.4339,-10.43111 -8.4467,-10.43111 m -8.8605,29.14591 0.3024,-20.1519 c 0.2066,-0.9366 1.7338,-3.92391 5.8061,-3.92391 3.6746,0 3.9769,3.50391 3.9769,5.68381 0,9.188 -3.3564,13.0149 -10.0854,18.392"
     id="path368"
     style="stroke-width:1.02572" />
  <path
     class="KeySig"
     d="m 143.02227,119.72548 c -5.0903,0 -8.049,3.197 -8.5581,3.8269 l 0.4136,-33.182899 c 0,-0.8235 -0.6044,-1.4372 -1.4316,-1.4372 h -1.209 c -0.8272,0 -1.4317,0.6137 -1.4317,1.4372 l 0.5091,62.118989 c 0,0.8235 0.6044,1.437 1.4315,1.437 0.1909,0 0.6046,-0.097 0.8114,-0.1936 8.7492,-4.4568 17.912,-12.91789 17.912,-23.57539 0,-5.3609 -2.4339,-10.431 -8.4472,-10.431 m -8.8602,29.14589 0.3021,-20.15189 c 0.2068,-0.9364 1.734,-3.9239 5.8061,-3.9239 3.6747,0 3.9771,3.504 3.9771,5.6841 0,9.1878 -3.3566,13.0146 -10.0853,18.39169"
     id="path369"
     style="stroke-width:1.02572" />
  <polyline
     class="StaffLines"
     fill="none"
     stroke="#000000"
     stroke-width="2.73"
     stroke-linejoin="bevel"
     points="336.598,634.198 2847.4,634.198"
     id="polyline490"
     transform="matrix(0.0659746,0,0,1.0417648,-22.206832,-613.19352)" />
  <polyline
     class="StaffLines"
     fill="none"
     stroke="#000000"
     stroke-width="2.73"
     stroke-linejoin="bevel"
     points="336.598,658.998 2847.4,658.998"
     id="polyline491"
     transform="matrix(0.0659746,0,0,1.0417648,-22.206832,-613.19352)" />
  <polyline
     class="StaffLines"
     fill="none"
     stroke="#000000"
     stroke-width="2.73"
     stroke-linejoin="bevel"
     points="336.598,683.798 2847.4,683.798"
     id="polyline492"
     transform="matrix(0.0659746,0,0,1.0417648,-22.206832,-613.19352)" />
  <polyline
     class="StaffLines"
     fill="none"
     stroke="#000000"
     stroke-width="2.73"
     stroke-linejoin="bevel"
     points="336.598,708.598 2847.4,708.598"
     id="polyline493"
     transform="matrix(0.0659746,0,0,1.0417648,-22.206832,-613.19352)" />
  <polyline
     class="StaffLines"
     fill="none"
     stroke="#000000"
     stroke-width="2.73"
     stroke-linejoin="bevel"
     points="336.598,733.398 2847.4,733.398"
     id="polyline494"
     transform="matrix(0.0659746,0,0,1.0417648,-22.206832,-613.19352)" />
  <polyline
     class="StaffLines"
     fill="none"
     stroke="#000000"
     stroke-width="2.73"
     stroke-linejoin="bevel"
     points="336.598,634.198 2847.4,634.198"
     id="polyline495"
     transform="matrix(0.0659746,0,0,1.0417648,-22.206832,-613.19352)" />
  <polyline
     class="StaffLines"
     fill="none"
     stroke="#000000"
     stroke-width="2.73"
     stroke-linejoin="bevel"
     points="336.598,658.998 2847.4,658.998"
     id="polyline496"
     transform="matrix(0.0659746,0,0,1.0417648,-22.206832,-613.19352)" />
  <polyline
     class="StaffLines"
     fill="none"
     stroke="#000000"
     stroke-width="2.73"
     stroke-linejoin="bevel"
     points="336.598,683.798 2847.4,683.798"
     id="polyline497"
     transform="matrix(0.0659746,0,0,1.0417648,-22.206832,-613.19352)" />
  <polyline
     class="StaffLines"
     fill="none"
     stroke="#000000"
     stroke-width="2.73"
     stroke-linejoin="bevel"
     points="336.598,708.598 2847.4,708.598"
     id="polyline498"
     transform="matrix(0.0659746,0,0,1.0417648,-22.206832,-613.19352)" />
  <polyline
     class="StaffLines"
     fill="none"
     stroke="#000000"
     stroke-width="2.73"
     stroke-linejoin="bevel"
     points="336.598,733.398 2847.4,733.398"
     id="polyline499"
     transform="matrix(0.0659746,0,0,1.0417648,-22.206832,-613.19352)" />
</svg>
