<?xml version="1.0" encoding="UTF-8" standalone="no"?>
<svg
   width="56.278198"
   height="214.34"
   viewBox="0 0 56.278202 214.34001"
   version="1.2"
   id="svg117"
   sodipodi:docname="clefs-and-keys.svg"
   inkscape:version="1.3.2 (091e20e, 2023-11-25, custom)"
   xmlns:inkscape="http://www.inkscape.org/namespaces/inkscape"
   xmlns:sodipodi="http://sodipodi.sourceforge.net/DTD/sodipodi-0.dtd"
   xmlns="http://www.w3.org/2000/svg"
   xmlns:svg="http://www.w3.org/2000/svg"
   xmlns:rdf="http://www.w3.org/1999/02/22-rdf-syntax-ns#"
   xmlns:cc="http://creativecommons.org/ns#"
   xmlns:dc="http://purl.org/dc/elements/1.1/">
  <defs
     id="defs117" />
  <sodipodi:namedview
     id="namedview117"
     pagecolor="#ffffff"
     bordercolor="#000000"
     borderopacity="0.25"
     inkscape:showpageshadow="2"
     inkscape:pageopacity="0.0"
     inkscape:pagecheckerboard="0"
     inkscape:deskcolor="#d1d1d1"
     inkscape:zoom="0.55647799"
     inkscape:cx="1869.7954"
     inkscape:cy="610.08702"
     inkscape:window-width="2560"
     inkscape:window-height="1009"
     inkscape:window-x="-8"
     inkscape:window-y="-8"
     inkscape:window-maximized="1"
     inkscape:current-layer="svg117"
     showguides="true"
     showgrid="false">
    <inkscape:page
       x="1.1943753e-05"
       y="-3.4451066e-06"
       width="56.278202"
       height="214.34001"
       id="page537"
       margin="0"
       bleed="0" />
  </sodipodi:namedview>
  <title
     id="title1">Unbenannte Partitur</title>
  <desc
     id="desc1">Generated by MuseScore Studio 4.3.2</desc>
  <metadata
     id="metadata121">
    <rdf:RDF>
      <cc:Work
         rdf:about="">
        <dc:title>Unbenannte Partitur</dc:title>
      </cc:Work>
    </rdf:RDF>
  </metadata>
  <path
     class="KeySig"
     d="m 31.052933,93.680391 c -5.0905,0 -8.0492,3.19713 -8.5583,3.82689 l 0.4137,-33.18285 c 0,-0.82344 -0.6045,-1.43707 -1.4316,-1.43707 h -1.2091 c -0.8273,0 -1.4317,0.61364 -1.4317,1.43707 l 0.509,62.118929 c 0,0.82353 0.6046,1.43718 1.4317,1.43718 0.191,0 0.6046,-0.0968 0.8112,-0.19379 8.7493,-4.45665 17.912,-12.91792 17.912,-23.57517 0,-5.360979 -2.4339,-10.431189 -8.4469,-10.431189 m -8.8605,29.145949 0.3022,-20.15187 c 0.2068,-0.93655 1.734,-3.923869 5.8064,-3.923869 3.6744,0 3.9767,3.504029 3.9767,5.683919 0,9.18784 -3.3566,13.01477 -10.0853,18.39182"
     id="path390"
     style="stroke-width:1.02572" />
  <polyline
     class="StaffLines"
     fill="none"
     stroke="#000000"
     stroke-width="2.73"
     stroke-linejoin="bevel"
     points="336.598,634.198 2847.4,634.198"
     id="polyline450"
     transform="matrix(0.0224173,0,0,1.0417648,-7.5453667,-613.19352)" />
  <polyline
     class="StaffLines"
     fill="none"
     stroke="#000000"
     stroke-width="2.73"
     stroke-linejoin="bevel"
     points="336.598,658.998 2847.4,658.998"
     id="polyline451"
     transform="matrix(0.0224173,0,0,1.0417648,-7.5453667,-613.19352)" />
  <polyline
     class="StaffLines"
     fill="none"
     stroke="#000000"
     stroke-width="2.73"
     stroke-linejoin="bevel"
     points="336.598,683.798 2847.4,683.798"
     id="polyline452"
     transform="matrix(0.0224173,0,0,1.0417648,-7.5453667,-613.19352)" />
  <polyline
     class="StaffLines"
     fill="none"
     stroke="#000000"
     stroke-width="2.73"
     stroke-linejoin="bevel"
     points="336.598,708.598 2847.4,708.598"
     id="polyline453"
     transform="matrix(0.0224173,0,0,1.0417648,-7.5453667,-613.19352)" />
  <polyline
     class="StaffLines"
     fill="none"
     stroke="#000000"
     stroke-width="2.73"
     stroke-linejoin="bevel"
     points="336.598,733.398 2847.4,733.398"
     id="polyline454"
     transform="matrix(0.0224173,0,0,1.0417648,-7.5453667,-613.19352)" />
  <polyline
     class="StaffLines"
     fill="none"
     stroke="#000000"
     stroke-width="2.73"
     stroke-linejoin="bevel"
     points="336.598,634.198 2847.4,634.198"
     id="polyline455"
     transform="matrix(0.0224173,0,0,1.0417648,-7.5453667,-613.19352)" />
  <polyline
     class="StaffLines"
     fill="none"
     stroke="#000000"
     stroke-width="2.73"
     stroke-linejoin="bevel"
     points="336.598,658.998 2847.4,658.998"
     id="polyline456"
     transform="matrix(0.0224173,0,0,1.0417648,-7.5453667,-613.19352)" />
  <polyline
     class="StaffLines"
     fill="none"
     stroke="#000000"
     stroke-width="2.73"
     stroke-linejoin="bevel"
     points="336.598,683.798 2847.4,683.798"
     id="polyline457"
     transform="matrix(0.0224173,0,0,1.0417648,-7.5453667,-613.19352)" />
  <polyline
     class="StaffLines"
     fill="none"
     stroke="#000000"
     stroke-width="2.73"
     stroke-linejoin="bevel"
     points="336.598,708.598 2847.4,708.598"
     id="polyline458"
     transform="matrix(0.0224173,0,0,1.0417648,-7.5453667,-613.19352)" />
  <polyline
     class="StaffLines"
     fill="none"
     stroke="#000000"
     stroke-width="2.73"
     stroke-linejoin="bevel"
     points="336.598,733.398 2847.4,733.398"
     id="polyline459"
     transform="matrix(0.0224173,0,0,1.0417648,-7.5453667,-613.19352)" />
</svg>
