<?xml version="1.0" encoding="UTF-8" standalone="no"?>
<svg
   width="178.5696"
   height="214.34"
   viewBox="0 0 178.56961 214.34001"
   version="1.2"
   id="svg117"
   xmlns="http://www.w3.org/2000/svg"
   xmlns:svg="http://www.w3.org/2000/svg"
   xmlns:rdf="http://www.w3.org/1999/02/22-rdf-syntax-ns#"
   xmlns:cc="http://creativecommons.org/ns#"
   xmlns:dc="http://purl.org/dc/elements/1.1/">
  <defs
     id="defs117" />
  <title
     id="title1">Unbenannte Partitur</title>
  <desc
     id="desc1">Generated by MuseScore Studio 4.3.2</desc>
  <metadata
     id="metadata121">
    <rdf:RDF>
      <cc:Work
         rdf:about="">
        <dc:title>Unbenannte Partitur</dc:title>
      </cc:Work>
    </rdf:RDF>
  </metadata>
  <path
     class="KeySig"
     d="m 20.554954,83.889686 c -5.0902,0 -8.049,3.1972 -8.5581,3.8269 l 0.4136,-33.1829 c 0,-0.8235 -0.6044,-1.4372 -1.4316,-1.4372 H 9.7697536 c -0.827,0 -1.4316,0.6137 -1.4316,1.4372 l 0.5091,62.119004 c 0,0.8236 0.6043,1.4372 1.4316004,1.4372 0.1908,0 0.6045,-0.097 0.8113,-0.194 8.749,-4.4565 17.9115,-12.9178 17.9115,-23.575104 0,-5.361 -2.4335,-10.4311 -8.4467,-10.4311 m -8.8604,29.145904 0.3023,-20.151904 c 0.2068,-0.9366 1.7339,-3.9239 5.8061,-3.9239 3.6748,0 3.9769,3.5041 3.9769,5.6841 0,9.187904 -3.3563,13.014804 -10.0853,18.391704"
     id="path159"
     style="stroke-width:1.02572" />
  <path
     class="KeySig"
     d="m 48.849654,45.136086 c -5.0904,0 -8.0491,3.197 -8.5581,3.8268 l 0.4136,-33.1828 c 0,-0.8235 -0.6044,-1.437 -1.4317,-1.437 h -1.209 c -0.8272,0 -1.4316,0.6135 -1.4316,1.437 l 0.5091,62.1189 c 0,0.8237 0.6044,1.4371 1.4316,1.4371 0.1909,0 0.6045,-0.098 0.8112,-0.1938 8.7492,-4.4566 17.9118,-12.9178 17.9118,-23.5751 0,-5.361 -2.4339,-10.4311 -8.4469,-10.4311 m -8.8604,29.146 0.3023,-20.1521 c 0.2067,-0.9364 1.7338,-3.9238 5.8061,-3.9238 3.6747,0 3.977,3.504 3.977,5.6839 0,9.1879 -3.3565,13.0147 -10.0854,18.392"
     id="path160"
     style="stroke-width:1.02572" />
  <path
     class="KeySig"
     d="m 77.144354,96.807486 c -5.0903,0 -8.0492,3.197104 -8.5582,3.827104 l 0.4135,-33.183004 c 0,-0.8236 -0.6043,-1.4371 -1.4316,-1.4371 h -1.2091 c -0.8271,0 -1.4316,0.6135 -1.4316,1.4371 l 0.5091,62.119104 c 0,0.8233 0.6044,1.4369 1.4318,1.4369 0.1908,0 0.6045,-0.098 0.8112,-0.1936 8.7491,-4.4568 17.9117,-12.9181 17.9117,-23.5753 0,-5.3609 -2.4337,-10.431204 -8.4468,-10.431204 m -8.8604,29.146004 0.3022,-20.1518 c 0.2068,-0.9367 1.7339,-3.9239 5.8063,-3.9239 3.6746,0 3.9767,3.504 3.9767,5.6839 0,9.1879 -3.3564,13.0148 -10.0852,18.3918"
     id="path161"
     style="stroke-width:1.02572" />
  <path
     class="KeySig"
     d="m 105.42865,58.053986 c -5.0903,0 -8.049196,3.197 -8.558196,3.8267 l 0.4136,-33.1828 c 0,-0.8234 -0.6044,-1.437 -1.4315,-1.437 h -1.2089 c -0.8273,0 -1.4317,0.6136 -1.4317,1.437 l 0.5091,62.119 c 0,0.8236 0.6043,1.4371 1.4315,1.4371 0.1909,0 0.6044,-0.097 0.8114,-0.1938 8.748996,-4.4565 17.911696,-12.9179 17.911696,-23.5751 0,-5.361 -2.4339,-10.4311 -8.447,-10.4311 m -8.860296,29.1459 0.3021,-20.1519 c 0.2069,-0.9366 1.7341,-3.9239 5.806296,-3.9239 3.6745,0 3.9769,3.5039 3.9769,5.6838 0,9.188 -3.3564,13.0149 -10.085296,18.392"
     id="path162"
     style="stroke-width:1.02572" />
  <path
     class="KeySig"
     d="m 133.73365,109.72549 c -5.0903,0 -8.0491,3.197 -8.5582,3.8269 l 0.4136,-33.182904 c 0,-0.8235 -0.6044,-1.4372 -1.4317,-1.4372 h -1.2089 c -0.8271,0 -1.4317,0.6137 -1.4317,1.4372 l 0.5091,62.119004 c 0,0.8235 0.6045,1.437 1.4316,1.437 0.1909,0 0.6046,-0.097 0.8113,-0.1936 8.749,-4.4568 17.9117,-12.9179 17.9117,-23.5754 0,-5.3609 -2.4337,-10.431 -8.4468,-10.431 m -8.8603,29.1459 0.3021,-20.1519 c 0.2068,-0.9364 1.7339,-3.9239 5.8062,-3.9239 3.6747,0 3.9769,3.504 3.9769,5.6841 0,9.1878 -3.3565,13.0146 -10.0852,18.3917"
     id="path163"
     style="stroke-width:1.02572" />
  <path
     class="KeySig"
     d="m 162.02835,70.971786 c -5.0905,0 -8.0492,3.1972 -8.5581,3.827 l 0.4134,-33.1831 c 0,-0.8235 -0.6045,-1.437 -1.4316,-1.437 h -1.209 c -0.8272,0 -1.4316,0.6135 -1.4316,1.437 l 0.5091,62.119004 c 0,0.8235 0.6044,1.4372 1.4315,1.4372 0.1911,0 0.6046,-0.098 0.8113,-0.1938 8.7491,-4.4566 17.9118,-12.917904 17.9118,-23.575104 0,-5.361 -2.4339,-10.4312 -8.4468,-10.4312 m -8.8605,29.146004 0.3024,-20.151804 c 0.2066,-0.9366 1.7337,-3.924 5.8062,-3.924 3.6744,0 3.9767,3.504 3.9767,5.684 0,9.1878 -3.3564,13.0148 -10.0853,18.391804"
     id="path164"
     style="stroke-width:1.02572" />
  <g
     id="g61"
     transform="translate(-3887.2698,261.7502)">
    <polyline
       class="StaffLines"
       fill="none"
       stroke="#000000"
       stroke-width="2.73"
       stroke-linejoin="bevel"
       points="336.598,634.198 2847.4,634.198"
       id="polyline52"
       transform="matrix(0.03805572,0,0,1.0417648,880.4535,-874.94366)" />
    <polyline
       class="StaffLines"
       fill="none"
       stroke="#000000"
       stroke-width="2.73"
       stroke-linejoin="bevel"
       points="336.598,658.998 2847.4,658.998"
       id="polyline53"
       transform="matrix(0.03805572,0,0,1.0417648,880.4535,-874.94366)" />
    <polyline
       class="StaffLines"
       fill="none"
       stroke="#000000"
       stroke-width="2.73"
       stroke-linejoin="bevel"
       points="336.598,683.798 2847.4,683.798"
       id="polyline54"
       transform="matrix(0.03805572,0,0,1.0417648,880.4535,-874.94366)" />
    <polyline
       class="StaffLines"
       fill="none"
       stroke="#000000"
       stroke-width="2.73"
       stroke-linejoin="bevel"
       points="336.598,708.598 2847.4,708.598"
       id="polyline55"
       transform="matrix(0.03805572,0,0,1.0417648,880.4535,-874.94366)" />
    <polyline
       class="StaffLines"
       fill="none"
       stroke="#000000"
       stroke-width="2.73"
       stroke-linejoin="bevel"
       points="336.598,733.398 2847.4,733.398"
       id="polyline56"
       transform="matrix(0.03805572,0,0,1.0417648,880.4535,-874.94366)" />
    <polyline
       class="StaffLines"
       fill="none"
       stroke="#000000"
       stroke-width="2.73"
       stroke-linejoin="bevel"
       points="336.598,634.198 2847.4,634.198"
       id="polyline57"
       transform="matrix(0.03805572,0,0,1.0417648,880.4535,-874.94366)" />
    <polyline
       class="StaffLines"
       fill="none"
       stroke="#000000"
       stroke-width="2.73"
       stroke-linejoin="bevel"
       points="336.598,658.998 2847.4,658.998"
       id="polyline58"
       transform="matrix(0.03805572,0,0,1.0417648,880.4535,-874.94366)" />
    <polyline
       class="StaffLines"
       fill="none"
       stroke="#000000"
       stroke-width="2.73"
       stroke-linejoin="bevel"
       points="336.598,683.798 2847.4,683.798"
       id="polyline59"
       transform="matrix(0.03805572,0,0,1.0417648,880.4535,-874.94366)" />
    <polyline
       class="StaffLines"
       fill="none"
       stroke="#000000"
       stroke-width="2.73"
       stroke-linejoin="bevel"
       points="336.598,708.598 2847.4,708.598"
       id="polyline60"
       transform="matrix(0.03805572,0,0,1.0417648,880.4535,-874.94366)" />
    <polyline
       class="StaffLines"
       fill="none"
       stroke="#000000"
       stroke-width="2.73"
       stroke-linejoin="bevel"
       points="336.598,733.398 2847.4,733.398"
       id="polyline61"
       transform="matrix(0.03805572,0,0,1.0417648,880.4535,-874.94366)" />
    <polyline
       class="StaffLines"
       fill="none"
       stroke="#000000"
       stroke-width="2.73"
       stroke-linejoin="bevel"
       points="336.598,634.198 2847.4,634.198"
       id="polyline62"
       transform="matrix(0.04569673,0,0,1.0417648,1167.8816,-874.94366)" />
    <polyline
       class="StaffLines"
       fill="none"
       stroke="#000000"
       stroke-width="2.73"
       stroke-linejoin="bevel"
       points="336.598,658.998 2847.4,658.998"
       id="polyline63"
       transform="matrix(0.04569673,0,0,1.0417648,1167.8816,-874.94366)" />
    <polyline
       class="StaffLines"
       fill="none"
       stroke="#000000"
       stroke-width="2.73"
       stroke-linejoin="bevel"
       points="336.598,683.798 2847.4,683.798"
       id="polyline64"
       transform="matrix(0.04569673,0,0,1.0417648,1167.8816,-874.94366)" />
    <polyline
       class="StaffLines"
       fill="none"
       stroke="#000000"
       stroke-width="2.73"
       stroke-linejoin="bevel"
       points="336.598,708.598 2847.4,708.598"
       id="polyline65"
       transform="matrix(0.04569673,0,0,1.0417648,1167.8816,-874.94366)" />
    <polyline
       class="StaffLines"
       fill="none"
       stroke="#000000"
       stroke-width="2.73"
       stroke-linejoin="bevel"
       points="336.598,733.398 2847.4,733.398"
       id="polyline66"
       transform="matrix(0.04569673,0,0,1.0417648,1167.8816,-874.94366)" />
    <polyline
       class="StaffLines"
       fill="none"
       stroke="#000000"
       stroke-width="2.73"
       stroke-linejoin="bevel"
       points="336.598,634.198 2847.4,634.198"
       id="polyline67"
       transform="matrix(0.04569673,0,0,1.0417648,1167.8816,-874.94366)" />
    <polyline
       class="StaffLines"
       fill="none"
       stroke="#000000"
       stroke-width="2.73"
       stroke-linejoin="bevel"
       points="336.598,658.998 2847.4,658.998"
       id="polyline68"
       transform="matrix(0.04569673,0,0,1.0417648,1167.8816,-874.94366)" />
    <polyline
       class="StaffLines"
       fill="none"
       stroke="#000000"
       stroke-width="2.73"
       stroke-linejoin="bevel"
       points="336.598,683.798 2847.4,683.798"
       id="polyline69"
       transform="matrix(0.04569673,0,0,1.0417648,1167.8816,-874.94366)" />
    <polyline
       class="StaffLines"
       fill="none"
       stroke="#000000"
       stroke-width="2.73"
       stroke-linejoin="bevel"
       points="336.598,708.598 2847.4,708.598"
       id="polyline70"
       transform="matrix(0.04569673,0,0,1.0417648,1167.8816,-874.94366)" />
    <polyline
       class="StaffLines"
       fill="none"
       stroke="#000000"
       stroke-width="2.73"
       stroke-linejoin="bevel"
       points="336.598,733.398 2847.4,733.398"
       id="polyline71"
       transform="matrix(0.04569673,0,0,1.0417648,1167.8816,-874.94366)" />
    <polyline
       class="StaffLines"
       fill="none"
       stroke="#000000"
       stroke-width="2.73"
       stroke-linejoin="bevel"
       points="336.598,634.198 2847.4,634.198"
       id="polyline72"
       transform="matrix(0.05426658,0,0,1.0417648,1428.997,-874.94366)" />
    <polyline
       class="StaffLines"
       fill="none"
       stroke="#000000"
       stroke-width="2.73"
       stroke-linejoin="bevel"
       points="336.598,658.998 2847.4,658.998"
       id="polyline73"
       transform="matrix(0.05426658,0,0,1.0417648,1428.997,-874.94366)" />
    <polyline
       class="StaffLines"
       fill="none"
       stroke="#000000"
       stroke-width="2.73"
       stroke-linejoin="bevel"
       points="336.598,683.798 2847.4,683.798"
       id="polyline74"
       transform="matrix(0.05426658,0,0,1.0417648,1428.997,-874.94366)" />
    <polyline
       class="StaffLines"
       fill="none"
       stroke="#000000"
       stroke-width="2.73"
       stroke-linejoin="bevel"
       points="336.598,708.598 2847.4,708.598"
       id="polyline75"
       transform="matrix(0.05426658,0,0,1.0417648,1428.997,-874.94366)" />
    <polyline
       class="StaffLines"
       fill="none"
       stroke="#000000"
       stroke-width="2.73"
       stroke-linejoin="bevel"
       points="336.598,733.398 2847.4,733.398"
       id="polyline76"
       transform="matrix(0.05426658,0,0,1.0417648,1428.997,-874.94366)" />
    <polyline
       class="StaffLines"
       fill="none"
       stroke="#000000"
       stroke-width="2.73"
       stroke-linejoin="bevel"
       points="336.598,634.198 2847.4,634.198"
       id="polyline77"
       transform="matrix(0.05426658,0,0,1.0417648,1428.997,-874.94366)" />
    <polyline
       class="StaffLines"
       fill="none"
       stroke="#000000"
       stroke-width="2.73"
       stroke-linejoin="bevel"
       points="336.598,658.998 2847.4,658.998"
       id="polyline78"
       transform="matrix(0.05426658,0,0,1.0417648,1428.997,-874.94366)" />
    <polyline
       class="StaffLines"
       fill="none"
       stroke="#000000"
       stroke-width="2.73"
       stroke-linejoin="bevel"
       points="336.598,683.798 2847.4,683.798"
       id="polyline79"
       transform="matrix(0.05426658,0,0,1.0417648,1428.997,-874.94366)" />
    <polyline
       class="StaffLines"
       fill="none"
       stroke="#000000"
       stroke-width="2.73"
       stroke-linejoin="bevel"
       points="336.598,708.598 2847.4,708.598"
       id="polyline80"
       transform="matrix(0.05426658,0,0,1.0417648,1428.997,-874.94366)" />
    <polyline
       class="StaffLines"
       fill="none"
       stroke="#000000"
       stroke-width="2.73"
       stroke-linejoin="bevel"
       points="336.598,733.398 2847.4,733.398"
       id="polyline81"
       transform="matrix(0.05426658,0,0,1.0417648,1428.997,-874.94366)" />
    <polyline
       class="StaffLines"
       fill="none"
       stroke="#000000"
       stroke-width="2.73"
       stroke-linejoin="bevel"
       points="336.598,634.198 2847.4,634.198"
       id="polyline82"
       transform="matrix(0.06428468,0,0,1.0417648,1691.6249,-874.94366)" />
    <polyline
       class="StaffLines"
       fill="none"
       stroke="#000000"
       stroke-width="2.73"
       stroke-linejoin="bevel"
       points="336.598,658.998 2847.4,658.998"
       id="polyline83"
       transform="matrix(0.06428468,0,0,1.0417648,1691.6249,-874.94366)" />
    <polyline
       class="StaffLines"
       fill="none"
       stroke="#000000"
       stroke-width="2.73"
       stroke-linejoin="bevel"
       points="336.598,683.798 2847.4,683.798"
       id="polyline84"
       transform="matrix(0.06428468,0,0,1.0417648,1691.6249,-874.94366)" />
    <polyline
       class="StaffLines"
       fill="none"
       stroke="#000000"
       stroke-width="2.73"
       stroke-linejoin="bevel"
       points="336.598,708.598 2847.4,708.598"
       id="polyline85"
       transform="matrix(0.06428468,0,0,1.0417648,1691.6249,-874.94366)" />
    <polyline
       class="StaffLines"
       fill="none"
       stroke="#000000"
       stroke-width="2.73"
       stroke-linejoin="bevel"
       points="336.598,733.398 2847.4,733.398"
       id="polyline86"
       transform="matrix(0.06428468,0,0,1.0417648,1691.6249,-874.94366)" />
    <polyline
       class="StaffLines"
       fill="none"
       stroke="#000000"
       stroke-width="2.73"
       stroke-linejoin="bevel"
       points="336.598,634.198 2847.4,634.198"
       id="polyline87"
       transform="matrix(0.06428468,0,0,1.0417648,1691.6249,-874.94366)" />
    <polyline
       class="StaffLines"
       fill="none"
       stroke="#000000"
       stroke-width="2.73"
       stroke-linejoin="bevel"
       points="336.598,658.998 2847.4,658.998"
       id="polyline88"
       transform="matrix(0.06428468,0,0,1.0417648,1691.6249,-874.94366)" />
    <polyline
       class="StaffLines"
       fill="none"
       stroke="#000000"
       stroke-width="2.73"
       stroke-linejoin="bevel"
       points="336.598,683.798 2847.4,683.798"
       id="polyline89"
       transform="matrix(0.06428468,0,0,1.0417648,1691.6249,-874.94366)" />
    <polyline
       class="StaffLines"
       fill="none"
       stroke="#000000"
       stroke-width="2.73"
       stroke-linejoin="bevel"
       points="336.598,708.598 2847.4,708.598"
       id="polyline90"
       transform="matrix(0.06428468,0,0,1.0417648,1691.6249,-874.94366)" />
    <polyline
       class="StaffLines"
       fill="none"
       stroke="#000000"
       stroke-width="2.73"
       stroke-linejoin="bevel"
       points="336.598,733.398 2847.4,733.398"
       id="polyline91"
       transform="matrix(0.06428468,0,0,1.0417648,1691.6249,-874.94366)" />
    <polyline
       class="StaffLines"
       fill="none"
       stroke="#000000"
       stroke-width="2.73"
       stroke-linejoin="bevel"
       points="336.598,634.198 2847.4,634.198"
       id="polyline92"
       transform="matrix(0.074153,0,0,1.0417648,1952.3033,-874.94366)" />
    <polyline
       class="StaffLines"
       fill="none"
       stroke="#000000"
       stroke-width="2.73"
       stroke-linejoin="bevel"
       points="336.598,658.998 2847.4,658.998"
       id="polyline93"
       transform="matrix(0.074153,0,0,1.0417648,1952.3033,-874.94366)" />
    <polyline
       class="StaffLines"
       fill="none"
       stroke="#000000"
       stroke-width="2.73"
       stroke-linejoin="bevel"
       points="336.598,683.798 2847.4,683.798"
       id="polyline94"
       transform="matrix(0.074153,0,0,1.0417648,1952.3033,-874.94366)" />
    <polyline
       class="StaffLines"
       fill="none"
       stroke="#000000"
       stroke-width="2.73"
       stroke-linejoin="bevel"
       points="336.598,708.598 2847.4,708.598"
       id="polyline95"
       transform="matrix(0.074153,0,0,1.0417648,1952.3033,-874.94366)" />
    <polyline
       class="StaffLines"
       fill="none"
       stroke="#000000"
       stroke-width="2.73"
       stroke-linejoin="bevel"
       points="336.598,733.398 2847.4,733.398"
       id="polyline96"
       transform="matrix(0.074153,0,0,1.0417648,1952.3033,-874.94366)" />
    <polyline
       class="StaffLines"
       fill="none"
       stroke="#000000"
       stroke-width="2.73"
       stroke-linejoin="bevel"
       points="336.598,634.198 2847.4,634.198"
       id="polyline97"
       transform="matrix(0.074153,0,0,1.0417648,1952.3033,-874.94366)" />
    <polyline
       class="StaffLines"
       fill="none"
       stroke="#000000"
       stroke-width="2.73"
       stroke-linejoin="bevel"
       points="336.598,658.998 2847.4,658.998"
       id="polyline98"
       transform="matrix(0.074153,0,0,1.0417648,1952.3033,-874.94366)" />
    <polyline
       class="StaffLines"
       fill="none"
       stroke="#000000"
       stroke-width="2.73"
       stroke-linejoin="bevel"
       points="336.598,683.798 2847.4,683.798"
       id="polyline99"
       transform="matrix(0.074153,0,0,1.0417648,1952.3033,-874.94366)" />
    <polyline
       class="StaffLines"
       fill="none"
       stroke="#000000"
       stroke-width="2.73"
       stroke-linejoin="bevel"
       points="336.598,708.598 2847.4,708.598"
       id="polyline100"
       transform="matrix(0.074153,0,0,1.0417648,1952.3033,-874.94366)" />
    <polyline
       class="StaffLines"
       fill="none"
       stroke="#000000"
       stroke-width="2.73"
       stroke-linejoin="bevel"
       points="336.598,733.398 2847.4,733.398"
       id="polyline101"
       transform="matrix(0.074153,0,0,1.0417648,1952.3033,-874.94366)" />
    <polyline
       class="StaffLines"
       fill="none"
       stroke="#000000"
       stroke-width="2.73"
       stroke-linejoin="bevel"
       points="336.598,634.198 2847.4,634.198"
       id="polyline102"
       transform="matrix(0.08213926,0,0,1.0417648,2217.6151,-874.94366)" />
    <polyline
       class="StaffLines"
       fill="none"
       stroke="#000000"
       stroke-width="2.73"
       stroke-linejoin="bevel"
       points="336.598,658.998 2847.4,658.998"
       id="polyline103"
       transform="matrix(0.08213926,0,0,1.0417648,2217.6151,-874.94366)" />
    <polyline
       class="StaffLines"
       fill="none"
       stroke="#000000"
       stroke-width="2.73"
       stroke-linejoin="bevel"
       points="336.598,683.798 2847.4,683.798"
       id="polyline104"
       transform="matrix(0.08213926,0,0,1.0417648,2217.6151,-874.94366)" />
    <polyline
       class="StaffLines"
       fill="none"
       stroke="#000000"
       stroke-width="2.73"
       stroke-linejoin="bevel"
       points="336.598,708.598 2847.4,708.598"
       id="polyline105"
       transform="matrix(0.08213926,0,0,1.0417648,2217.6151,-874.94366)" />
    <polyline
       class="StaffLines"
       fill="none"
       stroke="#000000"
       stroke-width="2.73"
       stroke-linejoin="bevel"
       points="336.598,733.398 2847.4,733.398"
       id="polyline106"
       transform="matrix(0.08213926,0,0,1.0417648,2217.6151,-874.94366)" />
    <polyline
       class="StaffLines"
       fill="none"
       stroke="#000000"
       stroke-width="2.73"
       stroke-linejoin="bevel"
       points="336.598,634.198 2847.4,634.198"
       id="polyline107"
       transform="matrix(0.08213926,0,0,1.0417648,2217.6151,-874.94366)" />
    <polyline
       class="StaffLines"
       fill="none"
       stroke="#000000"
       stroke-width="2.73"
       stroke-linejoin="bevel"
       points="336.598,658.998 2847.4,658.998"
       id="polyline108"
       transform="matrix(0.08213926,0,0,1.0417648,2217.6151,-874.94366)" />
    <polyline
       class="StaffLines"
       fill="none"
       stroke="#000000"
       stroke-width="2.73"
       stroke-linejoin="bevel"
       points="336.598,683.798 2847.4,683.798"
       id="polyline109"
       transform="matrix(0.08213926,0,0,1.0417648,2217.6151,-874.94366)" />
    <polyline
       class="StaffLines"
       fill="none"
       stroke="#000000"
       stroke-width="2.73"
       stroke-linejoin="bevel"
       points="336.598,708.598 2847.4,708.598"
       id="polyline110"
       transform="matrix(0.08213926,0,0,1.0417648,2217.6151,-874.94366)" />
    <polyline
       class="StaffLines"
       fill="none"
       stroke="#000000"
       stroke-width="2.73"
       stroke-linejoin="bevel"
       points="336.598,733.398 2847.4,733.398"
       id="polyline111"
       transform="matrix(0.08213926,0,0,1.0417648,2217.6151,-874.94366)" />
    <polyline
       class="StaffLines"
       fill="none"
       stroke="#000000"
       stroke-width="2.73"
       stroke-linejoin="bevel"
       points="336.598,634.198 2847.4,634.198"
       id="polyline112"
       transform="matrix(0.0224173,0,0,1.0417648,2489.7174,-874.94366)" />
    <polyline
       class="StaffLines"
       fill="none"
       stroke="#000000"
       stroke-width="2.73"
       stroke-linejoin="bevel"
       points="336.598,658.998 2847.4,658.998"
       id="polyline113"
       transform="matrix(0.0224173,0,0,1.0417648,2489.7174,-874.94366)" />
    <polyline
       class="StaffLines"
       fill="none"
       stroke="#000000"
       stroke-width="2.73"
       stroke-linejoin="bevel"
       points="336.598,683.798 2847.4,683.798"
       id="polyline114"
       transform="matrix(0.0224173,0,0,1.0417648,2489.7174,-874.94366)" />
    <polyline
       class="StaffLines"
       fill="none"
       stroke="#000000"
       stroke-width="2.73"
       stroke-linejoin="bevel"
       points="336.598,708.598 2847.4,708.598"
       id="polyline115"
       transform="matrix(0.0224173,0,0,1.0417648,2489.7174,-874.94366)" />
    <polyline
       class="StaffLines"
       fill="none"
       stroke="#000000"
       stroke-width="2.73"
       stroke-linejoin="bevel"
       points="336.598,733.398 2847.4,733.398"
       id="polyline116"
       transform="matrix(0.0224173,0,0,1.0417648,2489.7174,-874.94366)" />
    <polyline
       class="StaffLines"
       fill="none"
       stroke="#000000"
       stroke-width="2.73"
       stroke-linejoin="bevel"
       points="336.598,634.198 2847.4,634.198"
       id="polyline117"
       transform="matrix(0.0224173,0,0,1.0417648,2489.7174,-874.94366)" />
    <polyline
       class="StaffLines"
       fill="none"
       stroke="#000000"
       stroke-width="2.73"
       stroke-linejoin="bevel"
       points="336.598,658.998 2847.4,658.998"
       id="polyline118"
       transform="matrix(0.0224173,0,0,1.0417648,2489.7174,-874.94366)" />
    <polyline
       class="StaffLines"
       fill="none"
       stroke="#000000"
       stroke-width="2.73"
       stroke-linejoin="bevel"
       points="336.598,683.798 2847.4,683.798"
       id="polyline119"
       transform="matrix(0.0224173,0,0,1.0417648,2489.7174,-874.94366)" />
    <polyline
       class="StaffLines"
       fill="none"
       stroke="#000000"
       stroke-width="2.73"
       stroke-linejoin="bevel"
       points="336.598,708.598 2847.4,708.598"
       id="polyline120"
       transform="matrix(0.0224173,0,0,1.0417648,2489.7174,-874.94366)" />
    <polyline
       class="StaffLines"
       fill="none"
       stroke="#000000"
       stroke-width="2.73"
       stroke-linejoin="bevel"
       points="336.598,733.398 2847.4,733.398"
       id="polyline121"
       transform="matrix(0.0224173,0,0,1.0417648,2489.7174,-874.94366)" />
    <polyline
       class="StaffLines"
       fill="none"
       stroke="#000000"
       stroke-width="2.73"
       stroke-linejoin="bevel"
       points="336.598,634.198 2847.4,634.198"
       id="polyline122"
       transform="matrix(0.03551408,0,0,1.0417648,2745.309,-874.94366)" />
    <polyline
       class="StaffLines"
       fill="none"
       stroke="#000000"
       stroke-width="2.73"
       stroke-linejoin="bevel"
       points="336.598,658.998 2847.4,658.998"
       id="polyline123"
       transform="matrix(0.03551408,0,0,1.0417648,2745.309,-874.94366)" />
    <polyline
       class="StaffLines"
       fill="none"
       stroke="#000000"
       stroke-width="2.73"
       stroke-linejoin="bevel"
       points="336.598,683.798 2847.4,683.798"
       id="polyline124"
       transform="matrix(0.03551408,0,0,1.0417648,2745.309,-874.94366)" />
    <polyline
       class="StaffLines"
       fill="none"
       stroke="#000000"
       stroke-width="2.73"
       stroke-linejoin="bevel"
       points="336.598,708.598 2847.4,708.598"
       id="polyline125"
       transform="matrix(0.03551408,0,0,1.0417648,2745.309,-874.94366)" />
    <polyline
       class="StaffLines"
       fill="none"
       stroke="#000000"
       stroke-width="2.73"
       stroke-linejoin="bevel"
       points="336.598,733.398 2847.4,733.398"
       id="polyline126"
       transform="matrix(0.03551408,0,0,1.0417648,2745.309,-874.94366)" />
    <polyline
       class="StaffLines"
       fill="none"
       stroke="#000000"
       stroke-width="2.73"
       stroke-linejoin="bevel"
       points="336.598,634.198 2847.4,634.198"
       id="polyline127"
       transform="matrix(0.03551408,0,0,1.0417648,2745.309,-874.94366)" />
    <polyline
       class="StaffLines"
       fill="none"
       stroke="#000000"
       stroke-width="2.73"
       stroke-linejoin="bevel"
       points="336.598,658.998 2847.4,658.998"
       id="polyline128"
       transform="matrix(0.03551408,0,0,1.0417648,2745.309,-874.94366)" />
    <polyline
       class="StaffLines"
       fill="none"
       stroke="#000000"
       stroke-width="2.73"
       stroke-linejoin="bevel"
       points="336.598,683.798 2847.4,683.798"
       id="polyline129"
       transform="matrix(0.03551408,0,0,1.0417648,2745.309,-874.94366)" />
    <polyline
       class="StaffLines"
       fill="none"
       stroke="#000000"
       stroke-width="2.73"
       stroke-linejoin="bevel"
       points="336.598,708.598 2847.4,708.598"
       id="polyline130"
       transform="matrix(0.03551408,0,0,1.0417648,2745.309,-874.94366)" />
    <polyline
       class="StaffLines"
       fill="none"
       stroke="#000000"
       stroke-width="2.73"
       stroke-linejoin="bevel"
       points="336.598,733.398 2847.4,733.398"
       id="polyline131"
       transform="matrix(0.03551408,0,0,1.0417648,2745.309,-874.94366)" />
    <polyline
       class="StaffLines"
       fill="none"
       stroke="#000000"
       stroke-width="2.73"
       stroke-linejoin="bevel"
       points="336.598,634.198 2847.4,634.198"
       id="polyline132"
       transform="matrix(0.04602469,0,0,1.0417648,3009.7712,-874.94366)" />
    <polyline
       class="StaffLines"
       fill="none"
       stroke="#000000"
       stroke-width="2.73"
       stroke-linejoin="bevel"
       points="336.598,658.998 2847.4,658.998"
       id="polyline133"
       transform="matrix(0.04602469,0,0,1.0417648,3009.7712,-874.94366)" />
    <polyline
       class="StaffLines"
       fill="none"
       stroke="#000000"
       stroke-width="2.73"
       stroke-linejoin="bevel"
       points="336.598,683.798 2847.4,683.798"
       id="polyline134"
       transform="matrix(0.04602469,0,0,1.0417648,3009.7712,-874.94366)" />
    <polyline
       class="StaffLines"
       fill="none"
       stroke="#000000"
       stroke-width="2.73"
       stroke-linejoin="bevel"
       points="336.598,708.598 2847.4,708.598"
       id="polyline135"
       transform="matrix(0.04602469,0,0,1.0417648,3009.7712,-874.94366)" />
    <polyline
       class="StaffLines"
       fill="none"
       stroke="#000000"
       stroke-width="2.73"
       stroke-linejoin="bevel"
       points="336.598,733.398 2847.4,733.398"
       id="polyline136"
       transform="matrix(0.04602469,0,0,1.0417648,3009.7712,-874.94366)" />
    <polyline
       class="StaffLines"
       fill="none"
       stroke="#000000"
       stroke-width="2.73"
       stroke-linejoin="bevel"
       points="336.598,634.198 2847.4,634.198"
       id="polyline137"
       transform="matrix(0.04602469,0,0,1.0417648,3009.7712,-874.94366)" />
    <polyline
       class="StaffLines"
       fill="none"
       stroke="#000000"
       stroke-width="2.73"
       stroke-linejoin="bevel"
       points="336.598,658.998 2847.4,658.998"
       id="polyline138"
       transform="matrix(0.04602469,0,0,1.0417648,3009.7712,-874.94366)" />
    <polyline
       class="StaffLines"
       fill="none"
       stroke="#000000"
       stroke-width="2.73"
       stroke-linejoin="bevel"
       points="336.598,683.798 2847.4,683.798"
       id="polyline139"
       transform="matrix(0.04602469,0,0,1.0417648,3009.7712,-874.94366)" />
    <polyline
       class="StaffLines"
       fill="none"
       stroke="#000000"
       stroke-width="2.73"
       stroke-linejoin="bevel"
       points="336.598,708.598 2847.4,708.598"
       id="polyline140"
       transform="matrix(0.04602469,0,0,1.0417648,3009.7712,-874.94366)" />
    <polyline
       class="StaffLines"
       fill="none"
       stroke="#000000"
       stroke-width="2.73"
       stroke-linejoin="bevel"
       points="336.598,733.398 2847.4,733.398"
       id="polyline141"
       transform="matrix(0.04602469,0,0,1.0417648,3009.7712,-874.94366)" />
    <polyline
       class="StaffLines"
       fill="none"
       stroke="#000000"
       stroke-width="2.73"
       stroke-linejoin="bevel"
       points="336.598,634.198 2847.4,634.198"
       id="polyline142"
       transform="matrix(0.05250038,0,0,1.0417648,3287.5915,-874.94366)" />
    <polyline
       class="StaffLines"
       fill="none"
       stroke="#000000"
       stroke-width="2.73"
       stroke-linejoin="bevel"
       points="336.598,658.998 2847.4,658.998"
       id="polyline143"
       transform="matrix(0.05250038,0,0,1.0417648,3287.5915,-874.94366)" />
    <polyline
       class="StaffLines"
       fill="none"
       stroke="#000000"
       stroke-width="2.73"
       stroke-linejoin="bevel"
       points="336.598,683.798 2847.4,683.798"
       id="polyline144"
       transform="matrix(0.05250038,0,0,1.0417648,3287.5915,-874.94366)" />
    <polyline
       class="StaffLines"
       fill="none"
       stroke="#000000"
       stroke-width="2.73"
       stroke-linejoin="bevel"
       points="336.598,708.598 2847.4,708.598"
       id="polyline145"
       transform="matrix(0.05250038,0,0,1.0417648,3287.5915,-874.94366)" />
    <polyline
       class="StaffLines"
       fill="none"
       stroke="#000000"
       stroke-width="2.73"
       stroke-linejoin="bevel"
       points="336.598,733.398 2847.4,733.398"
       id="polyline146"
       transform="matrix(0.05250038,0,0,1.0417648,3287.5915,-874.94366)" />
    <polyline
       class="StaffLines"
       fill="none"
       stroke="#000000"
       stroke-width="2.73"
       stroke-linejoin="bevel"
       points="336.598,634.198 2847.4,634.198"
       id="polyline147"
       transform="matrix(0.05250038,0,0,1.0417648,3287.5915,-874.94366)" />
    <polyline
       class="StaffLines"
       fill="none"
       stroke="#000000"
       stroke-width="2.73"
       stroke-linejoin="bevel"
       points="336.598,658.998 2847.4,658.998"
       id="polyline148"
       transform="matrix(0.05250038,0,0,1.0417648,3287.5915,-874.94366)" />
    <polyline
       class="StaffLines"
       fill="none"
       stroke="#000000"
       stroke-width="2.73"
       stroke-linejoin="bevel"
       points="336.598,683.798 2847.4,683.798"
       id="polyline149"
       transform="matrix(0.05250038,0,0,1.0417648,3287.5915,-874.94366)" />
    <polyline
       class="StaffLines"
       fill="none"
       stroke="#000000"
       stroke-width="2.73"
       stroke-linejoin="bevel"
       points="336.598,708.598 2847.4,708.598"
       id="polyline150"
       transform="matrix(0.05250038,0,0,1.0417648,3287.5915,-874.94366)" />
    <polyline
       class="StaffLines"
       fill="none"
       stroke="#000000"
       stroke-width="2.73"
       stroke-linejoin="bevel"
       points="336.598,733.398 2847.4,733.398"
       id="polyline151"
       transform="matrix(0.05250038,0,0,1.0417648,3287.5915,-874.94366)" />
    <polyline
       class="StaffLines"
       fill="none"
       stroke="#000000"
       stroke-width="2.73"
       stroke-linejoin="bevel"
       points="336.598,634.198 2847.4,634.198"
       id="polyline152"
       transform="matrix(0.0659746,0,0,1.0417648,3561.0561,-874.94366)" />
    <polyline
       class="StaffLines"
       fill="none"
       stroke="#000000"
       stroke-width="2.73"
       stroke-linejoin="bevel"
       points="336.598,658.998 2847.4,658.998"
       id="polyline153"
       transform="matrix(0.0659746,0,0,1.0417648,3561.0561,-874.94366)" />
    <polyline
       class="StaffLines"
       fill="none"
       stroke="#000000"
       stroke-width="2.73"
       stroke-linejoin="bevel"
       points="336.598,683.798 2847.4,683.798"
       id="polyline154"
       transform="matrix(0.0659746,0,0,1.0417648,3561.0561,-874.94366)" />
    <polyline
       class="StaffLines"
       fill="none"
       stroke="#000000"
       stroke-width="2.73"
       stroke-linejoin="bevel"
       points="336.598,708.598 2847.4,708.598"
       id="polyline155"
       transform="matrix(0.0659746,0,0,1.0417648,3561.0561,-874.94366)" />
    <polyline
       class="StaffLines"
       fill="none"
       stroke="#000000"
       stroke-width="2.73"
       stroke-linejoin="bevel"
       points="336.598,733.398 2847.4,733.398"
       id="polyline156"
       transform="matrix(0.0659746,0,0,1.0417648,3561.0561,-874.94366)" />
    <polyline
       class="StaffLines"
       fill="none"
       stroke="#000000"
       stroke-width="2.73"
       stroke-linejoin="bevel"
       points="336.598,634.198 2847.4,634.198"
       id="polyline157"
       transform="matrix(0.0659746,0,0,1.0417648,3561.0561,-874.94366)" />
    <polyline
       class="StaffLines"
       fill="none"
       stroke="#000000"
       stroke-width="2.73"
       stroke-linejoin="bevel"
       points="336.598,658.998 2847.4,658.998"
       id="polyline158"
       transform="matrix(0.0659746,0,0,1.0417648,3561.0561,-874.94366)" />
    <polyline
       class="StaffLines"
       fill="none"
       stroke="#000000"
       stroke-width="2.73"
       stroke-linejoin="bevel"
       points="336.598,683.798 2847.4,683.798"
       id="polyline159"
       transform="matrix(0.0659746,0,0,1.0417648,3561.0561,-874.94366)" />
    <polyline
       class="StaffLines"
       fill="none"
       stroke="#000000"
       stroke-width="2.73"
       stroke-linejoin="bevel"
       points="336.598,708.598 2847.4,708.598"
       id="polyline160"
       transform="matrix(0.0659746,0,0,1.0417648,3561.0561,-874.94366)" />
    <polyline
       class="StaffLines"
       fill="none"
       stroke="#000000"
       stroke-width="2.73"
       stroke-linejoin="bevel"
       points="336.598,733.398 2847.4,733.398"
       id="polyline161"
       transform="matrix(0.0659746,0,0,1.0417648,3561.0561,-874.94366)" />
    <polyline
       class="StaffLines"
       fill="none"
       stroke="#000000"
       stroke-width="2.73"
       stroke-linejoin="bevel"
       points="336.598,634.198 2847.4,634.198"
       id="polyline162"
       transform="matrix(0.0711258,0,0,1.0417648,3863.3223,-874.94366)" />
    <polyline
       class="StaffLines"
       fill="none"
       stroke="#000000"
       stroke-width="2.73"
       stroke-linejoin="bevel"
       points="336.598,658.998 2847.4,658.998"
       id="polyline163"
       transform="matrix(0.0711258,0,0,1.0417648,3863.3223,-874.94366)" />
    <polyline
       class="StaffLines"
       fill="none"
       stroke="#000000"
       stroke-width="2.73"
       stroke-linejoin="bevel"
       points="336.598,683.798 2847.4,683.798"
       id="polyline164"
       transform="matrix(0.0711258,0,0,1.0417648,3863.3223,-874.94366)" />
    <polyline
       class="StaffLines"
       fill="none"
       stroke="#000000"
       stroke-width="2.73"
       stroke-linejoin="bevel"
       points="336.598,708.598 2847.4,708.598"
       id="polyline165"
       transform="matrix(0.0711258,0,0,1.0417648,3863.3223,-874.94366)" />
    <polyline
       class="StaffLines"
       fill="none"
       stroke="#000000"
       stroke-width="2.73"
       stroke-linejoin="bevel"
       points="336.598,733.398 2847.4,733.398"
       id="polyline166"
       transform="matrix(0.0711258,0,0,1.0417648,3863.3223,-874.94366)" />
    <polyline
       class="StaffLines"
       fill="none"
       stroke="#000000"
       stroke-width="2.73"
       stroke-linejoin="bevel"
       points="336.598,634.198 2847.4,634.198"
       id="polyline167"
       transform="matrix(0.0711258,0,0,1.0417648,3863.3223,-874.94366)" />
    <polyline
       class="StaffLines"
       fill="none"
       stroke="#000000"
       stroke-width="2.73"
       stroke-linejoin="bevel"
       points="336.598,658.998 2847.4,658.998"
       id="polyline168"
       transform="matrix(0.0711258,0,0,1.0417648,3863.3223,-874.94366)" />
    <polyline
       class="StaffLines"
       fill="none"
       stroke="#000000"
       stroke-width="2.73"
       stroke-linejoin="bevel"
       points="336.598,683.798 2847.4,683.798"
       id="polyline169"
       transform="matrix(0.0711258,0,0,1.0417648,3863.3223,-874.94366)" />
    <polyline
       class="StaffLines"
       fill="none"
       stroke="#000000"
       stroke-width="2.73"
       stroke-linejoin="bevel"
       points="336.598,708.598 2847.4,708.598"
       id="polyline170"
       transform="matrix(0.0711258,0,0,1.0417648,3863.3223,-874.94366)" />
    <polyline
       class="StaffLines"
       fill="none"
       stroke="#000000"
       stroke-width="2.73"
       stroke-linejoin="bevel"
       points="336.598,733.398 2847.4,733.398"
       id="polyline171"
       transform="matrix(0.0711258,0,0,1.0417648,3863.3223,-874.94366)" />
    <polyline
       class="StaffLines"
       fill="none"
       stroke="#000000"
       stroke-width="2.73"
       stroke-linejoin="bevel"
       points="336.598,634.198 2847.4,634.198"
       id="polyline172"
       transform="matrix(0.08213926,0,0,1.0417648,4149.6151,-874.94366)" />
    <polyline
       class="StaffLines"
       fill="none"
       stroke="#000000"
       stroke-width="2.73"
       stroke-linejoin="bevel"
       points="336.598,658.998 2847.4,658.998"
       id="polyline173"
       transform="matrix(0.08213926,0,0,1.0417648,4149.6151,-874.94366)" />
    <polyline
       class="StaffLines"
       fill="none"
       stroke="#000000"
       stroke-width="2.73"
       stroke-linejoin="bevel"
       points="336.598,683.798 2847.4,683.798"
       id="polyline174"
       transform="matrix(0.08213926,0,0,1.0417648,4149.6151,-874.94366)" />
    <polyline
       class="StaffLines"
       fill="none"
       stroke="#000000"
       stroke-width="2.73"
       stroke-linejoin="bevel"
       points="336.598,708.598 2847.4,708.598"
       id="polyline175"
       transform="matrix(0.08213926,0,0,1.0417648,4149.6151,-874.94366)" />
    <polyline
       class="StaffLines"
       fill="none"
       stroke="#000000"
       stroke-width="2.73"
       stroke-linejoin="bevel"
       points="336.598,733.398 2847.4,733.398"
       id="polyline176"
       transform="matrix(0.08213926,0,0,1.0417648,4149.6151,-874.94366)" />
    <polyline
       class="StaffLines"
       fill="none"
       stroke="#000000"
       stroke-width="2.73"
       stroke-linejoin="bevel"
       points="336.598,634.198 2847.4,634.198"
       id="polyline177"
       transform="matrix(0.08213926,0,0,1.0417648,4149.6151,-874.94366)" />
    <polyline
       class="StaffLines"
       fill="none"
       stroke="#000000"
       stroke-width="2.73"
       stroke-linejoin="bevel"
       points="336.598,658.998 2847.4,658.998"
       id="polyline178"
       transform="matrix(0.08213926,0,0,1.0417648,4149.6151,-874.94366)" />
    <polyline
       class="StaffLines"
       fill="none"
       stroke="#000000"
       stroke-width="2.73"
       stroke-linejoin="bevel"
       points="336.598,683.798 2847.4,683.798"
       id="polyline179"
       transform="matrix(0.08213926,0,0,1.0417648,4149.6151,-874.94366)" />
    <polyline
       class="StaffLines"
       fill="none"
       stroke="#000000"
       stroke-width="2.73"
       stroke-linejoin="bevel"
       points="336.598,708.598 2847.4,708.598"
       id="polyline180"
       transform="matrix(0.08213926,0,0,1.0417648,4149.6151,-874.94366)" />
    <polyline
       class="StaffLines"
       fill="none"
       stroke="#000000"
       stroke-width="2.73"
       stroke-linejoin="bevel"
       points="336.598,733.398 2847.4,733.398"
       id="polyline181"
       transform="matrix(0.08213926,0,0,1.0417648,4149.6151,-874.94366)" />
  </g>
</svg>
