<?xml version="1.0" encoding="UTF-8" standalone="no"?>
<svg
   width="115.71999"
   height="214.34"
   viewBox="0 0 115.71999 214.34001"
   version="1.2"
   id="svg117"
   sodipodi:docname="clefs-and-keys.svg"
   inkscape:version="1.3.2 (091e20e, 2023-11-25, custom)"
   xmlns:inkscape="http://www.inkscape.org/namespaces/inkscape"
   xmlns:sodipodi="http://sodipodi.sourceforge.net/DTD/sodipodi-0.dtd"
   xmlns="http://www.w3.org/2000/svg"
   xmlns:svg="http://www.w3.org/2000/svg"
   xmlns:rdf="http://www.w3.org/1999/02/22-rdf-syntax-ns#"
   xmlns:cc="http://creativecommons.org/ns#"
   xmlns:dc="http://purl.org/dc/elements/1.1/">
  <defs
     id="defs117" />
  <sodipodi:namedview
     id="namedview117"
     pagecolor="#ffffff"
     bordercolor="#000000"
     borderopacity="0.25"
     inkscape:showpageshadow="2"
     inkscape:pageopacity="0.0"
     inkscape:pagecheckerboard="0"
     inkscape:deskcolor="#d1d1d1"
     inkscape:zoom="0.55647799"
     inkscape:cx="1869.7954"
     inkscape:cy="610.08702"
     inkscape:window-width="2560"
     inkscape:window-height="1009"
     inkscape:window-x="-8"
     inkscape:window-y="-8"
     inkscape:window-maximized="1"
     inkscape:current-layer="svg117"
     showguides="true"
     showgrid="false">
    <inkscape:page
       x="0.00027969136"
       y="-3.4451066e-06"
       width="115.71999"
       height="214.34001"
       id="page539"
       margin="0"
       bleed="0" />
  </sodipodi:namedview>
  <title
     id="title1">Unbenannte Partitur</title>
  <desc
     id="desc1">Generated by MuseScore Studio 4.3.2</desc>
  <metadata
     id="metadata121">
    <rdf:RDF>
      <cc:Work
         rdf:about="">
        <dc:title>Unbenannte Partitur</dc:title>
      </cc:Work>
    </rdf:RDF>
  </metadata>
  <path
     class="KeySig"
     d="m 30.384971,93.680391 c -5.0903,0 -8.049,3.19713 -8.5582,3.82689 l 0.4136,-33.18285 c 0,-0.82344 -0.6045,-1.43707 -1.4316,-1.43707 h -1.2091 c -0.8269,0 -1.4317,0.61364 -1.4317,1.43707 l 0.5091,62.118929 c 0,0.82353 0.6045,1.43718 1.4317,1.43718 0.1911,0 0.6045,-0.0968 0.8113,-0.19379 8.7491,-4.45665 17.9118,-12.91792 17.9118,-23.57517 0,-5.360979 -2.4339,-10.431189 -8.4469,-10.431189 m -8.8604,29.145949 0.3022,-20.15187 c 0.2068,-0.93655 1.7339,-3.923869 5.8062,-3.923869 3.6747,0 3.9769,3.504029 3.9769,5.683919 0,9.18784 -3.3564,13.01477 -10.0853,18.39182"
     id="path362"
     style="stroke-width:1.02572" />
  <path
     class="KeySig"
     d="m 58.689871,54.926731 c -5.0903,0 -8.0492,3.19713 -8.5582,3.8269 l 0.4135,-33.18285 c 0,-0.82345 -0.6043,-1.43708 -1.4315,-1.43708 h -1.2089 c -0.8272,0 -1.4316,0.61363 -1.4316,1.43708 l 0.5089,62.1189 c 0,0.82354 0.6044,1.43718 1.4317,1.43718 0.1908,0 0.6044,-0.0969 0.8113,-0.19375 8.7491,-4.45666 17.9116,-12.91793 17.9116,-23.5752 0,-5.36097 -2.4338,-10.43118 -8.4468,-10.43118 m -8.8603,29.14594 0.3021,-20.15187 c 0.2069,-0.93655 1.734,-3.92386 5.8063,-3.92386 3.6745,0 3.9768,3.50403 3.9768,5.68392 0,9.18786 -3.3564,13.01477 -10.0852,18.39181"
     id="path363"
     style="stroke-width:1.02572" />
  <path
     class="KeySig"
     d="m 86.984571,106.59826 c -5.0904,0 -8.0492,3.19712 -8.5581,3.82692 l 0.4135,-33.182859 c 0,-0.82344 -0.6044,-1.43707 -1.4317,-1.43707 h -1.2088 c -0.8273,0 -1.4318,0.61363 -1.4318,1.43707 l 0.5091,62.118929 c 0,0.82352 0.6044,1.43717 1.4315,1.43717 0.1909,0 0.6046,-0.0969 0.8114,-0.19376 8.7491,-4.45668 17.9117,-12.91796 17.9117,-23.5752 0,-5.36097 -2.4338,-10.4312 -8.4468,-10.4312 m -8.8605,29.14596 0.3024,-20.15187 c 0.2068,-0.93655 1.7338,-3.92386 5.8061,-3.92386 3.6747,0 3.9769,3.50403 3.9769,5.68392 0,9.18785 -3.3565,13.01477 -10.0854,18.39181"
     id="path364"
     style="stroke-width:1.02572" />
  <polyline
     class="StaffLines"
     fill="none"
     stroke="#000000"
     stroke-width="2.73"
     stroke-linejoin="bevel"
     points="336.598,634.198 2847.4,634.198"
     id="polyline470"
     transform="matrix(0.04602469,0,0,1.0417648,-15.491529,-613.19352)" />
  <polyline
     class="StaffLines"
     fill="none"
     stroke="#000000"
     stroke-width="2.73"
     stroke-linejoin="bevel"
     points="336.598,658.998 2847.4,658.998"
     id="polyline471"
     transform="matrix(0.04602469,0,0,1.0417648,-15.491529,-613.19352)" />
  <polyline
     class="StaffLines"
     fill="none"
     stroke="#000000"
     stroke-width="2.73"
     stroke-linejoin="bevel"
     points="336.598,683.798 2847.4,683.798"
     id="polyline472"
     transform="matrix(0.04602469,0,0,1.0417648,-15.491529,-613.19352)" />
  <polyline
     class="StaffLines"
     fill="none"
     stroke="#000000"
     stroke-width="2.73"
     stroke-linejoin="bevel"
     points="336.598,708.598 2847.4,708.598"
     id="polyline473"
     transform="matrix(0.04602469,0,0,1.0417648,-15.491529,-613.19352)" />
  <polyline
     class="StaffLines"
     fill="none"
     stroke="#000000"
     stroke-width="2.73"
     stroke-linejoin="bevel"
     points="336.598,733.398 2847.4,733.398"
     id="polyline474"
     transform="matrix(0.04602469,0,0,1.0417648,-15.491529,-613.19352)" />
  <polyline
     class="StaffLines"
     fill="none"
     stroke="#000000"
     stroke-width="2.73"
     stroke-linejoin="bevel"
     points="336.598,634.198 2847.4,634.198"
     id="polyline475"
     transform="matrix(0.04602469,0,0,1.0417648,-15.491529,-613.19352)" />
  <polyline
     class="StaffLines"
     fill="none"
     stroke="#000000"
     stroke-width="2.73"
     stroke-linejoin="bevel"
     points="336.598,658.998 2847.4,658.998"
     id="polyline476"
     transform="matrix(0.04602469,0,0,1.0417648,-15.491529,-613.19352)" />
  <polyline
     class="StaffLines"
     fill="none"
     stroke="#000000"
     stroke-width="2.73"
     stroke-linejoin="bevel"
     points="336.598,683.798 2847.4,683.798"
     id="polyline477"
     transform="matrix(0.04602469,0,0,1.0417648,-15.491529,-613.19352)" />
  <polyline
     class="StaffLines"
     fill="none"
     stroke="#000000"
     stroke-width="2.73"
     stroke-linejoin="bevel"
     points="336.598,708.598 2847.4,708.598"
     id="polyline478"
     transform="matrix(0.04602469,0,0,1.0417648,-15.491529,-613.19352)" />
  <polyline
     class="StaffLines"
     fill="none"
     stroke="#000000"
     stroke-width="2.73"
     stroke-linejoin="bevel"
     points="336.598,733.398 2847.4,733.398"
     id="polyline479"
     transform="matrix(0.04602469,0,0,1.0417648,-15.491529,-613.19352)" />
</svg>
