<?xml version="1.0" encoding="UTF-8" standalone="no"?>
<svg
   width="89.599174"
   height="214.34"
   viewBox="0 0 89.599181 214.34001"
   version="1.2"
   id="svg117"
   xmlns="http://www.w3.org/2000/svg"
   xmlns:svg="http://www.w3.org/2000/svg"
   xmlns:rdf="http://www.w3.org/1999/02/22-rdf-syntax-ns#"
   xmlns:cc="http://creativecommons.org/ns#"
   xmlns:dc="http://purl.org/dc/elements/1.1/">
  <defs
     id="defs117" />
  <title
     id="title1">Unbenannte Partitur</title>
  <desc
     id="desc1">Generated by MuseScore Studio 4.3.2</desc>
  <metadata
     id="metadata121">
    <rdf:RDF>
      <cc:Work
         rdf:about="">
        <dc:title>Unbenannte Partitur</dc:title>
      </cc:Work>
    </rdf:RDF>
  </metadata>
  <path
     class="KeySig"
     d="m 34.933796,83.680396 c -5.0903,0 -8.049,3.19713 -8.5581,3.82689 l 0.4137,-33.18284 c 0,-0.82344 -0.6046,-1.43708 -1.4318,-1.43708 h -1.209 c -0.8271,0 -1.4316,0.61364 -1.4316,1.43708 l 0.509,62.118924 c 0,0.82353 0.6046,1.43718 1.4316,1.43718 0.191,0 0.6045,-0.0968 0.8113,-0.19379 8.7491,-4.45665 17.9118,-12.91792 17.9118,-23.575174 0,-5.36098 -2.4337,-10.43119 -8.4469,-10.43119 m -8.8603,29.145954 0.3022,-20.151874 c 0.2066,-0.93655 1.7339,-3.92387 5.8061,-3.92387 3.6747,0 3.977,3.50403 3.977,5.68392 0,9.187844 -3.3564,13.014774 -10.0853,18.391824"
     id="path151"
     style="stroke-width:1.02572" />
  <path
     class="KeySig"
     d="m 63.228596,44.926736 c -5.0904,0 -8.0493,3.19714 -8.5582,3.82691 l 0.4136,-33.18285 c 0,-0.82345 -0.6045,-1.43708 -1.4316,-1.43708 h -1.209 c -0.8273,0 -1.4317,0.61363 -1.4317,1.43708 l 0.5089,62.1189 c 0,0.82354 0.6046,1.43718 1.4318,1.43718 0.1908,0 0.6046,-0.0969 0.8112,-0.19375 8.7491,-4.45666 17.9118,-12.91793 17.9118,-23.5752 0,-5.36097 -2.4338,-10.43119 -8.4468,-10.43119 m -8.8606,29.14595 0.3024,-20.15187 c 0.2068,-0.93655 1.7339,-3.92386 5.8062,-3.92386 3.6745,0 3.9767,3.50403 3.9767,5.68392 0,9.18786 -3.3564,13.01477 -10.0853,18.39181"
     id="path152"
     style="stroke-width:1.02572" />
  <g
     id="g61"
     transform="translate(-2757.0479,261.7502)">
    <polyline
       class="StaffLines"
       fill="none"
       stroke="#000000"
       stroke-width="2.73"
       stroke-linejoin="bevel"
       points="336.598,634.198 2847.4,634.198"
       id="polyline52"
       transform="matrix(0.03805572,0,0,1.0417648,880.4535,-874.94366)" />
    <polyline
       class="StaffLines"
       fill="none"
       stroke="#000000"
       stroke-width="2.73"
       stroke-linejoin="bevel"
       points="336.598,658.998 2847.4,658.998"
       id="polyline53"
       transform="matrix(0.03805572,0,0,1.0417648,880.4535,-874.94366)" />
    <polyline
       class="StaffLines"
       fill="none"
       stroke="#000000"
       stroke-width="2.73"
       stroke-linejoin="bevel"
       points="336.598,683.798 2847.4,683.798"
       id="polyline54"
       transform="matrix(0.03805572,0,0,1.0417648,880.4535,-874.94366)" />
    <polyline
       class="StaffLines"
       fill="none"
       stroke="#000000"
       stroke-width="2.73"
       stroke-linejoin="bevel"
       points="336.598,708.598 2847.4,708.598"
       id="polyline55"
       transform="matrix(0.03805572,0,0,1.0417648,880.4535,-874.94366)" />
    <polyline
       class="StaffLines"
       fill="none"
       stroke="#000000"
       stroke-width="2.73"
       stroke-linejoin="bevel"
       points="336.598,733.398 2847.4,733.398"
       id="polyline56"
       transform="matrix(0.03805572,0,0,1.0417648,880.4535,-874.94366)" />
    <polyline
       class="StaffLines"
       fill="none"
       stroke="#000000"
       stroke-width="2.73"
       stroke-linejoin="bevel"
       points="336.598,634.198 2847.4,634.198"
       id="polyline57"
       transform="matrix(0.03805572,0,0,1.0417648,880.4535,-874.94366)" />
    <polyline
       class="StaffLines"
       fill="none"
       stroke="#000000"
       stroke-width="2.73"
       stroke-linejoin="bevel"
       points="336.598,658.998 2847.4,658.998"
       id="polyline58"
       transform="matrix(0.03805572,0,0,1.0417648,880.4535,-874.94366)" />
    <polyline
       class="StaffLines"
       fill="none"
       stroke="#000000"
       stroke-width="2.73"
       stroke-linejoin="bevel"
       points="336.598,683.798 2847.4,683.798"
       id="polyline59"
       transform="matrix(0.03805572,0,0,1.0417648,880.4535,-874.94366)" />
    <polyline
       class="StaffLines"
       fill="none"
       stroke="#000000"
       stroke-width="2.73"
       stroke-linejoin="bevel"
       points="336.598,708.598 2847.4,708.598"
       id="polyline60"
       transform="matrix(0.03805572,0,0,1.0417648,880.4535,-874.94366)" />
    <polyline
       class="StaffLines"
       fill="none"
       stroke="#000000"
       stroke-width="2.73"
       stroke-linejoin="bevel"
       points="336.598,733.398 2847.4,733.398"
       id="polyline61"
       transform="matrix(0.03805572,0,0,1.0417648,880.4535,-874.94366)" />
    <polyline
       class="StaffLines"
       fill="none"
       stroke="#000000"
       stroke-width="2.73"
       stroke-linejoin="bevel"
       points="336.598,634.198 2847.4,634.198"
       id="polyline62"
       transform="matrix(0.04569673,0,0,1.0417648,1167.8816,-874.94366)" />
    <polyline
       class="StaffLines"
       fill="none"
       stroke="#000000"
       stroke-width="2.73"
       stroke-linejoin="bevel"
       points="336.598,658.998 2847.4,658.998"
       id="polyline63"
       transform="matrix(0.04569673,0,0,1.0417648,1167.8816,-874.94366)" />
    <polyline
       class="StaffLines"
       fill="none"
       stroke="#000000"
       stroke-width="2.73"
       stroke-linejoin="bevel"
       points="336.598,683.798 2847.4,683.798"
       id="polyline64"
       transform="matrix(0.04569673,0,0,1.0417648,1167.8816,-874.94366)" />
    <polyline
       class="StaffLines"
       fill="none"
       stroke="#000000"
       stroke-width="2.73"
       stroke-linejoin="bevel"
       points="336.598,708.598 2847.4,708.598"
       id="polyline65"
       transform="matrix(0.04569673,0,0,1.0417648,1167.8816,-874.94366)" />
    <polyline
       class="StaffLines"
       fill="none"
       stroke="#000000"
       stroke-width="2.73"
       stroke-linejoin="bevel"
       points="336.598,733.398 2847.4,733.398"
       id="polyline66"
       transform="matrix(0.04569673,0,0,1.0417648,1167.8816,-874.94366)" />
    <polyline
       class="StaffLines"
       fill="none"
       stroke="#000000"
       stroke-width="2.73"
       stroke-linejoin="bevel"
       points="336.598,634.198 2847.4,634.198"
       id="polyline67"
       transform="matrix(0.04569673,0,0,1.0417648,1167.8816,-874.94366)" />
    <polyline
       class="StaffLines"
       fill="none"
       stroke="#000000"
       stroke-width="2.73"
       stroke-linejoin="bevel"
       points="336.598,658.998 2847.4,658.998"
       id="polyline68"
       transform="matrix(0.04569673,0,0,1.0417648,1167.8816,-874.94366)" />
    <polyline
       class="StaffLines"
       fill="none"
       stroke="#000000"
       stroke-width="2.73"
       stroke-linejoin="bevel"
       points="336.598,683.798 2847.4,683.798"
       id="polyline69"
       transform="matrix(0.04569673,0,0,1.0417648,1167.8816,-874.94366)" />
    <polyline
       class="StaffLines"
       fill="none"
       stroke="#000000"
       stroke-width="2.73"
       stroke-linejoin="bevel"
       points="336.598,708.598 2847.4,708.598"
       id="polyline70"
       transform="matrix(0.04569673,0,0,1.0417648,1167.8816,-874.94366)" />
    <polyline
       class="StaffLines"
       fill="none"
       stroke="#000000"
       stroke-width="2.73"
       stroke-linejoin="bevel"
       points="336.598,733.398 2847.4,733.398"
       id="polyline71"
       transform="matrix(0.04569673,0,0,1.0417648,1167.8816,-874.94366)" />
    <polyline
       class="StaffLines"
       fill="none"
       stroke="#000000"
       stroke-width="2.73"
       stroke-linejoin="bevel"
       points="336.598,634.198 2847.4,634.198"
       id="polyline72"
       transform="matrix(0.05426658,0,0,1.0417648,1428.997,-874.94366)" />
    <polyline
       class="StaffLines"
       fill="none"
       stroke="#000000"
       stroke-width="2.73"
       stroke-linejoin="bevel"
       points="336.598,658.998 2847.4,658.998"
       id="polyline73"
       transform="matrix(0.05426658,0,0,1.0417648,1428.997,-874.94366)" />
    <polyline
       class="StaffLines"
       fill="none"
       stroke="#000000"
       stroke-width="2.73"
       stroke-linejoin="bevel"
       points="336.598,683.798 2847.4,683.798"
       id="polyline74"
       transform="matrix(0.05426658,0,0,1.0417648,1428.997,-874.94366)" />
    <polyline
       class="StaffLines"
       fill="none"
       stroke="#000000"
       stroke-width="2.73"
       stroke-linejoin="bevel"
       points="336.598,708.598 2847.4,708.598"
       id="polyline75"
       transform="matrix(0.05426658,0,0,1.0417648,1428.997,-874.94366)" />
    <polyline
       class="StaffLines"
       fill="none"
       stroke="#000000"
       stroke-width="2.73"
       stroke-linejoin="bevel"
       points="336.598,733.398 2847.4,733.398"
       id="polyline76"
       transform="matrix(0.05426658,0,0,1.0417648,1428.997,-874.94366)" />
    <polyline
       class="StaffLines"
       fill="none"
       stroke="#000000"
       stroke-width="2.73"
       stroke-linejoin="bevel"
       points="336.598,634.198 2847.4,634.198"
       id="polyline77"
       transform="matrix(0.05426658,0,0,1.0417648,1428.997,-874.94366)" />
    <polyline
       class="StaffLines"
       fill="none"
       stroke="#000000"
       stroke-width="2.73"
       stroke-linejoin="bevel"
       points="336.598,658.998 2847.4,658.998"
       id="polyline78"
       transform="matrix(0.05426658,0,0,1.0417648,1428.997,-874.94366)" />
    <polyline
       class="StaffLines"
       fill="none"
       stroke="#000000"
       stroke-width="2.73"
       stroke-linejoin="bevel"
       points="336.598,683.798 2847.4,683.798"
       id="polyline79"
       transform="matrix(0.05426658,0,0,1.0417648,1428.997,-874.94366)" />
    <polyline
       class="StaffLines"
       fill="none"
       stroke="#000000"
       stroke-width="2.73"
       stroke-linejoin="bevel"
       points="336.598,708.598 2847.4,708.598"
       id="polyline80"
       transform="matrix(0.05426658,0,0,1.0417648,1428.997,-874.94366)" />
    <polyline
       class="StaffLines"
       fill="none"
       stroke="#000000"
       stroke-width="2.73"
       stroke-linejoin="bevel"
       points="336.598,733.398 2847.4,733.398"
       id="polyline81"
       transform="matrix(0.05426658,0,0,1.0417648,1428.997,-874.94366)" />
    <polyline
       class="StaffLines"
       fill="none"
       stroke="#000000"
       stroke-width="2.73"
       stroke-linejoin="bevel"
       points="336.598,634.198 2847.4,634.198"
       id="polyline82"
       transform="matrix(0.06428468,0,0,1.0417648,1691.6249,-874.94366)" />
    <polyline
       class="StaffLines"
       fill="none"
       stroke="#000000"
       stroke-width="2.73"
       stroke-linejoin="bevel"
       points="336.598,658.998 2847.4,658.998"
       id="polyline83"
       transform="matrix(0.06428468,0,0,1.0417648,1691.6249,-874.94366)" />
    <polyline
       class="StaffLines"
       fill="none"
       stroke="#000000"
       stroke-width="2.73"
       stroke-linejoin="bevel"
       points="336.598,683.798 2847.4,683.798"
       id="polyline84"
       transform="matrix(0.06428468,0,0,1.0417648,1691.6249,-874.94366)" />
    <polyline
       class="StaffLines"
       fill="none"
       stroke="#000000"
       stroke-width="2.73"
       stroke-linejoin="bevel"
       points="336.598,708.598 2847.4,708.598"
       id="polyline85"
       transform="matrix(0.06428468,0,0,1.0417648,1691.6249,-874.94366)" />
    <polyline
       class="StaffLines"
       fill="none"
       stroke="#000000"
       stroke-width="2.73"
       stroke-linejoin="bevel"
       points="336.598,733.398 2847.4,733.398"
       id="polyline86"
       transform="matrix(0.06428468,0,0,1.0417648,1691.6249,-874.94366)" />
    <polyline
       class="StaffLines"
       fill="none"
       stroke="#000000"
       stroke-width="2.73"
       stroke-linejoin="bevel"
       points="336.598,634.198 2847.4,634.198"
       id="polyline87"
       transform="matrix(0.06428468,0,0,1.0417648,1691.6249,-874.94366)" />
    <polyline
       class="StaffLines"
       fill="none"
       stroke="#000000"
       stroke-width="2.73"
       stroke-linejoin="bevel"
       points="336.598,658.998 2847.4,658.998"
       id="polyline88"
       transform="matrix(0.06428468,0,0,1.0417648,1691.6249,-874.94366)" />
    <polyline
       class="StaffLines"
       fill="none"
       stroke="#000000"
       stroke-width="2.73"
       stroke-linejoin="bevel"
       points="336.598,683.798 2847.4,683.798"
       id="polyline89"
       transform="matrix(0.06428468,0,0,1.0417648,1691.6249,-874.94366)" />
    <polyline
       class="StaffLines"
       fill="none"
       stroke="#000000"
       stroke-width="2.73"
       stroke-linejoin="bevel"
       points="336.598,708.598 2847.4,708.598"
       id="polyline90"
       transform="matrix(0.06428468,0,0,1.0417648,1691.6249,-874.94366)" />
    <polyline
       class="StaffLines"
       fill="none"
       stroke="#000000"
       stroke-width="2.73"
       stroke-linejoin="bevel"
       points="336.598,733.398 2847.4,733.398"
       id="polyline91"
       transform="matrix(0.06428468,0,0,1.0417648,1691.6249,-874.94366)" />
    <polyline
       class="StaffLines"
       fill="none"
       stroke="#000000"
       stroke-width="2.73"
       stroke-linejoin="bevel"
       points="336.598,634.198 2847.4,634.198"
       id="polyline92"
       transform="matrix(0.074153,0,0,1.0417648,1952.3033,-874.94366)" />
    <polyline
       class="StaffLines"
       fill="none"
       stroke="#000000"
       stroke-width="2.73"
       stroke-linejoin="bevel"
       points="336.598,658.998 2847.4,658.998"
       id="polyline93"
       transform="matrix(0.074153,0,0,1.0417648,1952.3033,-874.94366)" />
    <polyline
       class="StaffLines"
       fill="none"
       stroke="#000000"
       stroke-width="2.73"
       stroke-linejoin="bevel"
       points="336.598,683.798 2847.4,683.798"
       id="polyline94"
       transform="matrix(0.074153,0,0,1.0417648,1952.3033,-874.94366)" />
    <polyline
       class="StaffLines"
       fill="none"
       stroke="#000000"
       stroke-width="2.73"
       stroke-linejoin="bevel"
       points="336.598,708.598 2847.4,708.598"
       id="polyline95"
       transform="matrix(0.074153,0,0,1.0417648,1952.3033,-874.94366)" />
    <polyline
       class="StaffLines"
       fill="none"
       stroke="#000000"
       stroke-width="2.73"
       stroke-linejoin="bevel"
       points="336.598,733.398 2847.4,733.398"
       id="polyline96"
       transform="matrix(0.074153,0,0,1.0417648,1952.3033,-874.94366)" />
    <polyline
       class="StaffLines"
       fill="none"
       stroke="#000000"
       stroke-width="2.73"
       stroke-linejoin="bevel"
       points="336.598,634.198 2847.4,634.198"
       id="polyline97"
       transform="matrix(0.074153,0,0,1.0417648,1952.3033,-874.94366)" />
    <polyline
       class="StaffLines"
       fill="none"
       stroke="#000000"
       stroke-width="2.73"
       stroke-linejoin="bevel"
       points="336.598,658.998 2847.4,658.998"
       id="polyline98"
       transform="matrix(0.074153,0,0,1.0417648,1952.3033,-874.94366)" />
    <polyline
       class="StaffLines"
       fill="none"
       stroke="#000000"
       stroke-width="2.73"
       stroke-linejoin="bevel"
       points="336.598,683.798 2847.4,683.798"
       id="polyline99"
       transform="matrix(0.074153,0,0,1.0417648,1952.3033,-874.94366)" />
    <polyline
       class="StaffLines"
       fill="none"
       stroke="#000000"
       stroke-width="2.73"
       stroke-linejoin="bevel"
       points="336.598,708.598 2847.4,708.598"
       id="polyline100"
       transform="matrix(0.074153,0,0,1.0417648,1952.3033,-874.94366)" />
    <polyline
       class="StaffLines"
       fill="none"
       stroke="#000000"
       stroke-width="2.73"
       stroke-linejoin="bevel"
       points="336.598,733.398 2847.4,733.398"
       id="polyline101"
       transform="matrix(0.074153,0,0,1.0417648,1952.3033,-874.94366)" />
    <polyline
       class="StaffLines"
       fill="none"
       stroke="#000000"
       stroke-width="2.73"
       stroke-linejoin="bevel"
       points="336.598,634.198 2847.4,634.198"
       id="polyline102"
       transform="matrix(0.08213926,0,0,1.0417648,2217.6151,-874.94366)" />
    <polyline
       class="StaffLines"
       fill="none"
       stroke="#000000"
       stroke-width="2.73"
       stroke-linejoin="bevel"
       points="336.598,658.998 2847.4,658.998"
       id="polyline103"
       transform="matrix(0.08213926,0,0,1.0417648,2217.6151,-874.94366)" />
    <polyline
       class="StaffLines"
       fill="none"
       stroke="#000000"
       stroke-width="2.73"
       stroke-linejoin="bevel"
       points="336.598,683.798 2847.4,683.798"
       id="polyline104"
       transform="matrix(0.08213926,0,0,1.0417648,2217.6151,-874.94366)" />
    <polyline
       class="StaffLines"
       fill="none"
       stroke="#000000"
       stroke-width="2.73"
       stroke-linejoin="bevel"
       points="336.598,708.598 2847.4,708.598"
       id="polyline105"
       transform="matrix(0.08213926,0,0,1.0417648,2217.6151,-874.94366)" />
    <polyline
       class="StaffLines"
       fill="none"
       stroke="#000000"
       stroke-width="2.73"
       stroke-linejoin="bevel"
       points="336.598,733.398 2847.4,733.398"
       id="polyline106"
       transform="matrix(0.08213926,0,0,1.0417648,2217.6151,-874.94366)" />
    <polyline
       class="StaffLines"
       fill="none"
       stroke="#000000"
       stroke-width="2.73"
       stroke-linejoin="bevel"
       points="336.598,634.198 2847.4,634.198"
       id="polyline107"
       transform="matrix(0.08213926,0,0,1.0417648,2217.6151,-874.94366)" />
    <polyline
       class="StaffLines"
       fill="none"
       stroke="#000000"
       stroke-width="2.73"
       stroke-linejoin="bevel"
       points="336.598,658.998 2847.4,658.998"
       id="polyline108"
       transform="matrix(0.08213926,0,0,1.0417648,2217.6151,-874.94366)" />
    <polyline
       class="StaffLines"
       fill="none"
       stroke="#000000"
       stroke-width="2.73"
       stroke-linejoin="bevel"
       points="336.598,683.798 2847.4,683.798"
       id="polyline109"
       transform="matrix(0.08213926,0,0,1.0417648,2217.6151,-874.94366)" />
    <polyline
       class="StaffLines"
       fill="none"
       stroke="#000000"
       stroke-width="2.73"
       stroke-linejoin="bevel"
       points="336.598,708.598 2847.4,708.598"
       id="polyline110"
       transform="matrix(0.08213926,0,0,1.0417648,2217.6151,-874.94366)" />
    <polyline
       class="StaffLines"
       fill="none"
       stroke="#000000"
       stroke-width="2.73"
       stroke-linejoin="bevel"
       points="336.598,733.398 2847.4,733.398"
       id="polyline111"
       transform="matrix(0.08213926,0,0,1.0417648,2217.6151,-874.94366)" />
    <polyline
       class="StaffLines"
       fill="none"
       stroke="#000000"
       stroke-width="2.73"
       stroke-linejoin="bevel"
       points="336.598,634.198 2847.4,634.198"
       id="polyline112"
       transform="matrix(0.0224173,0,0,1.0417648,2489.7174,-874.94366)" />
    <polyline
       class="StaffLines"
       fill="none"
       stroke="#000000"
       stroke-width="2.73"
       stroke-linejoin="bevel"
       points="336.598,658.998 2847.4,658.998"
       id="polyline113"
       transform="matrix(0.0224173,0,0,1.0417648,2489.7174,-874.94366)" />
    <polyline
       class="StaffLines"
       fill="none"
       stroke="#000000"
       stroke-width="2.73"
       stroke-linejoin="bevel"
       points="336.598,683.798 2847.4,683.798"
       id="polyline114"
       transform="matrix(0.0224173,0,0,1.0417648,2489.7174,-874.94366)" />
    <polyline
       class="StaffLines"
       fill="none"
       stroke="#000000"
       stroke-width="2.73"
       stroke-linejoin="bevel"
       points="336.598,708.598 2847.4,708.598"
       id="polyline115"
       transform="matrix(0.0224173,0,0,1.0417648,2489.7174,-874.94366)" />
    <polyline
       class="StaffLines"
       fill="none"
       stroke="#000000"
       stroke-width="2.73"
       stroke-linejoin="bevel"
       points="336.598,733.398 2847.4,733.398"
       id="polyline116"
       transform="matrix(0.0224173,0,0,1.0417648,2489.7174,-874.94366)" />
    <polyline
       class="StaffLines"
       fill="none"
       stroke="#000000"
       stroke-width="2.73"
       stroke-linejoin="bevel"
       points="336.598,634.198 2847.4,634.198"
       id="polyline117"
       transform="matrix(0.0224173,0,0,1.0417648,2489.7174,-874.94366)" />
    <polyline
       class="StaffLines"
       fill="none"
       stroke="#000000"
       stroke-width="2.73"
       stroke-linejoin="bevel"
       points="336.598,658.998 2847.4,658.998"
       id="polyline118"
       transform="matrix(0.0224173,0,0,1.0417648,2489.7174,-874.94366)" />
    <polyline
       class="StaffLines"
       fill="none"
       stroke="#000000"
       stroke-width="2.73"
       stroke-linejoin="bevel"
       points="336.598,683.798 2847.4,683.798"
       id="polyline119"
       transform="matrix(0.0224173,0,0,1.0417648,2489.7174,-874.94366)" />
    <polyline
       class="StaffLines"
       fill="none"
       stroke="#000000"
       stroke-width="2.73"
       stroke-linejoin="bevel"
       points="336.598,708.598 2847.4,708.598"
       id="polyline120"
       transform="matrix(0.0224173,0,0,1.0417648,2489.7174,-874.94366)" />
    <polyline
       class="StaffLines"
       fill="none"
       stroke="#000000"
       stroke-width="2.73"
       stroke-linejoin="bevel"
       points="336.598,733.398 2847.4,733.398"
       id="polyline121"
       transform="matrix(0.0224173,0,0,1.0417648,2489.7174,-874.94366)" />
    <polyline
       class="StaffLines"
       fill="none"
       stroke="#000000"
       stroke-width="2.73"
       stroke-linejoin="bevel"
       points="336.598,634.198 2847.4,634.198"
       id="polyline122"
       transform="matrix(0.03551408,0,0,1.0417648,2745.309,-874.94366)" />
    <polyline
       class="StaffLines"
       fill="none"
       stroke="#000000"
       stroke-width="2.73"
       stroke-linejoin="bevel"
       points="336.598,658.998 2847.4,658.998"
       id="polyline123"
       transform="matrix(0.03551408,0,0,1.0417648,2745.309,-874.94366)" />
    <polyline
       class="StaffLines"
       fill="none"
       stroke="#000000"
       stroke-width="2.73"
       stroke-linejoin="bevel"
       points="336.598,683.798 2847.4,683.798"
       id="polyline124"
       transform="matrix(0.03551408,0,0,1.0417648,2745.309,-874.94366)" />
    <polyline
       class="StaffLines"
       fill="none"
       stroke="#000000"
       stroke-width="2.73"
       stroke-linejoin="bevel"
       points="336.598,708.598 2847.4,708.598"
       id="polyline125"
       transform="matrix(0.03551408,0,0,1.0417648,2745.309,-874.94366)" />
    <polyline
       class="StaffLines"
       fill="none"
       stroke="#000000"
       stroke-width="2.73"
       stroke-linejoin="bevel"
       points="336.598,733.398 2847.4,733.398"
       id="polyline126"
       transform="matrix(0.03551408,0,0,1.0417648,2745.309,-874.94366)" />
    <polyline
       class="StaffLines"
       fill="none"
       stroke="#000000"
       stroke-width="2.73"
       stroke-linejoin="bevel"
       points="336.598,634.198 2847.4,634.198"
       id="polyline127"
       transform="matrix(0.03551408,0,0,1.0417648,2745.309,-874.94366)" />
    <polyline
       class="StaffLines"
       fill="none"
       stroke="#000000"
       stroke-width="2.73"
       stroke-linejoin="bevel"
       points="336.598,658.998 2847.4,658.998"
       id="polyline128"
       transform="matrix(0.03551408,0,0,1.0417648,2745.309,-874.94366)" />
    <polyline
       class="StaffLines"
       fill="none"
       stroke="#000000"
       stroke-width="2.73"
       stroke-linejoin="bevel"
       points="336.598,683.798 2847.4,683.798"
       id="polyline129"
       transform="matrix(0.03551408,0,0,1.0417648,2745.309,-874.94366)" />
    <polyline
       class="StaffLines"
       fill="none"
       stroke="#000000"
       stroke-width="2.73"
       stroke-linejoin="bevel"
       points="336.598,708.598 2847.4,708.598"
       id="polyline130"
       transform="matrix(0.03551408,0,0,1.0417648,2745.309,-874.94366)" />
    <polyline
       class="StaffLines"
       fill="none"
       stroke="#000000"
       stroke-width="2.73"
       stroke-linejoin="bevel"
       points="336.598,733.398 2847.4,733.398"
       id="polyline131"
       transform="matrix(0.03551408,0,0,1.0417648,2745.309,-874.94366)" />
    <polyline
       class="StaffLines"
       fill="none"
       stroke="#000000"
       stroke-width="2.73"
       stroke-linejoin="bevel"
       points="336.598,634.198 2847.4,634.198"
       id="polyline132"
       transform="matrix(0.04602469,0,0,1.0417648,3009.7712,-874.94366)" />
    <polyline
       class="StaffLines"
       fill="none"
       stroke="#000000"
       stroke-width="2.73"
       stroke-linejoin="bevel"
       points="336.598,658.998 2847.4,658.998"
       id="polyline133"
       transform="matrix(0.04602469,0,0,1.0417648,3009.7712,-874.94366)" />
    <polyline
       class="StaffLines"
       fill="none"
       stroke="#000000"
       stroke-width="2.73"
       stroke-linejoin="bevel"
       points="336.598,683.798 2847.4,683.798"
       id="polyline134"
       transform="matrix(0.04602469,0,0,1.0417648,3009.7712,-874.94366)" />
    <polyline
       class="StaffLines"
       fill="none"
       stroke="#000000"
       stroke-width="2.73"
       stroke-linejoin="bevel"
       points="336.598,708.598 2847.4,708.598"
       id="polyline135"
       transform="matrix(0.04602469,0,0,1.0417648,3009.7712,-874.94366)" />
    <polyline
       class="StaffLines"
       fill="none"
       stroke="#000000"
       stroke-width="2.73"
       stroke-linejoin="bevel"
       points="336.598,733.398 2847.4,733.398"
       id="polyline136"
       transform="matrix(0.04602469,0,0,1.0417648,3009.7712,-874.94366)" />
    <polyline
       class="StaffLines"
       fill="none"
       stroke="#000000"
       stroke-width="2.73"
       stroke-linejoin="bevel"
       points="336.598,634.198 2847.4,634.198"
       id="polyline137"
       transform="matrix(0.04602469,0,0,1.0417648,3009.7712,-874.94366)" />
    <polyline
       class="StaffLines"
       fill="none"
       stroke="#000000"
       stroke-width="2.73"
       stroke-linejoin="bevel"
       points="336.598,658.998 2847.4,658.998"
       id="polyline138"
       transform="matrix(0.04602469,0,0,1.0417648,3009.7712,-874.94366)" />
    <polyline
       class="StaffLines"
       fill="none"
       stroke="#000000"
       stroke-width="2.73"
       stroke-linejoin="bevel"
       points="336.598,683.798 2847.4,683.798"
       id="polyline139"
       transform="matrix(0.04602469,0,0,1.0417648,3009.7712,-874.94366)" />
    <polyline
       class="StaffLines"
       fill="none"
       stroke="#000000"
       stroke-width="2.73"
       stroke-linejoin="bevel"
       points="336.598,708.598 2847.4,708.598"
       id="polyline140"
       transform="matrix(0.04602469,0,0,1.0417648,3009.7712,-874.94366)" />
    <polyline
       class="StaffLines"
       fill="none"
       stroke="#000000"
       stroke-width="2.73"
       stroke-linejoin="bevel"
       points="336.598,733.398 2847.4,733.398"
       id="polyline141"
       transform="matrix(0.04602469,0,0,1.0417648,3009.7712,-874.94366)" />
    <polyline
       class="StaffLines"
       fill="none"
       stroke="#000000"
       stroke-width="2.73"
       stroke-linejoin="bevel"
       points="336.598,634.198 2847.4,634.198"
       id="polyline142"
       transform="matrix(0.05250038,0,0,1.0417648,3287.5915,-874.94366)" />
    <polyline
       class="StaffLines"
       fill="none"
       stroke="#000000"
       stroke-width="2.73"
       stroke-linejoin="bevel"
       points="336.598,658.998 2847.4,658.998"
       id="polyline143"
       transform="matrix(0.05250038,0,0,1.0417648,3287.5915,-874.94366)" />
    <polyline
       class="StaffLines"
       fill="none"
       stroke="#000000"
       stroke-width="2.73"
       stroke-linejoin="bevel"
       points="336.598,683.798 2847.4,683.798"
       id="polyline144"
       transform="matrix(0.05250038,0,0,1.0417648,3287.5915,-874.94366)" />
    <polyline
       class="StaffLines"
       fill="none"
       stroke="#000000"
       stroke-width="2.73"
       stroke-linejoin="bevel"
       points="336.598,708.598 2847.4,708.598"
       id="polyline145"
       transform="matrix(0.05250038,0,0,1.0417648,3287.5915,-874.94366)" />
    <polyline
       class="StaffLines"
       fill="none"
       stroke="#000000"
       stroke-width="2.73"
       stroke-linejoin="bevel"
       points="336.598,733.398 2847.4,733.398"
       id="polyline146"
       transform="matrix(0.05250038,0,0,1.0417648,3287.5915,-874.94366)" />
    <polyline
       class="StaffLines"
       fill="none"
       stroke="#000000"
       stroke-width="2.73"
       stroke-linejoin="bevel"
       points="336.598,634.198 2847.4,634.198"
       id="polyline147"
       transform="matrix(0.05250038,0,0,1.0417648,3287.5915,-874.94366)" />
    <polyline
       class="StaffLines"
       fill="none"
       stroke="#000000"
       stroke-width="2.73"
       stroke-linejoin="bevel"
       points="336.598,658.998 2847.4,658.998"
       id="polyline148"
       transform="matrix(0.05250038,0,0,1.0417648,3287.5915,-874.94366)" />
    <polyline
       class="StaffLines"
       fill="none"
       stroke="#000000"
       stroke-width="2.73"
       stroke-linejoin="bevel"
       points="336.598,683.798 2847.4,683.798"
       id="polyline149"
       transform="matrix(0.05250038,0,0,1.0417648,3287.5915,-874.94366)" />
    <polyline
       class="StaffLines"
       fill="none"
       stroke="#000000"
       stroke-width="2.73"
       stroke-linejoin="bevel"
       points="336.598,708.598 2847.4,708.598"
       id="polyline150"
       transform="matrix(0.05250038,0,0,1.0417648,3287.5915,-874.94366)" />
    <polyline
       class="StaffLines"
       fill="none"
       stroke="#000000"
       stroke-width="2.73"
       stroke-linejoin="bevel"
       points="336.598,733.398 2847.4,733.398"
       id="polyline151"
       transform="matrix(0.05250038,0,0,1.0417648,3287.5915,-874.94366)" />
    <polyline
       class="StaffLines"
       fill="none"
       stroke="#000000"
       stroke-width="2.73"
       stroke-linejoin="bevel"
       points="336.598,634.198 2847.4,634.198"
       id="polyline152"
       transform="matrix(0.0659746,0,0,1.0417648,3561.0561,-874.94366)" />
    <polyline
       class="StaffLines"
       fill="none"
       stroke="#000000"
       stroke-width="2.73"
       stroke-linejoin="bevel"
       points="336.598,658.998 2847.4,658.998"
       id="polyline153"
       transform="matrix(0.0659746,0,0,1.0417648,3561.0561,-874.94366)" />
    <polyline
       class="StaffLines"
       fill="none"
       stroke="#000000"
       stroke-width="2.73"
       stroke-linejoin="bevel"
       points="336.598,683.798 2847.4,683.798"
       id="polyline154"
       transform="matrix(0.0659746,0,0,1.0417648,3561.0561,-874.94366)" />
    <polyline
       class="StaffLines"
       fill="none"
       stroke="#000000"
       stroke-width="2.73"
       stroke-linejoin="bevel"
       points="336.598,708.598 2847.4,708.598"
       id="polyline155"
       transform="matrix(0.0659746,0,0,1.0417648,3561.0561,-874.94366)" />
    <polyline
       class="StaffLines"
       fill="none"
       stroke="#000000"
       stroke-width="2.73"
       stroke-linejoin="bevel"
       points="336.598,733.398 2847.4,733.398"
       id="polyline156"
       transform="matrix(0.0659746,0,0,1.0417648,3561.0561,-874.94366)" />
    <polyline
       class="StaffLines"
       fill="none"
       stroke="#000000"
       stroke-width="2.73"
       stroke-linejoin="bevel"
       points="336.598,634.198 2847.4,634.198"
       id="polyline157"
       transform="matrix(0.0659746,0,0,1.0417648,3561.0561,-874.94366)" />
    <polyline
       class="StaffLines"
       fill="none"
       stroke="#000000"
       stroke-width="2.73"
       stroke-linejoin="bevel"
       points="336.598,658.998 2847.4,658.998"
       id="polyline158"
       transform="matrix(0.0659746,0,0,1.0417648,3561.0561,-874.94366)" />
    <polyline
       class="StaffLines"
       fill="none"
       stroke="#000000"
       stroke-width="2.73"
       stroke-linejoin="bevel"
       points="336.598,683.798 2847.4,683.798"
       id="polyline159"
       transform="matrix(0.0659746,0,0,1.0417648,3561.0561,-874.94366)" />
    <polyline
       class="StaffLines"
       fill="none"
       stroke="#000000"
       stroke-width="2.73"
       stroke-linejoin="bevel"
       points="336.598,708.598 2847.4,708.598"
       id="polyline160"
       transform="matrix(0.0659746,0,0,1.0417648,3561.0561,-874.94366)" />
    <polyline
       class="StaffLines"
       fill="none"
       stroke="#000000"
       stroke-width="2.73"
       stroke-linejoin="bevel"
       points="336.598,733.398 2847.4,733.398"
       id="polyline161"
       transform="matrix(0.0659746,0,0,1.0417648,3561.0561,-874.94366)" />
    <polyline
       class="StaffLines"
       fill="none"
       stroke="#000000"
       stroke-width="2.73"
       stroke-linejoin="bevel"
       points="336.598,634.198 2847.4,634.198"
       id="polyline162"
       transform="matrix(0.0711258,0,0,1.0417648,3863.3223,-874.94366)" />
    <polyline
       class="StaffLines"
       fill="none"
       stroke="#000000"
       stroke-width="2.73"
       stroke-linejoin="bevel"
       points="336.598,658.998 2847.4,658.998"
       id="polyline163"
       transform="matrix(0.0711258,0,0,1.0417648,3863.3223,-874.94366)" />
    <polyline
       class="StaffLines"
       fill="none"
       stroke="#000000"
       stroke-width="2.73"
       stroke-linejoin="bevel"
       points="336.598,683.798 2847.4,683.798"
       id="polyline164"
       transform="matrix(0.0711258,0,0,1.0417648,3863.3223,-874.94366)" />
    <polyline
       class="StaffLines"
       fill="none"
       stroke="#000000"
       stroke-width="2.73"
       stroke-linejoin="bevel"
       points="336.598,708.598 2847.4,708.598"
       id="polyline165"
       transform="matrix(0.0711258,0,0,1.0417648,3863.3223,-874.94366)" />
    <polyline
       class="StaffLines"
       fill="none"
       stroke="#000000"
       stroke-width="2.73"
       stroke-linejoin="bevel"
       points="336.598,733.398 2847.4,733.398"
       id="polyline166"
       transform="matrix(0.0711258,0,0,1.0417648,3863.3223,-874.94366)" />
    <polyline
       class="StaffLines"
       fill="none"
       stroke="#000000"
       stroke-width="2.73"
       stroke-linejoin="bevel"
       points="336.598,634.198 2847.4,634.198"
       id="polyline167"
       transform="matrix(0.0711258,0,0,1.0417648,3863.3223,-874.94366)" />
    <polyline
       class="StaffLines"
       fill="none"
       stroke="#000000"
       stroke-width="2.73"
       stroke-linejoin="bevel"
       points="336.598,658.998 2847.4,658.998"
       id="polyline168"
       transform="matrix(0.0711258,0,0,1.0417648,3863.3223,-874.94366)" />
    <polyline
       class="StaffLines"
       fill="none"
       stroke="#000000"
       stroke-width="2.73"
       stroke-linejoin="bevel"
       points="336.598,683.798 2847.4,683.798"
       id="polyline169"
       transform="matrix(0.0711258,0,0,1.0417648,3863.3223,-874.94366)" />
    <polyline
       class="StaffLines"
       fill="none"
       stroke="#000000"
       stroke-width="2.73"
       stroke-linejoin="bevel"
       points="336.598,708.598 2847.4,708.598"
       id="polyline170"
       transform="matrix(0.0711258,0,0,1.0417648,3863.3223,-874.94366)" />
    <polyline
       class="StaffLines"
       fill="none"
       stroke="#000000"
       stroke-width="2.73"
       stroke-linejoin="bevel"
       points="336.598,733.398 2847.4,733.398"
       id="polyline171"
       transform="matrix(0.0711258,0,0,1.0417648,3863.3223,-874.94366)" />
    <polyline
       class="StaffLines"
       fill="none"
       stroke="#000000"
       stroke-width="2.73"
       stroke-linejoin="bevel"
       points="336.598,634.198 2847.4,634.198"
       id="polyline172"
       transform="matrix(0.08213926,0,0,1.0417648,4149.6151,-874.94366)" />
    <polyline
       class="StaffLines"
       fill="none"
       stroke="#000000"
       stroke-width="2.73"
       stroke-linejoin="bevel"
       points="336.598,658.998 2847.4,658.998"
       id="polyline173"
       transform="matrix(0.08213926,0,0,1.0417648,4149.6151,-874.94366)" />
    <polyline
       class="StaffLines"
       fill="none"
       stroke="#000000"
       stroke-width="2.73"
       stroke-linejoin="bevel"
       points="336.598,683.798 2847.4,683.798"
       id="polyline174"
       transform="matrix(0.08213926,0,0,1.0417648,4149.6151,-874.94366)" />
    <polyline
       class="StaffLines"
       fill="none"
       stroke="#000000"
       stroke-width="2.73"
       stroke-linejoin="bevel"
       points="336.598,708.598 2847.4,708.598"
       id="polyline175"
       transform="matrix(0.08213926,0,0,1.0417648,4149.6151,-874.94366)" />
    <polyline
       class="StaffLines"
       fill="none"
       stroke="#000000"
       stroke-width="2.73"
       stroke-linejoin="bevel"
       points="336.598,733.398 2847.4,733.398"
       id="polyline176"
       transform="matrix(0.08213926,0,0,1.0417648,4149.6151,-874.94366)" />
    <polyline
       class="StaffLines"
       fill="none"
       stroke="#000000"
       stroke-width="2.73"
       stroke-linejoin="bevel"
       points="336.598,634.198 2847.4,634.198"
       id="polyline177"
       transform="matrix(0.08213926,0,0,1.0417648,4149.6151,-874.94366)" />
    <polyline
       class="StaffLines"
       fill="none"
       stroke="#000000"
       stroke-width="2.73"
       stroke-linejoin="bevel"
       points="336.598,658.998 2847.4,658.998"
       id="polyline178"
       transform="matrix(0.08213926,0,0,1.0417648,4149.6151,-874.94366)" />
    <polyline
       class="StaffLines"
       fill="none"
       stroke="#000000"
       stroke-width="2.73"
       stroke-linejoin="bevel"
       points="336.598,683.798 2847.4,683.798"
       id="polyline179"
       transform="matrix(0.08213926,0,0,1.0417648,4149.6151,-874.94366)" />
    <polyline
       class="StaffLines"
       fill="none"
       stroke="#000000"
       stroke-width="2.73"
       stroke-linejoin="bevel"
       points="336.598,708.598 2847.4,708.598"
       id="polyline180"
       transform="matrix(0.08213926,0,0,1.0417648,4149.6151,-874.94366)" />
    <polyline
       class="StaffLines"
       fill="none"
       stroke="#000000"
       stroke-width="2.73"
       stroke-linejoin="bevel"
       points="336.598,733.398 2847.4,733.398"
       id="polyline181"
       transform="matrix(0.08213926,0,0,1.0417648,4149.6151,-874.94366)" />
  </g>
</svg>
