<?xml version="1.0" encoding="UTF-8" standalone="no"?>
<svg
   width="35.913502"
   height="48.406521"
   viewBox="0 0 35.913502 48.406521"
   version="1.2"
   id="svg171"
   xmlns="http://www.w3.org/2000/svg"
   xmlns:svg="http://www.w3.org/2000/svg">
  <defs
     id="defs171" />
  <title
     id="title1">Unbenannte Partitur</title>
  <desc
     id="desc1">Generated by MuseScore Studio 4.4.3</desc>
  <path
     class="TimeSig"
     d="m 32.441505,28.179003 c -0.7904,2.17 -2.7744,9.31552 -7.6415,9.31552 -6.448,0 -7.8429,-3.96802 -13.1905,-3.96802 -0.7904,0 -1.5964,0.1085 -2.5884001,0.2945 0,0 2.4800001,-3.7665 13.0044001,-7.037 10.5091,-3.2705 13.1905,-8.432 13.1905,-14.384 0,-4.1694798 -1.8754,-12.3999998066406 -16.864,-12.3999998066406 C 3.3790049,3.1933594e-6 0.58900487,9.0209532 0.58900487,13.593473 c 0,4.06102 3.37900003,7.33153 7.44000003,7.33153 4.0765001,0 7.3470001,-3.27051 7.3470001,-7.33153 0,-2.77452 -1.984,-5.8589498 -4.5569,-6.8509498 -0.31,-0.0931 -0.6976,-0.58905 -0.6976,-1.08505 0,-0.60452 0.496,-1.28652 2.2785,-1.78252 0.496,-0.20148 1.8911,-0.496 3.3791,-0.496 5.642,0 6.7424,3.472 6.7424,8.5250498 0,11.6095 -13.7949001,14.0895 -19.5455001,22.72304 0,0 -2.9760000331123,4.154 -2.9760000331123,8.81948 0,4.66548 2.3870000331123,4.96 3.5650000331123,4.96 1.5965,0 3.286,-1.28652 3.286,-3.06905 0,-0.40295 -0.1085,-0.79043 -0.31,-1.28643 -0.589,-1.39504 -0.7905,-2.48 -0.7905,-3.286 0,-0.29452 0,-0.58904 0.1085,-0.88357 0.093,-0.60443 0.8835,-1.59643 3.2705,-1.59643 2.8676001,0 3.9680001,3.37896 5.7505001,5.952 1.7826,2.58843 4.5571,4.16948 7.7346,4.16948 3.1774,0 7.44,-2.27852 9.238,-5.952 1.7825,-3.67348 4.0609,-11.11352 4.0609,-13.77952 0,-1.302 -0.7904,-1.891 -1.6895,-1.891 -0.6974,0 -1.3794,0.403 -1.7825,1.395"
     id="path90"
     style="stroke-width:0.992" />
</svg>
