<?xml version="1.0" encoding="UTF-8" standalone="no"?>
<svg
   width="42"
   height="51"
   viewBox="0 0 42 51"
   version="1.2"
   id="svg171"
   xmlns="http://www.w3.org/2000/svg"
   xmlns:svg="http://www.w3.org/2000/svg">
  <defs
     id="defs171" />
  <title
     id="title1">Unbenannte Partitur</title>
  <desc
     id="desc1">Generated by MuseScore Studio 4.4.3</desc>
  <path
     class="TimeSig"
     d="m 32.911738,23.616779 c 3.2705,-2.48 5.549,-5.6575 5.549,-9.6255 0,-7.1454798 -7.8275,-12.9890498 -17.453,-12.9890498 -9.6255,0 -17.4684998,5.84357 -17.4684998,12.9890498 0,3.968 0.992,7.533 5.6575,10.509 -4.464,2.5885 -6.944,6.262 -6.944,11.02048 0,8.02904 8.4319998,14.47704 18.7549998,14.47704 10.3075,0 18.7395,-6.448 18.7395,-14.47704 0,-4.75848 -1.674,-9.22248 -6.8355,-11.90398 m -5.5645,-2.6815 c -6.7425,-2.1855 -14.1825,-5.456 -14.1825,-9.92 0,-3.8750498 3.565,-5.4559998 7.843,-5.4559998 6.1535,0 10.3075,2.88295 10.3075,7.4399998 0,4.7585 -2.17,7.037 -3.968,7.936 m -6.3395,23.51348 c -6.355,0 -11.8109998,-3.472 -11.8109998,-9.03643 0,-6.63405 5.1614998,-8.23055 5.1614998,-8.23055 6.7425,2.2785 16.368,5.6575 16.368,11.1135 0,2.68148 -3.379,6.15348 -9.7185,6.15348"
     id="path118"
     style="stroke-width:0.992" />
</svg>
