<?xml version="1.0" encoding="UTF-8" standalone="no"?>
<svg
   width="36.905499"
   height="48.515049"
   viewBox="0 0 36.905499 48.515049"
   version="1.2"
   id="svg171"
   xmlns="http://www.w3.org/2000/svg"
   xmlns:svg="http://www.w3.org/2000/svg">
  <defs
     id="defs171" />
  <title
     id="title1">Unbenannte Partitur</title>
  <desc
     id="desc1">Generated by MuseScore Studio 4.4.3</desc>
  <path
     class="TimeSig"
     d="m 13.888052,28.969503 c 6.045,0 8.2305,-1.7825 9.6255,-3.2705 0.2945,2.077 0.496,3.658 0.496,5.2545 0,5.65755 -1.984,12.98902 -8.928,12.98902 -2.48,0 -3.968,-0.79052 -4.96,-1.87547 2.077,-0.89905 3.7665,-3.58053 3.7665,-5.85905 0,-3.565 -2.7745,-6.355 -6.3550003,-6.355 -3.565,0 -6.448,2.79 -6.448,6.355 v 0.29452 c 0,0.89896 0.2015,2.38696 0.6045,3.17748 1.2865,3.56505 5.456,8.83505 15.3760003,8.83505 8.928,0 15.376,-8.54053 17.36,-13.09757 0.992,-2.38698 2.48,-7.23848 2.48,-12.80298 0,-6.045 -1.6895,-12.8959795 -7.533,-18.0575495 C 23.606552,0.20148344 19.933052,3.4437308e-6 16.461052,3.4437308e-6 12.989052,3.4437308e-6 5.1709409e-5,4.0609535 5.1709409e-5,15.577503 c 0,9.7185 7.641499990591,13.392 13.888000290591,13.392 m 3.6735,-24.9085495 c 3.2705,0 5.952,4.57253 5.952,10.1215695 0,5.56448 -2.6815,10.02848 -5.952,10.02848 -3.2705,0 -6.0605,-4.464 -6.0605,-10.02848 0,-5.5490395 2.79,-10.1215695 6.0605,-10.1215695"
     id="path106"
     style="stroke-width:0.992" />
</svg>
