<?xml version="1.0" encoding="UTF-8" standalone="no"?>
<svg
   width="42.454479"
   height="49.305569"
   viewBox="0 0 42.45448 49.305569"
   version="1.2"
   id="svg171"
   xmlns="http://www.w3.org/2000/svg"
   xmlns:svg="http://www.w3.org/2000/svg">
  <defs
     id="defs171" />
  <title
     id="title1">Unbenannte Partitur</title>
  <desc
     id="desc1">Generated by MuseScore Studio 4.4.3</desc>
  <path
     class="TimeSig"
     d="m 19.235532,37.308519 v 7.33157 h -8.23053 c -0.69747,0 -1.3949504,0.60443 -1.3949504,1.39496 v 1.89104 c 0,0.79043 0.6974804,1.37948 1.3949504,1.37948 h 30.05453 c 0.806,0 1.39495,-0.58905 1.39495,-1.37948 v -1.89104 c 0,-0.79053 -0.58895,-1.39496 -1.39495,-1.39496 h -8.81948 v -7.33157 h 8.81948 c 0.806,0 1.39495,-0.69747 1.39495,-1.488 v -1.89097 c 0,-0.6975 -0.58895,-1.3795 -1.39495,-1.3795 h -8.81948 v -15.779 c 0,-0.589 -0.29452,-1.085 -0.79052,-1.28651 l -1.19348,-0.60449 c -0.20157,-0.093 -0.496,-0.18605 -0.69757,-0.18605 -0.29443,0.0931 -0.69748,0.18605 -0.89895,0.38754 l -9.02105,8.23051 c -0.29443,0.31 -0.40295,0.6975 -0.40295,1.1005 v 8.1375 H 7.8275116 c 0,0 11.0205404,-11.904 22.7229704,-27.5900497 0.40305,-0.496 0.496,-0.992 0.496,-1.37948 0,-0.496 -0.20148,-0.89895 -0.29443,-0.992 l -2.18557,-2.18546996 c -0.20148,-0.20148 -0.58895,-0.40304999567203 -0.992,-0.40304999567203 -0.58895,0 -13.99643,0 -14.67843,0 -0.806,0 -1.302,0.60451999567203 -1.39505,1.19356995567203 0,0 -0.496,7.34695 -3.0690004,15.3759697 -2.58849,8.04451 -5.56449,13.00451 -8.13749002,16.66251 0,0 -0.2945099997565,0.496 -0.2945099997565,1.1005 0,0.2015 0,0.38754 0.092999999757,0.58902 0.403,0.69748 0.99200002,1.78252 0.99200002,1.78252 0,0 0.20151,0.60443 1.085,0.60443 H 19.235532"
     id="path85"
     style="stroke-width:0.992" />
</svg>
