<?xml version="1.0" encoding="UTF-8" standalone="no"?>
<svg
   width="37.106998"
   height="50.49905"
   viewBox="0 0 37.106999 50.49905"
   version="1.2"
   id="svg171"
   xmlns="http://www.w3.org/2000/svg"
   xmlns:svg="http://www.w3.org/2000/svg">
  <defs
     id="defs171" />
  <title
     id="title1">Unbenannte Partitur</title>
  <desc
     id="desc1">Generated by MuseScore Studio 4.4.3</desc>
  <path
     class="TimeSig"
     d="m 18.553456,50.49905 c -10.5245,0 -18.553499972988,-10.912 -18.553499972988,-25.296 C -4.3972988e-5,10.81905 8.028956,4.5055015e-8 18.553456,4.5055015e-8 29.062456,4.5055015e-8 37.106956,10.81905 37.106956,25.20305 c 0,14.384 -8.0445,25.296 -18.5535,25.296 m 5.859,-39.09105 c 0,-3.56495 -1.5965,-7.44 -5.859,-7.44 -4.2625,0 -5.859,3.87505 -5.859,7.44 v 27.5901 c 0,3.56495 1.5965,7.44 5.859,7.44 4.2625,0 5.859,-3.87505 5.859,-7.44 V 11.408"
     id="path88"
     style="stroke-width:0.992" />
</svg>
