<?xml version="1.0" encoding="UTF-8" standalone="no"?>
<svg
   width="34.425499"
   height="48.608101"
   viewBox="0 0 34.425499 48.608101"
   version="1.2"
   id="svg171"
   xmlns="http://www.w3.org/2000/svg"
   xmlns:svg="http://www.w3.org/2000/svg">
  <defs
     id="defs171" />
  <title
     id="title1">Unbenannte Partitur</title>
  <desc
     id="desc1">Generated by MuseScore Studio 4.4.3</desc>
  <path
     class="TimeSig"
     d="m 1.1934968,2.7745305 c 0,0 0.496,4.75852 0.496,9.9200005 0,4.46402 -0.2015,8.92802 -0.496,13.39203 0,0 0,0.093 0,0.29449 0,0.496 0.093,1.19351 0.6975,1.28651 0.8835,0.20149 2.976,0.69749 3.472,0.79049 0.186,0 0.2945,0.10851 0.496,0.10851 0.3875,0 0.7905,-0.20151 0.992,-0.79051 0.496,-1.302 1.581,-6.448 7.8276002,-6.448 7.0525,0 8.3389,6.045 8.3389,10.80351 0,5.85897 -1.8909,12.40002 -8.928,12.40002 -2.2784,0 -3.5804,-0.29453 -4.1695002,-0.69748 -0.2945,-0.093 -0.496,-0.38757 -0.496,-0.58905 0,-0.29452 0.093,-0.496 0.4031,-0.69747 0.8835002,-0.58905 3.9680002,-1.68948 3.9680002,-6.54105 0,-4.86697 -3.3791,-6.74248 -7.2541002,-6.74248 -3.8595,0 -6.541000022061,3.565 -6.541000022061,6.94405 0,8.72643 8.230500022061,12.4 15.872000222061,12.4 10.1215,0 18.5535,-6.06052 18.5535,-16.67805 0,-10.509 -7.3469,-16.058 -17.2669,-16.058 -3.2706,0 -6.7426,0.7905 -9.6256002,2.7745 -0.093,0.093 -0.2945,0.093 -0.3875,0.093 -0.403,0 -0.6975,-0.2945 -0.6975,-0.6975 v -6.24647 c 0,-0.58905 0.496,-1.08505 1.085,-1.08505 h 0.1085 c 1.488,0.093 4.7585002,0.496 8.2305002,0.496 7.1455,0 12.5086,-1.4880005 15.2831,-8.8349505 0.093,-0.29453 0.2015,-0.69758 0.2015,-0.992 0,-0.79053005 -0.496,-1.37958004977902 -1.798,-1.37958004977902 -0.3875,0 -0.7906,0.093099999779 -1.3795,0.18599999977902 -4.8671,1.19358005 -8.6336,1.59653005 -12.3071,1.59653005 -3.5649,0 -7.0369002,-0.40295 -11.3150002,-0.99200005 0,0 -0.496,-0.10853 -1.178,-0.10853 -1.488,0 -2.1855,0.49600005 -2.1855,2.09253005"
     id="path94"
     style="stroke-width:0.992" />
</svg>
