<?xml version="1.0" encoding="UTF-8" standalone="no"?>
<svg
   width="36.905499"
   height="48.515041"
   viewBox="0 0 36.905499 48.515042"
   version="1.2"
   id="svg171"
   xmlns="http://www.w3.org/2000/svg"
   xmlns:svg="http://www.w3.org/2000/svg">
  <defs
     id="defs171" />
  <title
     id="title1">Unbenannte Partitur</title>
  <desc
     id="desc1">Generated by MuseScore Studio 4.4.3</desc>
  <path
     class="TimeSig"
     d="m 23.017494,19.545493 c -6.0604,0 -8.2304,1.78251 -9.6255,3.27051 -0.2945,-2.077 -0.496,-3.67351 -0.496,-5.25451 0,-5.65749 1.984,-13.0045395 8.928,-13.0045395 2.48,0 3.968,0.806 4.96,1.89105 -2.0769,0.89895 -3.7665,3.5649495 -3.7665,5.8589495 0,3.56505 2.7745,6.33954 6.3551,6.33954 3.5649,0 6.448,-2.77449 6.448,-6.33954 v -0.31 c 0,-0.88348 -0.2015,-2.3714795 -0.6046,-3.1619995 -1.2865,-3.58043 -5.456,-8.8349500562692 -15.376,-8.8349500562692 -8.928,0 -15.3760004,8.5249500562692 -17.3600004,13.0974695562692 -0.992,2.37153 -2.4799999833851,7.23853 -2.4799999833851,12.78753 0,6.0605 1.6894999833851,12.89604 7.5329999833851,18.05752 5.7661004,4.37095 9.4241004,4.57252 12.8961004,4.57252 3.4875,0 16.4764,-4.07652 16.4764,-15.57754 0,-9.7185 -7.6415,-13.39201 -13.888,-13.39201 m -3.6735,24.79998 c -3.2705,0 -5.952,-4.464 -5.952,-10.02843 0,-5.54904 2.6815,-10.10604 5.952,-10.10604 3.2706,0 6.0606,4.557 6.0606,10.10604 0,5.56443 -2.79,10.02843 -6.0606,10.02843"
     id="path92"
     style="stroke-width:0.992" />
</svg>
