<?xml version="1.0" encoding="UTF-8" standalone="no"?>
<svg
   width="42"
   height="51"
   viewBox="0 0 42 51"
   version="1.2"
   id="svg171"
   xmlns="http://www.w3.org/2000/svg"
   xmlns:svg="http://www.w3.org/2000/svg">
  <defs
     id="defs171" />
  <title
     id="title1">Unbenannte Partitur</title>
  <desc
     id="desc1">Generated by MuseScore Studio 4.4.3</desc>
  <path
     class="TimeSig"
     d="M 28.292822,45.146213 V 2.4902132 c 0,-0.69747 -0.496,-1.19347 -1.1936,-1.19347 h -9.827 c -0.2014,0 -0.3874,0.0929 -0.589,0.20147 -0.1084,0.0931 -0.2944,0.29453 -0.403,0.38748 L 5.1667223,21.136743 c -0.093,0.20149 -0.093,0.403 -0.093,0.589 0,0.403 0.2945,0.806 0.589,0.992 l 1.891,1.10049 c 0.2015,0.093 0.403,0.20151 0.589,0.20151 0.403,0 0.806,-0.31 0.992,-0.60451 l 7.0524997,-12.10554 v 33.83652 H 8.6387223 c -0.682,0 -1.178,0.496 -1.178,1.19358 v 2.17 c 0,0.69747 0.496,1.19347 1.178,1.19347 H 35.825722 c 0.6975,0 1.1005,-0.496 1.1005,-1.19347 v -2.17 c 0,-0.69758 -0.403,-1.19358 -1.1005,-1.19358 h -7.5329"
     id="path87"
     style="stroke-width:0.992" />
</svg>
