<?xml version="1.0" encoding="UTF-8" standalone="no"?>
<svg
   width="34.828499"
   height="49.69305"
   viewBox="0 0 34.828499 49.693051"
   version="1.2"
   id="svg171"
   xmlns="http://www.w3.org/2000/svg"
   xmlns:svg="http://www.w3.org/2000/svg">
  <defs
     id="defs171" />
  <title
     id="title1">Unbenannte Partitur</title>
  <desc
     id="desc1">Generated by MuseScore Studio 4.4.3</desc>
  <path
     class="TimeSig"
     d="m 14.585499,37.091573 c -2.1855,3.27053 -5.0685,7.23853 -5.0685,10.912 0,1.10053 0.31,1.68948 1.395,1.68948 1.581,0 2.573,-0.40295 5.7505,-0.58895 0.2945,0 0.6975,0 1.1005,0 2.7745,-0.10853 5.456,0.58895 6.1535,0.58895 0.8835,0 2.573,-1.08495 2.48,-1.984 0,-0.093 0,-0.20148 0,-0.29452 0,-0.20148 -0.6045,-3.27043 -0.6045,-6.944 0,-2.09243 0.2015,-4.464 0.7905,-6.64948 1.1935,-4.6655 4.371,-13.0975 6.5565,-19.344 1.085,-3.06905 1.6895,-8.6334798 1.6895,-10.8190498 0,-0.88347 0,-1.37947 -0.1085,-2.27843 -0.093,-0.99199998 -0.496,-1.3795699827828 -1.085,-1.3795699827828 -0.496,0 -1.2865,0 -1.7825,0 -0.496,0 -1.1935,0.2945300027828 -1.1935,1.3795699827828 0,0.992 -0.2015,7.73443 -4.1695,7.73443 -4.1695,0 -5.363,-8.43199998 -11.811,-8.43199998 -6.1535,0 -9.92,6.26199998 -10.2145,6.85104998 v -4.75852 c 0,-0.60453 -0.496,-1.10053 -1.085,-1.10053 h -2.294 c -0.58900003,0 -1.0850000306268,0.496 -1.0850000306268,1.10053 V 21.126553 c 0,0.589 0.4960000006268,1.085 1.0850000306268,1.085 h 2.294 c 0.589,0 1.085,-0.496 1.085,-1.085 v -3.1775 c 0,-2.2785 1.488,-5.36305 4.96,-5.36305 3.472,0 3.7665,3.78205 11.7025,3.78205 1.984,0 5.6575,-0.403 6.6495,-1.302 -0.7905,1.488 -10.912,18.755 -13.1905,22.02552"
     id="path96"
     style="stroke-width:0.992" />
</svg>
