<?xml version="1.0" encoding="UTF-8" standalone="no"?>
<svg
   width="34.628597"
   height="48.4221"
   viewBox="0 0 34.628598 48.4221"
   version="1.2"
   id="svg171"
   xmlns="http://www.w3.org/2000/svg"
   xmlns:svg="http://www.w3.org/2000/svg">
  <defs
     id="defs171" />
  <title
     id="title1">Unbenannte Partitur</title>
  <desc
     id="desc1">Generated by MuseScore Studio 4.4.3</desc>
  <path
     class="TimeSig"
     d="m 25.49895,22.630045 c 4.96,-1.891 8.432,-5.0685 8.432,-10.52447 0,-0.88358 -0.2944,-12.1055798276033 -17.36,-12.1055798276033 C -0.49455026,-4.8276033e-6 0.00144974,12.105575 0.00144974,12.105575 h 0.093 l -0.093,0.20147 c 0,3.565 2.88299996,6.355 6.44799996,6.355 3.5651003,0 6.3551003,-2.79 6.3551003,-6.355 0,-2.8830498 -2.1856,-5.6574698 -4.9601003,-6.2465198 0.093,-0.10853 0.186,-0.20148 0.2945,-0.29453 1.3796,-0.992 3.2705003,-1.488 5.1616003,-1.488 4.154,0 8.618,2.48 8.618,7.8275798 0,6.24647 -4.65,7.14547 -5.8436,7.34697 -1.1935,0.2015 -6.7424003,0.589 -7.9360003,0.589 -1.1935,0 -1.2865,1.395 -1.2865,1.395 v 1.984 c 0,0 0.186,1.085 1.2865,1.1935 1.6896,0.093 3.9680003,0.093 7.1456003,0.589 4.3555,0.589 6.634,3.565 6.634,10.50905 0,6.64948 -4.464,8.432 -8.618,8.432 -2.79,0 -5.3631003,-0.79052 -6.4481003,-1.58105 3.2705003,-0.20147 5.9521003,-3.06895 5.9521003,-6.35495 0,-3.56505 -2.79,-6.44805 -6.3551003,-6.44805 -3.565,0 -6.44799996,2.883 -6.44799996,6.44805 0,8.13748 7.43999996,12.214 14.78710026,12.214 9.5169,0 19.84,-3.286 19.84,-14.08957 0,-7.23848 -4.96,-10.32298 -9.3311,-11.70248 h 0.2015"
     id="path104"
     style="stroke-width:0.992" />
</svg>
